RobotoSerifDisplay-SuperCondItalic 00m.ufo
<glyph name="numbersign" format="2">
  <advance width="476"/>
  <unicode hex="0023"/>
  <outline>
    <contour>
      <point x="57" y="0" type="line"/>
      <point x="111" y="0" type="line"/>
      <point x="314" y="750" type="line"/>
      <point x="260" y="750" type="line"/>
    </contour>
    <contour>
      <point x="13" y="185" type="line"/>
      <point x="436" y="185" type="line"/>
      <point x="456" y="319" type="line"/>
      <point x="33" y="319" type="line"/>
    </contour>
    <contour>
      <point x="86" y="451" type="line"/>
      <point x="510" y="451" type="line"/>
      <point x="531" y="585" type="line"/>
      <point x="107" y="585" type="line"/>
    </contour>
    <contour>
      <point x="214" y="0" type="line"/>
      <point x="268" y="0" type="line"/>
      <point x="470" y="750" type="line"/>
      <point x="415" y="750" type="line"/>
    </contour>
  </outline>
</glyph>
<glyph name="dollar" format="2">
  <advance width="423"/>
  <unicode hex="0024"/>
  <outline>
    <contour>
      <point x="190" y="12" type="curve" smooth="yes"/>
      <point x="331" y="12"/>
      <point x="410" y="96"/>
      <point x="417" y="245" type="curve" smooth="yes"/>
      <point x="422" y="365"/>
      <point x="366" y="405"/>
      <point x="277" y="450" type="curve" smooth="yes"/>
      <point x="214" y="488"/>
      <point x="174" y="504"/>
      <point x="176" y="560" type="curve" smooth="yes"/>
      <point x="179" y="614"/>
      <point x="209" y="651"/>
      <point x="273" y="651" type="curve" smooth="yes"/>
      <point x="335" y="651"/>
      <point x="363" y="637"/>
      <point x="389" y="590" type="curve"/>
      <point x="388" y="612"/>
      <point x="379" y="643"/>
      <point x="361" y="654" type="curve"/>
      <point x="336" y="517" type="line"/>
      <point x="437" y="517" type="line"/>
      <point x="455" y="627" type="line"/>
      <point x="438" y="654"/>
      <point x="384" y="698"/>
      <point x="272" y="698" type="curve" smooth="yes"/>
      <point x="135" y="698"/>
      <point x="62" y="619"/>
      <point x="56" y="490" type="curve" smooth="yes"/>
      <point x="51" y="373"/>
      <point x="100" y="328"/>
      <point x="178" y="284" type="curve" smooth="yes"/>
      <point x="260" y="238"/>
      <point x="295" y="218"/>
      <point x="292" y="161" type="curve" smooth="yes"/>
      <point x="289" y="97"/>
      <point x="242" y="59"/>
      <point x="185" y="59" type="curve" smooth="yes"/>
      <point x="91" y="59"/>
      <point x="74" y="98"/>
      <point x="55" y="139" type="curve"/>
      <point x="63" y="110"/>
      <point x="74" y="84"/>
      <point x="89" y="59" type="curve"/>
      <point x="125" y="220" type="line"/>
      <point x="14" y="220" type="line"/>
      <point x="-11" y="105" type="line"/>
      <point x="20" y="65"/>
      <point x="74" y="12"/>
    </contour>
    <contour>
      <point x="123" y="-120" type="line"/>
      <point x="175" y="-120" type="line"/>
      <point x="200" y="20" type="line"/>
      <point x="203" y="44" type="line"/>
      <point x="312" y="664" type="line"/>
      <point x="317" y="683" type="line"/>
      <point x="335" y="790" type="line"/>
      <point x="283" y="790" type="line"/>
      <point x="264" y="682" type="line"/>
      <point x="262" y="664" type="line"/>
      <point x="153" y="42" type="line"/>
      <point x="146" y="21" type="line"/>
    </contour>
  </outline>
</glyph>
<glyph name="percent" format="2">
  <advance width="626"/>
  <unicode hex="0025"/>
  <outline>
    <contour>
      <point x="228" y="720" type="curve" smooth="yes"/>
      <point x="129" y="720"/>
      <point x="68" y="634"/>
      <point x="63" y="531" type="curve" smooth="yes"/>
      <point x="59" y="436"/>
      <point x="103" y="374"/>
      <point x="190" y="374" type="curve" smooth="yes"/>
      <point x="289" y="374"/>
      <point x="353" y="459"/>
      <point x="358" y="563" type="curve" smooth="yes"/>
      <point x="362" y="658"/>
      <point x="316" y="720"/>
    </contour>
    <contour>
      <point x="232" y="687" type="curve" smooth="yes"/>
      <point x="238" y="687"/>
      <point x="241" y="673"/>
      <point x="240" y="631" type="curve" smooth="yes"/>
      <point x="237" y="578"/>
      <point x="210" y="407"/>
      <point x="182" y="407" type="curve" smooth="yes"/>
      <point x="174" y="407"/>
      <point x="172" y="421"/>
      <point x="174" y="464" type="curve" smooth="yes"/>
      <point x="176" y="515"/>
      <point x="204" y="687"/>
    </contour>
    <contour>
      <point x="474" y="336" type="curve" smooth="yes"/>
      <point x="375" y="336"/>
      <point x="312" y="250"/>
      <point x="307" y="147" type="curve" smooth="yes"/>
      <point x="303" y="52"/>
      <point x="349" y="-10"/>
      <point x="436" y="-10" type="curve" smooth="yes"/>
      <point x="535" y="-10"/>
      <point x="598" y="75"/>
      <point x="603" y="179" type="curve" smooth="yes"/>
      <point x="607" y="274"/>
      <point x="561" y="336"/>
    </contour>
    <contour>
      <point x="478" y="303" type="curve" smooth="yes"/>
      <point x="483" y="303"/>
      <point x="488" y="289"/>
      <point x="486" y="247" type="curve" smooth="yes"/>
      <point x="483" y="194"/>
      <point x="455" y="23"/>
      <point x="426" y="23" type="curve" smooth="yes"/>
      <point x="419" y="23"/>
      <point x="418" y="37"/>
      <point x="419" y="80" type="curve" smooth="yes"/>
      <point x="422" y="131"/>
      <point x="449" y="303"/>
    </contour>
    <component base="fraction" xOffset="177"/>
  </outline>
</glyph>
<glyph name="ampersand" format="2">
  <advance width="617"/>
  <unicode hex="0026"/>
  <outline>
    <contour>
      <point x="577" y="0" type="line"/>
      <point x="585" y="40" type="line"/>
      <point x="584" y="40" type="line" smooth="yes"/>
      <point x="577" y="40"/>
      <point x="568" y="58"/>
      <point x="531" y="108" type="curve" smooth="yes"/>
      <point x="480" y="214"/>
      <point x="354" y="397"/>
      <point x="361" y="551" type="curve" smooth="yes"/>
      <point x="365" y="638"/>
      <point x="380" y="674"/>
      <point x="400" y="674" type="curve" smooth="yes"/>
      <point x="419" y="674"/>
      <point x="425" y="643"/>
      <point x="423" y="604" type="curve" smooth="yes"/>
      <point x="420" y="535"/>
      <point x="411" y="475"/>
      <point x="351" y="429" type="curve"/>
      <point x="356" y="403" type="line"/>
      <point x="483" y="446"/>
      <point x="541" y="520"/>
      <point x="544" y="596" type="curve" smooth="yes"/>
      <point x="547" y="665"/>
      <point x="504" y="720"/>
      <point x="401" y="720" type="curve" smooth="yes"/>
      <point x="269" y="720"/>
      <point x="190" y="638"/>
      <point x="186" y="516" type="curve" smooth="yes"/>
      <point x="178" y="317"/>
      <point x="337" y="90"/>
      <point x="397" y="0" type="curve"/>
    </contour>
    <contour>
      <point x="282" y="55" type="curve" smooth="yes"/>
      <point x="222" y="55"/>
      <point x="191" y="115"/>
      <point x="195" y="199" type="curve" smooth="yes"/>
      <point x="198" y="281"/>
      <point x="206" y="336"/>
      <point x="229" y="391" type="curve"/>
      <point x="228" y="409" type="line"/>
      <point x="91" y="361"/>
      <point x="22" y="285"/>
      <point x="18" y="177" type="curve" smooth="yes"/>
      <point x="12" y="56"/>
      <point x="89" y="-10"/>
      <point x="201" y="-10" type="curve" smooth="yes"/>
      <point x="403" y="-10"/>
      <point x="506" y="185"/>
      <point x="564" y="328" type="curve" smooth="yes"/>
      <point x="577" y="361"/>
      <point x="587" y="366"/>
      <point x="607" y="366" type="curve" smooth="yes"/>
      <point x="621" y="366" type="line"/>
      <point x="629" y="403" type="line"/>
      <point x="484" y="403" type="line"/>
      <point x="475" y="366" type="line"/>
      <point x="482" y="366" type="line" smooth="yes"/>
      <point x="502" y="366"/>
      <point x="525" y="363"/>
      <point x="525" y="356" type="curve"/>
      <point x="498" y="228"/>
      <point x="385" y="55"/>
    </contour>
  </outline>
</glyph>
<glyph name="comma" format="2">
  <advance width="210"/>
  <unicode hex="002C"/>
  <outline>
    <contour>
      <point x="53" y="-151" type="line"/>
      <point x="151" y="-84"/>
      <point x="187" y="-9"/>
      <point x="190" y="66" type="curve" smooth="yes"/>
      <point x="192" y="122"/>
      <point x="165" y="163"/>
      <point x="113" y="163" type="curve" smooth="yes"/>
      <point x="60" y="163"/>
      <point x="26" y="124"/>
      <point x="24" y="75" type="curve" smooth="yes"/>
      <point x="22" y="31"/>
      <point x="50" y="-6"/>
      <point x="110" y="-6" type="curve" smooth="yes"/>
      <point x="122" y="-6"/>
      <point x="131" y="-1"/>
      <point x="144" y="10" type="curve"/>
      <point x="146" y="15"/>
      <point x="145" y="17"/>
      <point x="141" y="17" type="curve"/>
      <point x="104" y="-42"/>
      <point x="64" y="-74"/>
      <point x="7" y="-103" type="curve"/>
    </contour>
  </outline>
</glyph>
<glyph name="hyphen" format="2">
  <advance width="332"/>
  <unicode hex="002D"/>
  <outline>
    <contour>
      <point x="75" y="345" type="line"/>
      <point x="52" y="232" type="line"/>
      <point x="288" y="232" type="line"/>
      <point x="311" y="345" type="line"/>
    </contour>
  </outline>
</glyph>
<glyph name="three" format="2">
  <advance width="423"/>
  <unicode hex="0033"/>
  <outline>
    <contour>
      <point x="171" y="-90" type="curve" smooth="yes"/>
      <point x="45" y="-90"/>
      <point x="-3" y="-18"/>
      <point x="-14" y="88" type="curve"/>
      <point x="28" y="111" type="line"/>
      <point x="31" y="26"/>
      <point x="64" y="-37"/>
      <point x="126" y="-37" type="curve" smooth="yes"/>
      <point x="189" y="-37"/>
      <point x="212" y="51"/>
      <point x="216" y="134" type="curve" smooth="yes"/>
      <point x="219" y="207"/>
      <point x="202" y="262"/>
      <point x="140" y="262" type="curve" smooth="yes"/>
      <point x="120" y="262" type="line"/>
      <point x="129" y="305" type="line"/>
      <point x="155" y="305" type="line" smooth="yes"/>
      <point x="245" y="305"/>
      <point x="262" y="400"/>
      <point x="266" y="491" type="curve" smooth="yes"/>
      <point x="269" y="542"/>
      <point x="258" y="572"/>
      <point x="238" y="572" type="curve" smooth="yes"/>
      <point x="229" y="572"/>
      <point x="218" y="568"/>
      <point x="193" y="543" type="curve"/>
      <point x="203" y="557"/>
      <point x="213" y="569"/>
      <point x="223" y="582" type="curve"/>
      <point x="195" y="431" type="line"/>
      <point x="64" y="431" type="line"/>
      <point x="87" y="553" type="line"/>
      <point x="117" y="584"/>
      <point x="181" y="618"/>
      <point x="259" y="618" type="curve" smooth="yes"/>
      <point x="368" y="618"/>
      <point x="438" y="563"/>
      <point x="433" y="468" type="curve" smooth="yes"/>
      <point x="429" y="367"/>
      <point x="349" y="299"/>
      <point x="218" y="288" type="curve"/>
      <point x="248" y="302" type="line"/>
      <point x="246" y="285" type="line"/>
      <point x="219" y="299" type="line"/>
      <point x="369" y="279"/>
      <point x="400" y="199"/>
      <point x="396" y="119" type="curve" smooth="yes"/>
      <point x="390" y="-15"/>
      <point x="294" y="-90"/>
    </contour>
  </outline>
</glyph>
<glyph name="seven" format="2">
  <advance width="423"/>
  <unicode hex="0037"/>
  <outline>
    <contour>
      <point x="181" y="471" type="line" smooth="yes"/>
      <point x="138" y="471"/>
      <point x="121" y="464"/>
      <point x="112" y="424" type="curve" smooth="yes"/>
      <point x="88" y="339" type="line"/>
      <point x="52" y="339" type="line"/>
      <point x="102" y="609" type="line"/>
      <point x="470" y="609" type="line"/>
      <point x="452" y="519" type="line"/>
      <point x="320" y="350"/>
      <point x="268" y="212"/>
      <point x="233" y="-77" type="curve"/>
      <point x="52" y="-77" type="line"/>
      <point x="104" y="193"/>
      <point x="328" y="431"/>
      <point x="388" y="495" type="curve"/>
      <point x="388" y="471" type="line"/>
    </contour>
  </outline>
</glyph>
<glyph name="question" format="2">
  <advance width="455"/>
  <unicode hex="003F"/>
  <outline>
    <contour>
      <point x="191" y="379" type="curve"/>
      <point x="170" y="251" type="line"/>
      <point x="238" y="251" type="line"/>
      <point x="252" y="343" type="line"/>
      <point x="393" y="379"/>
      <point x="482" y="443"/>
      <point x="488" y="570" type="curve" smooth="yes"/>
      <point x="493" y="680"/>
      <point x="418" y="741"/>
      <point x="283" y="741" type="curve" smooth="yes"/>
      <point x="186" y="741"/>
      <point x="120" y="700"/>
      <point x="93" y="676" type="curve"/>
      <point x="69" y="553" type="line"/>
      <point x="210" y="553" type="line"/>
      <point x="241" y="711" type="line"/>
      <point x="216" y="697"/>
      <point x="209" y="684"/>
      <point x="216" y="672" type="curve"/>
      <point x="242" y="692"/>
      <point x="250" y="695"/>
      <point x="262" y="695" type="curve" smooth="yes"/>
      <point x="295" y="695"/>
      <point x="302" y="656"/>
      <point x="299" y="588" type="curve" smooth="yes"/>
      <point x="295" y="495"/>
      <point x="274" y="420"/>
    </contour>
    <component base="period" xOffset="81"/>
  </outline>
</glyph>
<glyph name="at" format="2">
  <advance width="710"/>
  <unicode hex="0040"/>
  <outline>
    <contour>
      <point x="344" y="-153" type="curve" smooth="yes"/>
      <point x="418" y="-153"/>
      <point x="485" y="-130"/>
      <point x="534" y="-99" type="curve"/>
      <point x="531" y="-53" type="line"/>
      <point x="482" y="-83"/>
      <point x="421" y="-107"/>
      <point x="346" y="-107" type="curve" smooth="yes"/>
      <point x="210" y="-107"/>
      <point x="93" y="5"/>
      <point x="103" y="230" type="curve" smooth="yes"/>
      <point x="113" y="468"/>
      <point x="237" y="627"/>
      <point x="416" y="627" type="curve" smooth="yes"/>
      <point x="558" y="627"/>
      <point x="651" y="522"/>
      <point x="643" y="344" type="curve" smooth="yes"/>
      <point x="636" y="174"/>
      <point x="576" y="93"/>
      <point x="525" y="93" type="curve" smooth="yes"/>
      <point x="515" y="93"/>
      <point x="509" y="103"/>
      <point x="510" y="121" type="curve" smooth="yes"/>
      <point x="511" y="130"/>
      <point x="512" y="140"/>
      <point x="515" y="153" type="curve" smooth="yes"/>
      <point x="597" y="470" type="line"/>
      <point x="486" y="470" type="line"/>
      <point x="432" y="405" type="line"/>
      <point x="426" y="401" type="line"/>
      <point x="358" y="137" type="line"/>
      <point x="371" y="136" type="line"/>
      <point x="389" y="71"/>
      <point x="434" y="48"/>
      <point x="492" y="48" type="curve" smooth="yes"/>
      <point x="602" y="48"/>
      <point x="705" y="159"/>
      <point x="713" y="342" type="curve" smooth="yes"/>
      <point x="722" y="542"/>
      <point x="607" y="673"/>
      <point x="418" y="673" type="curve" smooth="yes"/>
      <point x="196" y="673"/>
      <point x="28" y="488"/>
      <point x="17" y="225" type="curve" smooth="yes"/>
      <point x="6" y="-27"/>
      <point x="169" y="-153"/>
    </contour>
    <contour>
      <point x="273" y="47" type="curve" smooth="yes"/>
      <point x="311" y="47"/>
      <point x="349" y="76"/>
      <point x="384" y="160" type="curve"/>
      <point x="378" y="201" type="line"/>
      <point x="359" y="134"/>
      <point x="344" y="114"/>
      <point x="332" y="114" type="curve" smooth="yes"/>
      <point x="317" y="114"/>
      <point x="310" y="139"/>
      <point x="313" y="196" type="curve" smooth="yes"/>
      <point x="317" y="296"/>
      <point x="351" y="430"/>
      <point x="398" y="430" type="curve" smooth="yes"/>
      <point x="407" y="430"/>
      <point x="423" y="417"/>
      <point x="432" y="367" type="curve"/>
      <point x="452" y="391" type="line"/>
      <point x="435" y="454"/>
      <point x="399" y="476"/>
      <point x="349" y="476" type="curve" smooth="yes"/>
      <point x="244" y="476"/>
      <point x="163" y="344"/>
      <point x="158" y="220" type="curve" smooth="yes"/>
      <point x="153" y="113"/>
      <point x="207" y="47"/>
    </contour>
  </outline>
</glyph>
<glyph name="C" format="2">
  <advance width="521"/>
  <unicode hex="0043"/>
  <anchor x="306" y="741" name="top"/>
  <anchor x="274" y="0" name="bottom"/>
  <outline>
    <contour>
      <point x="418" y="667" type="curve" smooth="yes"/>
      <point x="473" y="667"/>
      <point x="497" y="593"/>
      <point x="498" y="501" type="curve"/>
      <point x="535" y="501" type="line"/>
      <point x="573" y="710" type="line"/>
      <point x="534" y="710" type="line"/>
      <point x="495" y="583" type="line"/>
      <point x="524" y="589" type="line"/>
      <point x="495" y="684"/>
      <point x="442" y="720"/>
      <point x="347" y="720" type="curve" smooth="yes"/>
      <point x="174" y="720"/>
      <point x="40" y="543"/>
      <point x="30" y="324" type="curve" smooth="yes"/>
      <point x="20" y="103"/>
      <point x="150" y="-10"/>
      <point x="279" y="-10" type="curve" smooth="yes"/>
      <point x="396" y="-10"/>
      <point x="472" y="81"/>
      <point x="510" y="234" type="curve"/>
      <point x="477" y="253" type="line"/>
      <point x="442" y="120"/>
      <point x="383" y="41"/>
      <point x="319" y="41" type="curve" smooth="yes"/>
      <point x="263" y="41"/>
      <point x="244" y="112"/>
      <point x="250" y="259" type="curve" smooth="yes"/>
      <point x="260" y="470"/>
      <point x="316" y="667"/>
    </contour>
  </outline>
</glyph>
<glyph name="D" format="2">
  <advance width="625"/>
  <unicode hex="0044"/>
  <anchor x="354" y="741" name="top"/>
  <anchor x="322" y="0" name="bottom"/>
  <outline>
    <contour>
      <point x="88" y="670" type="line"/>
      <point x="96" y="670" type="line" smooth="yes"/>
      <point x="113" y="670"/>
      <point x="123" y="664"/>
      <point x="119" y="634" type="curve" smooth="yes"/>
      <point x="20" y="75" type="line" smooth="yes"/>
      <point x="15" y="45"/>
      <point x="4" y="40"/>
      <point x="-13" y="40" type="curve" smooth="yes"/>
      <point x="-21" y="40" type="line"/>
      <point x="-30" y="0" type="line"/>
      <point x="250" y="0" type="line" smooth="yes"/>
      <point x="504" y="0"/>
      <point x="621" y="186"/>
      <point x="630" y="400" type="curve" smooth="yes"/>
      <point x="639" y="595"/>
      <point x="528" y="710"/>
      <point x="349" y="710" type="curve" smooth="yes"/>
      <point x="97" y="710" type="line"/>
    </contour>
    <contour>
      <point x="353" y="661" type="line" smooth="yes"/>
      <point x="394" y="661"/>
      <point x="417" y="611"/>
      <point x="410" y="453" type="curve" smooth="yes"/>
      <point x="399" y="214"/>
      <point x="308" y="49"/>
      <point x="244" y="49" type="curve" smooth="yes"/>
      <point x="232" y="49" type="line"/>
      <point x="338" y="661" type="line"/>
    </contour>
  </outline>
</glyph>
<glyph name="G" format="2">
  <advance width="575"/>
  <unicode hex="0047"/>
  <anchor x="325" y="741" name="top"/>
  <anchor x="293" y="0" name="bottom"/>
  <outline>
    <contour>
      <point x="509" y="89" type="curve"/>
      <point x="544" y="282" type="line" smooth="yes"/>
      <point x="549" y="311"/>
      <point x="558" y="318"/>
      <point x="571" y="318" type="curve" smooth="yes"/>
      <point x="577" y="318" type="line"/>
      <point x="584" y="357" type="line"/>
      <point x="331" y="357" type="line"/>
      <point x="324" y="318" type="line"/>
      <point x="330" y="318" type="line" smooth="yes"/>
      <point x="344" y="318"/>
      <point x="357" y="309"/>
      <point x="352" y="282" type="curve" smooth="yes"/>
      <point x="310" y="56" type="line"/>
      <point x="304" y="47"/>
      <point x="304" y="37"/>
      <point x="296" y="37" type="curve" smooth="yes"/>
      <point x="271" y="37"/>
      <point x="246" y="98"/>
      <point x="253" y="259" type="curve" smooth="yes"/>
      <point x="263" y="474"/>
      <point x="308" y="667"/>
      <point x="412" y="667" type="curve" smooth="yes"/>
      <point x="475" y="667"/>
      <point x="503" y="590"/>
      <point x="508" y="501" type="curve"/>
      <point x="545" y="501" type="line"/>
      <point x="584" y="710" type="line"/>
      <point x="544" y="710" type="line"/>
      <point x="503" y="577" type="line"/>
      <point x="529" y="588" type="line"/>
      <point x="500" y="682"/>
      <point x="444" y="720"/>
      <point x="350" y="720" type="curve" smooth="yes"/>
      <point x="162" y="720"/>
      <point x="42" y="532"/>
      <point x="33" y="324" type="curve" smooth="yes"/>
      <point x="24" y="118"/>
      <point x="126" y="-10"/>
      <point x="289" y="-10" type="curve" smooth="yes"/>
      <point x="394" y="-10"/>
      <point x="467" y="44"/>
    </contour>
  </outline>
</glyph>
<glyph name="I" format="2">
  <advance width="316"/>
  <unicode hex="0049"/>
  <anchor x="189" y="741" name="top"/>
  <anchor x="223" y="0" name="right"/>
  <anchor x="157" y="0" name="bottom"/>
  <outline>
    <contour>
      <point x="20" y="73" type="line" smooth="yes"/>
      <point x="15" y="46"/>
      <point x="4" y="40"/>
      <point x="-14" y="40" type="curve" smooth="yes"/>
      <point x="-21" y="40" type="line"/>
      <point x="-30" y="0" type="line"/>
      <point x="258" y="0" type="line"/>
      <point x="266" y="40" type="line"/>
      <point x="258" y="40" type="line" smooth="yes"/>
      <point x="241" y="40"/>
      <point x="231" y="46"/>
      <point x="235" y="74" type="curve" smooth="yes"/>
      <point x="334" y="636" type="line" smooth="yes"/>
      <point x="339" y="664"/>
      <point x="350" y="670"/>
      <point x="368" y="670" type="curve" smooth="yes"/>
      <point x="375" y="670" type="line"/>
      <point x="384" y="710" type="line"/>
      <point x="97" y="710" type="line"/>
      <point x="88" y="670" type="line"/>
      <point x="96" y="670" type="line" smooth="yes"/>
      <point x="113" y="670"/>
      <point x="123" y="664"/>
      <point x="119" y="638" type="curve" smooth="yes"/>
    </contour>
  </outline>
</glyph>
<glyph name="K" format="2">
  <advance width="629"/>
  <unicode hex="004B"/>
  <anchor x="362" y="741" name="top"/>
  <anchor x="330" y="0" name="bottom"/>
  <outline>
    <contour>
      <point x="-30" y="0" type="line"/>
      <point x="251" y="0" type="line"/>
      <point x="260" y="40" type="line"/>
      <point x="253" y="40" type="line" smooth="yes"/>
      <point x="242" y="40"/>
      <point x="230" y="43"/>
      <point x="232" y="50" type="curve" smooth="yes"/>
      <point x="337" y="660" type="line" smooth="yes"/>
      <point x="340" y="667"/>
      <point x="360" y="670"/>
      <point x="383" y="670" type="curve" smooth="yes"/>
      <point x="391" y="670" type="line"/>
      <point x="400" y="710" type="line"/>
      <point x="97" y="710" type="line"/>
      <point x="88" y="670" type="line"/>
      <point x="96" y="670" type="line" smooth="yes"/>
      <point x="113" y="670"/>
      <point x="123" y="664"/>
      <point x="120" y="640" type="curve" smooth="yes"/>
      <point x="20" y="71" type="line" smooth="yes"/>
      <point x="15" y="45"/>
      <point x="4" y="40"/>
      <point x="-14" y="40" type="curve" smooth="yes"/>
      <point x="-21" y="40" type="line"/>
    </contour>
    <contour>
      <point x="294" y="0" type="line"/>
      <point x="577" y="0" type="line"/>
      <point x="586" y="40" type="line"/>
      <point x="578" y="40" type="line" smooth="yes"/>
      <point x="568" y="40"/>
      <point x="562" y="48"/>
      <point x="562" y="60" type="curve" smooth="yes"/>
      <point x="483" y="490" type="line"/>
      <point x="436" y="432" type="line"/>
      <point x="588" y="639" type="line" smooth="yes"/>
      <point x="604" y="662"/>
      <point x="620" y="670"/>
      <point x="644" y="670" type="curve" smooth="yes"/>
      <point x="661" y="670" type="line"/>
      <point x="670" y="710" type="line"/>
      <point x="503" y="710" type="line"/>
      <point x="495" y="670" type="line"/>
      <point x="503" y="670" type="line" smooth="yes"/>
      <point x="521" y="670"/>
      <point x="550" y="668"/>
      <point x="548" y="661" type="curve"/>
      <point x="302" y="356" type="line"/>
      <point x="298" y="340" type="line"/>
      <point x="328" y="48" type="line"/>
      <point x="327" y="41"/>
      <point x="322" y="40"/>
      <point x="307" y="40" type="curve" smooth="yes"/>
      <point x="302" y="40" type="line"/>
    </contour>
  </outline>
</glyph>
<glyph name="L" format="2">
  <advance width="481"/>
  <unicode hex="004C"/>
  <anchor x="354" y="741" name="top"/>
  <anchor x="447" y="710" name="right"/>
  <anchor x="436" y="410" name="mid"/>
  <anchor x="322" y="0" name="bottom"/>
  <outline>
    <contour>
      <point x="392" y="710" type="line"/>
      <point x="97" y="710" type="line"/>
      <point x="88" y="670" type="line"/>
      <point x="96" y="670" type="line" smooth="yes"/>
      <point x="113" y="670"/>
      <point x="123" y="664"/>
      <point x="120" y="639" type="curve" smooth="yes"/>
      <point x="20" y="71" type="line" smooth="yes"/>
      <point x="15" y="46"/>
      <point x="4" y="40"/>
      <point x="-14" y="40" type="curve" smooth="yes"/>
      <point x="-21" y="40" type="line"/>
      <point x="-30" y="0" type="line"/>
      <point x="422" y="0" type="line"/>
      <point x="463" y="228" type="line"/>
      <point x="424" y="228" type="line"/>
      <point x="380" y="95" type="line" smooth="yes"/>
      <point x="369" y="58"/>
      <point x="348" y="48"/>
      <point x="296" y="48" type="curve" smooth="yes"/>
      <point x="232" y="48" type="line"/>
      <point x="334" y="644" type="line" smooth="yes"/>
      <point x="338" y="665"/>
      <point x="351" y="670"/>
      <point x="371" y="670" type="curve" smooth="yes"/>
      <point x="383" y="670" type="line"/>
    </contour>
  </outline>
</glyph>
<glyph name="N" format="2">
  <advance width="528"/>
  <unicode hex="004E"/>
  <anchor x="302" y="741" name="top"/>
  <anchor x="270" y="0" name="bottom"/>
  <outline>
    <contour>
      <point x="-30" y="0" type="line"/>
      <point x="95" y="0" type="line"/>
      <point x="104" y="40" type="line"/>
      <point x="96" y="40" type="line" smooth="yes"/>
      <point x="79" y="40"/>
      <point x="61" y="45"/>
      <point x="61" y="56" type="curve" smooth="yes"/>
      <point x="171" y="678" type="line"/>
      <point x="144" y="675" type="line"/>
      <point x="288" y="0" type="line"/>
      <point x="434" y="0" type="line"/>
      <point x="548" y="633" type="line" smooth="yes"/>
      <point x="552" y="662"/>
      <point x="564" y="670"/>
      <point x="581" y="670" type="curve" smooth="yes"/>
      <point x="588" y="670" type="line"/>
      <point x="597" y="710" type="line"/>
      <point x="471" y="710" type="line"/>
      <point x="463" y="670" type="line"/>
      <point x="471" y="670" type="line" smooth="yes"/>
      <point x="487" y="670"/>
      <point x="506" y="665"/>
      <point x="505" y="654" type="curve" smooth="yes"/>
      <point x="422" y="161" type="line"/>
      <point x="453" y="232" type="line"/>
      <point x="365" y="710" type="line"/>
      <point x="97" y="710" type="line"/>
      <point x="88" y="670" type="line"/>
      <point x="95" y="670" type="line" smooth="yes"/>
      <point x="113" y="670"/>
      <point x="123" y="664"/>
      <point x="120" y="638" type="curve" smooth="yes"/>
      <point x="20" y="82" type="line" smooth="yes"/>
      <point x="16" y="52"/>
      <point x="3" y="40"/>
      <point x="-14" y="40" type="curve" smooth="yes"/>
      <point x="-21" y="40" type="line"/>
    </contour>
  </outline>
</glyph>
<glyph name="P" format="2">
  <advance width="565"/>
  <unicode hex="0050"/>
  <outline>
    <contour>
      <point x="283" y="341" type="line"/>
      <point x="337" y="661" type="line"/>
      <point x="342" y="661" type="line" smooth="yes"/>
      <point x="373" y="661"/>
      <point x="389" y="629"/>
      <point x="386" y="550" type="curve" smooth="yes"/>
      <point x="381" y="446"/>
      <point x="353" y="341"/>
      <point x="291" y="341" type="curve" smooth="yes"/>
    </contour>
    <contour>
      <point x="97" y="710" type="line"/>
      <point x="88" y="670" type="line"/>
      <point x="96" y="670" type="line" smooth="yes"/>
      <point x="113" y="670"/>
      <point x="123" y="664"/>
      <point x="120" y="638" type="curve" smooth="yes"/>
      <point x="20" y="71" type="line" smooth="yes"/>
      <point x="15" y="46"/>
      <point x="4" y="40"/>
      <point x="-14" y="40" type="curve" smooth="yes"/>
      <point x="-21" y="40" type="line"/>
      <point x="-30" y="0" type="line"/>
      <point x="266" y="0" type="line"/>
      <point x="274" y="40" type="line"/>
      <point x="264" y="40" type="line"/>
      <point x="244" y="40"/>
      <point x="231" y="43"/>
      <point x="231" y="53" type="curve" smooth="yes"/>
      <point x="273" y="292" type="line"/>
      <point x="333" y="292" type="line" smooth="yes"/>
      <point x="498" y="292"/>
      <point x="588" y="380"/>
      <point x="594" y="520" type="curve" smooth="yes"/>
      <point x="599" y="632"/>
      <point x="537" y="710"/>
      <point x="388" y="710" type="curve" smooth="yes"/>
    </contour>
  </outline>
</glyph>
<glyph name="Q" format="2">
  <advance width="616"/>
  <unicode hex="0051"/>
  <outline>
    <contour>
      <point x="617" y="392" type="curve" smooth="yes"/>
      <point x="626" y="588"/>
      <point x="523" y="720"/>
      <point x="366" y="720" type="curve" smooth="yes"/>
      <point x="161" y="720"/>
      <point x="40" y="538"/>
      <point x="31" y="318" type="curve" smooth="yes"/>
      <point x="22" y="122"/>
      <point x="125" y="-10"/>
      <point x="281" y="-10" type="curve" smooth="yes"/>
      <point x="487" y="-10"/>
      <point x="608" y="172"/>
    </contour>
    <contour>
      <point x="275" y="39" type="curve" smooth="yes"/>
      <point x="254" y="39"/>
      <point x="234" y="78"/>
      <point x="240" y="195" type="curve" smooth="yes"/>
      <point x="241" y="240"/>
      <point x="250" y="299"/>
      <point x="264" y="369" type="curve" smooth="yes"/>
      <point x="301" y="571"/>
      <point x="329" y="671"/>
      <point x="370" y="671" type="curve" smooth="yes"/>
      <point x="392" y="671"/>
      <point x="410" y="628"/>
      <point x="405" y="512" type="curve" smooth="yes"/>
      <point x="403" y="465"/>
      <point x="396" y="408"/>
      <point x="382" y="340" type="curve" smooth="yes"/>
      <point x="344" y="132"/>
      <point x="316" y="39"/>
    </contour>
    <contour>
      <point x="388" y="-228" type="curve" smooth="yes"/>
      <point x="422" y="-228"/>
      <point x="455" y="-222"/>
      <point x="483" y="-213" type="curve"/>
      <point x="513" y="-63" type="line"/>
      <point x="491" y="-77"/>
      <point x="441" y="-87"/>
      <point x="393" y="-87" type="curve" smooth="yes"/>
      <point x="337" y="-87"/>
      <point x="283" y="-66"/>
      <point x="286" y="-6" type="curve" smooth="yes"/>
      <point x="286" y="-4"/>
      <point x="286" y="-3"/>
      <point x="286" y="-1" type="curve"/>
      <point x="249" y="0" type="line"/>
      <point x="246" y="-15"/>
      <point x="245" y="-29"/>
      <point x="244" y="-42" type="curve" smooth="yes"/>
      <point x="238" y="-181"/>
      <point x="315" y="-228"/>
    </contour>
  </outline>
</glyph>
<glyph name="R" format="2">
  <advance width="593"/>
  <unicode hex="0052"/>
  <anchor x="383" y="741" name="top"/>
  <anchor x="351" y="0" name="bottom"/>
  <outline>
    <contour>
      <point x="-30" y="0" type="line"/>
      <point x="251" y="0" type="line"/>
      <point x="259" y="40" type="line"/>
      <point x="252" y="40" type="line" smooth="yes"/>
      <point x="240" y="40"/>
      <point x="231" y="43"/>
      <point x="232" y="50" type="curve" smooth="yes"/>
      <point x="277" y="312" type="line"/>
      <point x="415" y="312" type="line" smooth="yes"/>
      <point x="422" y="312"/>
      <point x="430" y="313"/>
      <point x="437" y="314" type="curve"/>
      <point x="499" y="330"/>
      <point x="595" y="391"/>
      <point x="601" y="523" type="curve" smooth="yes"/>
      <point x="606" y="640"/>
      <point x="526" y="710"/>
      <point x="391" y="710" type="curve" smooth="yes"/>
      <point x="97" y="710" type="line"/>
      <point x="88" y="670" type="line"/>
      <point x="96" y="670" type="line" smooth="yes"/>
      <point x="113" y="670"/>
      <point x="123" y="664"/>
      <point x="120" y="638" type="curve" smooth="yes"/>
      <point x="20" y="71" type="line" smooth="yes"/>
      <point x="15" y="45"/>
      <point x="4" y="40"/>
      <point x="-14" y="40" type="curve" smooth="yes"/>
      <point x="-21" y="40" type="line"/>
    </contour>
    <contour>
      <point x="351" y="663" type="line" smooth="yes"/>
      <point x="372" y="663"/>
      <point x="387" y="635"/>
      <point x="383" y="553" type="curve" smooth="yes"/>
      <point x="378" y="445"/>
      <point x="339" y="359"/>
      <point x="295" y="359" type="curve" smooth="yes"/>
      <point x="286" y="359" type="line"/>
      <point x="338" y="663" type="line"/>
    </contour>
    <contour>
      <point x="286" y="326" type="line"/>
      <point x="309" y="0" type="line"/>
      <point x="543" y="0" type="line"/>
      <point x="551" y="40" type="line"/>
      <point x="547" y="40" type="line" smooth="yes"/>
      <point x="540" y="40"/>
      <point x="529" y="42"/>
      <point x="526" y="68" type="curve" smooth="yes"/>
      <point x="493" y="361" type="line"/>
    </contour>
  </outline>
</glyph>
<glyph name="S" format="2">
  <advance width="469"/>
  <unicode hex="0053"/>
  <anchor x="300" y="741" name="top"/>
  <anchor x="268" y="0" name="bottom"/>
  <outline>
    <contour>
      <point x="238" y="-10" type="curve" smooth="yes"/>
      <point x="379" y="-10"/>
      <point x="454" y="86"/>
      <point x="460" y="226" type="curve" smooth="yes"/>
      <point x="465" y="339"/>
      <point x="408" y="398"/>
      <point x="320" y="454" type="curve" smooth="yes"/>
      <point x="260" y="498"/>
      <point x="230" y="522"/>
      <point x="232" y="581" type="curve" smooth="yes"/>
      <point x="235" y="635"/>
      <point x="261" y="671"/>
      <point x="302" y="671" type="curve" smooth="yes"/>
      <point x="358" y="671"/>
      <point x="402" y="615"/>
      <point x="420" y="525" type="curve"/>
      <point x="458" y="525" type="line"/>
      <point x="491" y="710" type="line"/>
      <point x="451" y="710" type="line"/>
      <point x="417" y="598" type="line"/>
      <point x="426" y="587"/>
      <point x="432" y="583"/>
      <point x="439" y="586" type="curve"/>
      <point x="406" y="684"/>
      <point x="351" y="720"/>
      <point x="283" y="720" type="curve" smooth="yes"/>
      <point x="149" y="720"/>
      <point x="74" y="627"/>
      <point x="69" y="500" type="curve" smooth="yes"/>
      <point x="64" y="385"/>
      <point x="106" y="323"/>
      <point x="189" y="268" type="curve" smooth="yes"/>
      <point x="261" y="219"/>
      <point x="296" y="189"/>
      <point x="294" y="128" type="curve" smooth="yes"/>
      <point x="291" y="77"/>
      <point x="264" y="39"/>
      <point x="217" y="39" type="curve" smooth="yes"/>
      <point x="143" y="39"/>
      <point x="86" y="95"/>
      <point x="65" y="215" type="curve"/>
      <point x="23" y="215" type="line"/>
      <point x="-16" y="0" type="line"/>
      <point x="23" y="0" type="line"/>
      <point x="59" y="124" type="line"/>
      <point x="59" y="134"/>
      <point x="55" y="137"/>
      <point x="51" y="136" type="curve"/>
      <point x="86" y="33"/>
      <point x="151" y="-10"/>
    </contour>
  </outline>
</glyph>
<glyph name="U" format="2">
  <advance width="548"/>
  <unicode hex="0055"/>
  <anchor x="296" y="741" name="top"/>
  <anchor x="314" y="0" name="right"/>
  <anchor x="264" y="0" name="bottom"/>
  <outline>
    <contour>
      <point x="279" y="309" type="curve" smooth="yes"/>
      <point x="339" y="660" type="line" smooth="yes"/>
      <point x="339" y="667"/>
      <point x="357" y="670"/>
      <point x="369" y="670" type="curve" smooth="yes"/>
      <point x="376" y="670" type="line"/>
      <point x="383" y="710" type="line"/>
      <point x="96" y="710" type="line"/>
      <point x="89" y="670" type="line"/>
      <point x="97" y="670" type="line" smooth="yes"/>
      <point x="114" y="670"/>
      <point x="124" y="664"/>
      <point x="121" y="639" type="curve" smooth="yes"/>
      <point x="69" y="334" type="line" smooth="yes"/>
      <point x="62" y="290"/>
      <point x="56" y="253"/>
      <point x="55" y="219" type="curve" smooth="yes"/>
      <point x="48" y="60"/>
      <point x="122" y="-10"/>
      <point x="269" y="-10" type="curve" smooth="yes"/>
      <point x="393" y="-10"/>
      <point x="468" y="72"/>
      <point x="503" y="262" type="curve" smooth="yes"/>
      <point x="569" y="633" type="line" smooth="yes"/>
      <point x="572" y="662"/>
      <point x="584" y="670"/>
      <point x="601" y="670" type="curve" smooth="yes"/>
      <point x="608" y="670" type="line"/>
      <point x="616" y="710" type="line"/>
      <point x="499" y="710" type="line"/>
      <point x="492" y="670" type="line"/>
      <point x="496" y="670" type="line" smooth="yes"/>
      <point x="508" y="670"/>
      <point x="525" y="664"/>
      <point x="523" y="649" type="curve" smooth="yes"/>
      <point x="458" y="272" type="line" smooth="yes"/>
      <point x="435" y="138"/>
      <point x="399" y="76"/>
      <point x="332" y="76" type="curve" smooth="yes"/>
      <point x="288" y="76"/>
      <point x="261" y="116"/>
      <point x="265" y="206" type="curve" smooth="yes"/>
      <point x="266" y="234"/>
      <point x="272" y="267"/>
    </contour>
  </outline>
</glyph>
<glyph name="V" format="2">
  <advance width="533"/>
  <unicode hex="0056"/>
  <outline>
    <contour>
      <point x="350" y="126" type="line"/>
      <point x="324" y="660" type="line"/>
      <point x="326" y="667"/>
      <point x="338" y="670"/>
      <point x="347" y="670" type="curve" smooth="yes"/>
      <point x="360" y="670" type="line"/>
      <point x="368" y="710" type="line"/>
      <point x="91" y="710" type="line"/>
      <point x="83" y="670" type="line"/>
      <point x="86" y="670" type="line" smooth="yes"/>
      <point x="97" y="670"/>
      <point x="101" y="665"/>
      <point x="102" y="642" type="curve" smooth="yes"/>
      <point x="147" y="0" type="line"/>
      <point x="296" y="0" type="line"/>
      <point x="562" y="623" type="line" smooth="yes"/>
      <point x="577" y="661"/>
      <point x="578" y="670"/>
      <point x="594" y="670" type="curve" smooth="yes"/>
      <point x="599" y="670" type="line"/>
      <point x="607" y="710" type="line"/>
      <point x="506" y="710" type="line"/>
      <point x="498" y="670" type="line"/>
      <point x="504" y="670" type="line" smooth="yes"/>
      <point x="524" y="670"/>
      <point x="530" y="664"/>
      <point x="530" y="656" type="curve"/>
      <point x="320" y="126" type="line"/>
    </contour>
  </outline>
</glyph>
<glyph name="W" format="2">
  <advance width="764"/>
  <unicode hex="0057"/>
  <anchor x="411" y="741" name="top"/>
  <outline>
    <contour>
      <point x="87" y="710" type="line"/>
      <point x="79" y="670" type="line"/>
      <point x="84" y="670" type="line" smooth="yes"/>
      <point x="105" y="670"/>
      <point x="110" y="665"/>
      <point x="110" y="641" type="curve" smooth="yes"/>
      <point x="104" y="0" type="line"/>
      <point x="255" y="0" type="line"/>
      <point x="431" y="489" type="line"/>
      <point x="408" y="489" type="line"/>
      <point x="426" y="0" type="line"/>
      <point x="577" y="0" type="line"/>
      <point x="792" y="620" type="line" smooth="yes"/>
      <point x="804" y="657"/>
      <point x="807" y="670"/>
      <point x="829" y="670" type="curve" smooth="yes"/>
      <point x="833" y="670" type="line"/>
      <point x="842" y="710" type="line"/>
      <point x="736" y="710" type="line"/>
      <point x="728" y="670" type="line"/>
      <point x="737" y="670" type="line" smooth="yes"/>
      <point x="744" y="670"/>
      <point x="759" y="665"/>
      <point x="759" y="655" type="curve"/>
      <point x="603" y="159" type="line"/>
      <point x="628" y="159" type="line"/>
      <point x="611" y="710" type="line"/>
      <point x="498" y="710" type="line"/>
      <point x="288" y="152" type="line"/>
      <point x="315" y="155" type="line"/>
      <point x="330" y="660" type="line"/>
      <point x="332" y="667"/>
      <point x="343" y="670"/>
      <point x="355" y="670" type="curve" smooth="yes"/>
      <point x="366" y="670" type="line"/>
      <point x="374" y="710" type="line"/>
    </contour>
  </outline>
</glyph>
<glyph name="X" format="2">
  <advance width="537"/>
  <unicode hex="0058"/>
  <outline>
    <contour>
      <point x="78" y="670" type="line"/>
      <point x="81" y="670" type="line" smooth="yes"/>
      <point x="92" y="670"/>
      <point x="99" y="665"/>
      <point x="104" y="641" type="curve" smooth="yes"/>
      <point x="185" y="322" type="line"/>
      <point x="189" y="313" type="line"/>
      <point x="241" y="50" type="line"/>
      <point x="239" y="43"/>
      <point x="228" y="40"/>
      <point x="219" y="40" type="curve" smooth="yes"/>
      <point x="209" y="40" type="line"/>
      <point x="201" y="0" type="line"/>
      <point x="485" y="0" type="line"/>
      <point x="494" y="40" type="line"/>
      <point x="486" y="40" type="line" smooth="yes"/>
      <point x="479" y="40"/>
      <point x="474" y="45"/>
      <point x="469" y="65" type="curve" smooth="yes"/>
      <point x="384" y="412" type="line"/>
      <point x="380" y="423" type="line"/>
      <point x="334" y="660" type="line"/>
      <point x="336" y="667"/>
      <point x="346" y="670"/>
      <point x="356" y="670" type="curve" smooth="yes"/>
      <point x="365" y="670" type="line"/>
      <point x="373" y="710" type="line"/>
      <point x="86" y="710" type="line"/>
    </contour>
    <contour>
      <point x="-40" y="0" type="line"/>
      <point x="73" y="0" type="line"/>
      <point x="81" y="40" type="line"/>
      <point x="75" y="40" type="line" smooth="yes"/>
      <point x="68" y="40"/>
      <point x="54" y="45"/>
      <point x="54" y="55" type="curve"/>
      <point x="241" y="347" type="line"/>
      <point x="216" y="383" type="line"/>
      <point x="13" y="80" type="line" smooth="yes"/>
      <point x="-1" y="51"/>
      <point x="-15" y="40"/>
      <point x="-25" y="40" type="curve" smooth="yes"/>
      <point x="-32" y="40" type="line"/>
    </contour>
    <contour>
      <point x="357" y="361" type="line"/>
      <point x="543" y="635" type="line" smooth="yes"/>
      <point x="557" y="661"/>
      <point x="571" y="670"/>
      <point x="583" y="670" type="curve" smooth="yes"/>
      <point x="585" y="670" type="line"/>
      <point x="594" y="710" type="line"/>
      <point x="480" y="710" type="line"/>
      <point x="472" y="670" type="line"/>
      <point x="479" y="670" type="line" smooth="yes"/>
      <point x="487" y="670"/>
      <point x="503" y="665"/>
      <point x="502" y="653" type="curve"/>
      <point x="332" y="396" type="line"/>
    </contour>
  </outline>
</glyph>
<glyph name="Y" format="2">
  <advance width="533"/>
  <unicode hex="0059"/>
  <anchor x="286" y="741" name="top"/>
  <anchor x="254" y="0" name="bottom"/>
  <outline>
    <contour>
      <point x="78" y="0" type="line"/>
      <point x="369" y="0" type="line"/>
      <point x="377" y="40" type="line"/>
      <point x="367" y="40" type="line" smooth="yes"/>
      <point x="351" y="40"/>
      <point x="340" y="43"/>
      <point x="344" y="72" type="curve" smooth="yes"/>
      <point x="396" y="357" type="line"/>
      <point x="352" y="269" type="line"/>
      <point x="564" y="636" type="line" smooth="yes"/>
      <point x="573" y="661"/>
      <point x="580" y="670"/>
      <point x="595" y="670" type="curve" smooth="yes"/>
      <point x="601" y="670" type="line"/>
      <point x="609" y="710" type="line"/>
      <point x="492" y="710" type="line"/>
      <point x="484" y="670" type="line"/>
      <point x="490" y="670" type="line" smooth="yes"/>
      <point x="507" y="670"/>
      <point x="518" y="663"/>
      <point x="516" y="651" type="curve"/>
      <point x="363" y="357" type="line"/>
      <point x="382" y="357" type="line"/>
      <point x="330" y="660" type="line"/>
      <point x="332" y="667"/>
      <point x="338" y="670"/>
      <point x="355" y="670" type="curve" smooth="yes"/>
      <point x="367" y="670" type="line"/>
      <point x="375" y="710" type="line"/>
      <point x="89" y="710" type="line"/>
      <point x="81" y="670" type="line"/>
      <point x="88" y="670" type="line" smooth="yes"/>
      <point x="97" y="670"/>
      <point x="100" y="667"/>
      <point x="103" y="648" type="curve" smooth="yes"/>
      <point x="187" y="283" type="line"/>
      <point x="180" y="357" type="line"/>
      <point x="129" y="72" type="line" smooth="yes"/>
      <point x="124" y="43"/>
      <point x="113" y="40"/>
      <point x="97" y="40" type="curve" smooth="yes"/>
      <point x="86" y="40" type="line"/>
    </contour>
  </outline>
</glyph>
<glyph name="Z" format="2">
  <advance width="486"/>
  <unicode hex="005A"/>
  <anchor x="295" y="741" name="top"/>
  <anchor x="263" y="0" name="bottom"/>
  <outline>
    <contour>
      <point x="122" y="49" type="line"/>
      <point x="166" y="8" type="line"/>
      <point x="530" y="641" type="line"/>
      <point x="545" y="710" type="line"/>
      <point x="107" y="710" type="line"/>
      <point x="71" y="515" type="line"/>
      <point x="107" y="515" type="line"/>
      <point x="141" y="615" type="line" smooth="yes"/>
      <point x="151" y="652"/>
      <point x="177" y="661"/>
      <point x="210" y="661" type="curve" smooth="yes"/>
      <point x="369" y="661" type="line"/>
      <point x="332" y="691" type="line"/>
      <point x="-21" y="73" type="line"/>
      <point x="-36" y="0" type="line"/>
      <point x="434" y="0" type="line"/>
      <point x="475" y="221" type="line"/>
      <point x="439" y="221" type="line"/>
      <point x="400" y="95" type="line" smooth="yes"/>
      <point x="390" y="58"/>
      <point x="369" y="49"/>
      <point x="312" y="49" type="curve" smooth="yes"/>
    </contour>
  </outline>
</glyph>
<glyph name="c" format="2">
  <advance width="454"/>
  <unicode hex="0063"/>
  <anchor x="270" y="523" name="top"/>
  <anchor x="257" y="0" name="bottom"/>
  <outline>
    <contour>
      <point x="298" y="533" type="curve" smooth="yes"/>
      <point x="136" y="533"/>
      <point x="31" y="404"/>
      <point x="23" y="227" type="curve" smooth="yes"/>
      <point x="16" y="78"/>
      <point x="106" y="-10"/>
      <point x="235" y="-10" type="curve" smooth="yes"/>
      <point x="348" y="-10"/>
      <point x="405" y="49"/>
      <point x="439" y="144" type="curve"/>
      <point x="409" y="168" type="line"/>
      <point x="387" y="113"/>
      <point x="353" y="60"/>
      <point x="311" y="60" type="curve" smooth="yes"/>
      <point x="252" y="60"/>
      <point x="228" y="123"/>
      <point x="233" y="224" type="curve" smooth="yes"/>
      <point x="238" y="354"/>
      <point x="275" y="486"/>
      <point x="320" y="486" type="curve" smooth="yes"/>
      <point x="335" y="486"/>
      <point x="341" y="475"/>
      <point x="343" y="451" type="curve"/>
      <point x="364" y="471"/>
      <point x="350" y="486"/>
      <point x="333" y="488" type="curve"/>
      <point x="311" y="365" type="line"/>
      <point x="453" y="365" type="line"/>
      <point x="471" y="472" type="line"/>
      <point x="457" y="488"/>
      <point x="407" y="533"/>
    </contour>
  </outline>
</glyph>
<glyph name="d" format="2">
  <advance width="522"/>
  <unicode hex="0064"/>
  <anchor x="595" y="735" name="right"/>
  <anchor x="231" y="0" name="bottom"/>
  <outline>
    <contour>
      <point x="150" y="-10" type="curve" smooth="yes"/>
      <point x="230" y="-10"/>
      <point x="273" y="67"/>
      <point x="323" y="198" type="curve"/>
      <point x="294" y="218" type="line"/>
      <point x="271" y="127"/>
      <point x="248" y="76"/>
      <point x="234" y="76" type="curve" smooth="yes"/>
      <point x="226" y="76"/>
      <point x="221" y="100"/>
      <point x="224" y="157" type="curve" smooth="yes"/>
      <point x="229" y="281"/>
      <point x="268" y="479"/>
      <point x="318" y="479" type="curve" smooth="yes"/>
      <point x="331" y="479"/>
      <point x="341" y="463"/>
      <point x="342" y="432" type="curve"/>
      <point x="364" y="469" type="line"/>
      <point x="347" y="507"/>
      <point x="318" y="533"/>
      <point x="263" y="533" type="curve" smooth="yes"/>
      <point x="119" y="533"/>
      <point x="27" y="363"/>
      <point x="19" y="188" type="curve" smooth="yes"/>
      <point x="14" y="69"/>
      <point x="62" y="-10"/>
    </contour>
    <contour>
      <point x="394" y="-10" type="curve" smooth="yes"/>
      <point x="441" y="-10"/>
      <point x="481" y="8"/>
      <point x="498" y="21" type="curve"/>
      <point x="505" y="58" type="line"/>
      <point x="504" y="56"/>
      <point x="498" y="48"/>
      <point x="490" y="48" type="curve" smooth="yes"/>
      <point x="478" y="48"/>
      <point x="469" y="55"/>
      <point x="470" y="75" type="curve" smooth="yes"/>
      <point x="471" y="89"/>
      <point x="477" y="125"/>
      <point x="485" y="157" type="curve" smooth="yes"/>
      <point x="588" y="750" type="line"/>
      <point x="361" y="750" type="line"/>
      <point x="354" y="712" type="line"/>
      <point x="362" y="710" type="line" smooth="yes"/>
      <point x="371" y="706"/>
      <point x="376" y="699"/>
      <point x="373" y="680" type="curve"/>
      <point x="275" y="135" type="line"/>
      <point x="277" y="136" type="line"/>
      <point x="277" y="129"/>
      <point x="276" y="123"/>
      <point x="276" y="117" type="curve"/>
      <point x="272" y="32"/>
      <point x="324" y="-10"/>
    </contour>
  </outline>
</glyph>
<glyph name="f" format="2">
  <advance width="347"/>
  <unicode hex="0066"/>
  <outline>
    <contour>
      <point x="52" y="523" type="line"/>
      <point x="44" y="478" type="line"/>
      <point x="376" y="478" type="line"/>
      <point x="385" y="523" type="line"/>
    </contour>
    <contour>
      <point x="391" y="712" type="curve" smooth="yes"/>
      <point x="414" y="712"/>
      <point x="428" y="704"/>
      <point x="433" y="696" type="curve"/>
      <point x="444" y="747" type="line"/>
      <point x="421" y="756"/>
      <point x="393" y="760"/>
      <point x="363" y="760" type="curve" smooth="yes"/>
      <point x="247" y="760"/>
      <point x="132" y="705"/>
      <point x="106" y="553" type="curve" smooth="yes"/>
      <point x="-12" y="-223" type="line"/>
      <point x="160" y="-223" type="line"/>
      <point x="324" y="619" type="line" smooth="yes"/>
      <point x="335" y="684"/>
      <point x="356" y="712"/>
    </contour>
  </outline>
</glyph>
<glyph name="g" format="2">
  <advance width="518"/>
  <unicode hex="0067"/>
  <anchor x="269" y="523" name="top"/>
  <outline>
    <contour>
      <point x="156" y="-2" type="curve" smooth="yes"/>
      <point x="228" y="-2"/>
      <point x="281" y="77"/>
      <point x="323" y="206" type="curve"/>
      <point x="297" y="225" type="line"/>
      <point x="271" y="125"/>
      <point x="250" y="91"/>
      <point x="239" y="91" type="curve" smooth="yes"/>
      <point x="227" y="91"/>
      <point x="222" y="115"/>
      <point x="225" y="173" type="curve" smooth="yes"/>
      <point x="230" y="290"/>
      <point x="268" y="479"/>
      <point x="318" y="479" type="curve" smooth="yes"/>
      <point x="331" y="479"/>
      <point x="341" y="463"/>
      <point x="342" y="432" type="curve"/>
      <point x="373" y="463" type="line"/>
      <point x="354" y="504"/>
      <point x="323" y="533"/>
      <point x="263" y="533" type="curve" smooth="yes"/>
      <point x="119" y="533"/>
      <point x="27" y="363"/>
      <point x="19" y="188" type="curve" smooth="yes"/>
      <point x="14" y="73"/>
      <point x="64" y="-2"/>
    </contour>
    <contour>
      <point x="254" y="29" type="line" smooth="yes"/>
      <point x="224" y="-126"/>
      <point x="200" y="-187"/>
      <point x="143" y="-187" type="curve" smooth="yes"/>
      <point x="109" y="-187"/>
      <point x="97" y="-164"/>
      <point x="87" y="-135" type="curve"/>
      <point x="71" y="-160"/>
      <point x="82" y="-186"/>
      <point x="99" y="-193" type="curve"/>
      <point x="125" y="-55" type="line"/>
      <point x="-10" y="-55" type="line"/>
      <point x="-28" y="-152" type="line"/>
      <point x="3" y="-193"/>
      <point x="63" y="-232"/>
      <point x="176" y="-232" type="curve" smooth="yes"/>
      <point x="334" y="-232"/>
      <point x="422" y="-148"/>
      <point x="455" y="28" type="curve" smooth="yes"/>
      <point x="544" y="524" type="line"/>
      <point x="422" y="524" type="line"/>
      <point x="352" y="476" type="line"/>
      <point x="335" y="470" type="line"/>
    </contour>
  </outline>
</glyph>
<glyph name="h" format="2">
  <advance width="517"/>
  <unicode hex="0068"/>
  <anchor x="313" y="755" name="top"/>
  <anchor x="269" y="0" name="bottom"/>
  <outline>
    <contour>
      <point x="-6" y="0" type="line"/>
      <point x="117" y="680" type="line" smooth="yes"/>
      <point x="120" y="699"/>
      <point x="116" y="706"/>
      <point x="106" y="710" type="curve" smooth="yes"/>
      <point x="97" y="712" type="line"/>
      <point x="104" y="750" type="line"/>
      <point x="331" y="750" type="line"/>
      <point x="196" y="0" type="line"/>
    </contour>
    <contour>
      <point x="483" y="158" type="line" smooth="yes"/>
      <point x="474" y="122"/>
      <point x="467" y="88"/>
      <point x="466" y="74" type="curve" smooth="yes"/>
      <point x="465" y="54"/>
      <point x="472" y="48"/>
      <point x="484" y="48" type="curve" smooth="yes"/>
      <point x="491" y="48"/>
      <point x="499" y="55"/>
      <point x="500" y="58" type="curve"/>
      <point x="494" y="21" type="line"/>
      <point x="473" y="5"/>
      <point x="435" y="-10"/>
      <point x="390" y="-10" type="curve" smooth="yes"/>
      <point x="319" y="-10"/>
      <point x="272" y="29"/>
      <point x="276" y="115" type="curve" smooth="yes"/>
      <point x="277" y="139"/>
      <point x="282" y="169"/>
      <point x="295" y="219" type="curve" smooth="yes"/>
      <point x="310" y="333" type="line" smooth="yes"/>
      <point x="316" y="360"/>
      <point x="320" y="381"/>
      <point x="320" y="398" type="curve" smooth="yes"/>
      <point x="321" y="420"/>
      <point x="318" y="435"/>
      <point x="308" y="435" type="curve" smooth="yes"/>
      <point x="290" y="435"/>
      <point x="259" y="387"/>
      <point x="238" y="302" type="curve"/>
      <point x="232" y="346" type="line"/>
      <point x="278" y="465"/>
      <point x="349" y="533"/>
      <point x="422" y="533" type="curve" smooth="yes"/>
      <point x="491" y="533"/>
      <point x="527" y="484"/>
      <point x="524" y="413" type="curve" smooth="yes"/>
      <point x="523" y="384"/>
      <point x="516" y="353"/>
      <point x="504" y="303" type="curve" smooth="yes"/>
    </contour>
  </outline>
</glyph>
<glyph name="j" format="2">
  <advance width="269"/>
  <unicode hex="006A"/>
  <outline>
    <contour>
      <point x="-6" y="-47" type="line" smooth="yes"/>
      <point x="-25" y="-147"/>
      <point x="-32" y="-178"/>
      <point x="-69" y="-178" type="curve" smooth="yes"/>
      <point x="-91" y="-178"/>
      <point x="-107" y="-169"/>
      <point x="-107" y="-166" type="curve"/>
      <point x="-120" y="-217" type="line"/>
      <point x="-103" y="-226"/>
      <point x="-63" y="-236"/>
      <point x="-16" y="-236" type="curve" smooth="yes"/>
      <point x="110" y="-236"/>
      <point x="178" y="-171"/>
      <point x="211" y="4" type="curve" smooth="yes"/>
      <point x="298" y="523" type="line"/>
      <point x="72" y="523" type="line"/>
      <point x="64" y="485" type="line"/>
      <point x="75" y="483" type="line" smooth="yes"/>
      <point x="84" y="479"/>
      <point x="88" y="472"/>
      <point x="85" y="453" type="curve"/>
    </contour>
    <contour>
      <point x="213" y="581" type="curve" smooth="yes"/>
      <point x="277" y="581"/>
      <point x="316" y="615"/>
      <point x="318" y="671" type="curve" smooth="yes"/>
      <point x="321" y="727"/>
      <point x="285" y="761"/>
      <point x="221" y="761" type="curve" smooth="yes"/>
      <point x="157" y="761"/>
      <point x="119" y="727"/>
      <point x="116" y="671" type="curve" smooth="yes"/>
      <point x="114" y="614"/>
      <point x="149" y="581"/>
    </contour>
  </outline>
</glyph>
<glyph name="n" format="2">
  <advance width="517"/>
  <unicode hex="006E"/>
  <anchor x="283" y="523" name="top"/>
  <anchor x="268" y="0" name="bottom"/>
  <outline>
    <contour>
      <point x="-7" y="0" type="line"/>
      <point x="75" y="453" type="line" smooth="yes"/>
      <point x="78" y="472"/>
      <point x="73" y="479"/>
      <point x="65" y="483" type="curve" smooth="yes"/>
      <point x="55" y="485" type="line"/>
      <point x="63" y="523" type="line"/>
      <point x="281" y="523" type="line"/>
      <point x="257" y="373" type="line"/>
      <point x="264" y="371" type="line"/>
      <point x="195" y="0" type="line"/>
    </contour>
    <contour>
      <point x="483" y="158" type="line" smooth="yes"/>
      <point x="473" y="122"/>
      <point x="467" y="88"/>
      <point x="466" y="74" type="curve" smooth="yes"/>
      <point x="465" y="54"/>
      <point x="472" y="48"/>
      <point x="483" y="48" type="curve" smooth="yes"/>
      <point x="491" y="48"/>
      <point x="498" y="55"/>
      <point x="500" y="58" type="curve"/>
      <point x="493" y="21" type="line"/>
      <point x="472" y="5"/>
      <point x="434" y="-10"/>
      <point x="389" y="-10" type="curve" smooth="yes"/>
      <point x="319" y="-10"/>
      <point x="272" y="29"/>
      <point x="276" y="115" type="curve" smooth="yes"/>
      <point x="277" y="139"/>
      <point x="281" y="169"/>
      <point x="295" y="219" type="curve" smooth="yes"/>
      <point x="310" y="333" type="line" smooth="yes"/>
      <point x="315" y="360"/>
      <point x="319" y="381"/>
      <point x="319" y="398" type="curve" smooth="yes"/>
      <point x="320" y="420"/>
      <point x="317" y="435"/>
      <point x="308" y="435" type="curve" smooth="yes"/>
      <point x="289" y="435"/>
      <point x="259" y="387"/>
      <point x="238" y="302" type="curve"/>
      <point x="231" y="346" type="line"/>
      <point x="277" y="465"/>
      <point x="349" y="533"/>
      <point x="422" y="533" type="curve" smooth="yes"/>
      <point x="491" y="533"/>
      <point x="526" y="484"/>
      <point x="523" y="413" type="curve" smooth="yes"/>
      <point x="522" y="384"/>
      <point x="516" y="353"/>
      <point x="504" y="303" type="curve" smooth="yes"/>
    </contour>
  </outline>
</glyph>
<glyph name="o" format="2">
  <advance width="520"/>
  <unicode hex="006F"/>
  <anchor x="283" y="523" name="top"/>
  <anchor x="376" y="0" name="right"/>
  <anchor x="260" y="0" name="bottom"/>
  <outline>
    <contour>
      <point x="26" y="242" type="curve" smooth="yes"/>
      <point x="19" y="88"/>
      <point x="109" y="-10"/>
      <point x="250" y="-10" type="curve" smooth="yes"/>
      <point x="410" y="-10"/>
      <point x="511" y="120"/>
      <point x="518" y="280" type="curve" smooth="yes"/>
      <point x="525" y="435"/>
      <point x="436" y="533"/>
      <point x="295" y="533" type="curve" smooth="yes"/>
      <point x="134" y="533"/>
      <point x="33" y="403"/>
    </contour>
    <contour>
      <point x="302" y="237" type="curve" smooth="yes"/>
      <point x="289" y="139"/>
      <point x="269" y="36"/>
      <point x="244" y="36" type="curve"/>
      <point x="231" y="36"/>
      <point x="223" y="76"/>
      <point x="226" y="147" type="curve" smooth="yes"/>
      <point x="228" y="177"/>
      <point x="234" y="231"/>
      <point x="241" y="286" type="curve" smooth="yes"/>
      <point x="254" y="384"/>
      <point x="275" y="486"/>
      <point x="301" y="486" type="curve"/>
      <point x="313" y="486"/>
      <point x="321" y="447"/>
      <point x="317" y="375" type="curve" smooth="yes"/>
      <point x="316" y="345"/>
      <point x="311" y="292"/>
    </contour>
  </outline>
</glyph>
<glyph name="p" format="2">
  <advance width="518"/>
  <unicode hex="0070"/>
  <outline>
    <contour>
      <point x="-67" y="-223" type="line"/>
      <point x="194" y="-223" type="line"/>
      <point x="201" y="-186" type="line"/>
      <point x="200" y="-186" type="line" smooth="yes"/>
      <point x="175" y="-186"/>
      <point x="163" y="-183"/>
      <point x="164" y="-176" type="curve"/>
      <point x="267" y="399" type="line"/>
      <point x="261" y="399" type="line"/>
      <point x="281" y="523" type="line"/>
      <point x="63" y="523" type="line"/>
      <point x="55" y="485" type="line"/>
      <point x="65" y="483" type="line" smooth="yes"/>
      <point x="73" y="479"/>
      <point x="78" y="472"/>
      <point x="75" y="453" type="curve"/>
      <point x="-36" y="-161" type="line" smooth="yes"/>
      <point x="-40" y="-181"/>
      <point x="-49" y="-186"/>
      <point x="-59" y="-186" type="curve" smooth="yes"/>
      <point x="-60" y="-186" type="line"/>
    </contour>
    <contour>
      <point x="518" y="329" type="curve" smooth="yes"/>
      <point x="524" y="469"/>
      <point x="473" y="533"/>
      <point x="404" y="533" type="curve" smooth="yes"/>
      <point x="317" y="533"/>
      <point x="263" y="451"/>
      <point x="212" y="318" type="curve"/>
      <point x="225" y="300" type="line"/>
      <point x="256" y="393"/>
      <point x="277" y="438"/>
      <point x="296" y="438" type="curve" smooth="yes"/>
      <point x="311" y="438"/>
      <point x="315" y="408"/>
      <point x="312" y="343" type="curve" smooth="yes"/>
      <point x="307" y="220"/>
      <point x="265" y="32"/>
      <point x="218" y="32" type="curve" smooth="yes"/>
      <point x="189" y="32"/>
      <point x="184" y="66"/>
      <point x="193" y="114" type="curve"/>
      <point x="133" y="50" type="line"/>
      <point x="168" y="11"/>
      <point x="200" y="-10"/>
      <point x="244" y="-10" type="curve" smooth="yes"/>
      <point x="409" y="-10"/>
      <point x="511" y="161"/>
    </contour>
  </outline>
</glyph>
<glyph name="r" format="2">
  <advance width="371"/>
  <unicode hex="0072"/>
  <anchor x="226" y="523" name="top"/>
  <anchor x="140" y="0" name="bottom"/>
  <outline>
    <contour>
      <point x="-7" y="0" type="line"/>
      <point x="195" y="0" type="line"/>
      <point x="253" y="329" type="line"/>
      <point x="247" y="329" type="line"/>
      <point x="281" y="523" type="line"/>
      <point x="63" y="523" type="line"/>
      <point x="55" y="485" type="line"/>
      <point x="65" y="483" type="line" smooth="yes"/>
      <point x="73" y="479"/>
      <point x="78" y="472"/>
      <point x="75" y="453" type="curve" smooth="yes"/>
    </contour>
    <contour>
      <point x="410" y="521" type="line"/>
      <point x="408" y="523"/>
      <point x="397" y="528"/>
      <point x="382" y="528" type="curve" smooth="yes"/>
      <point x="317" y="528"/>
      <point x="275" y="447"/>
      <point x="242" y="316" type="curve"/>
      <point x="247" y="307" type="line"/>
      <point x="260" y="343"/>
      <point x="291" y="354"/>
      <point x="313" y="354" type="curve" smooth="yes"/>
      <point x="340" y="354"/>
      <point x="359" y="347"/>
      <point x="372" y="341" type="curve"/>
    </contour>
  </outline>
</glyph>
<glyph name="t" format="2">
  <advance width="317"/>
  <unicode hex="0074"/>
  <anchor x="148" y="675" name="top"/>
  <anchor x="301" y="681" name="right"/>
  <anchor x="217" y="0" name="bottom"/>
  <outline>
    <contour>
      <point x="181" y="-10" type="curve" smooth="yes"/>
      <point x="224" y="-10"/>
      <point x="267" y="6"/>
      <point x="284" y="19" type="curve"/>
      <point x="290" y="58" type="line"/>
      <point x="287" y="54"/>
      <point x="277" y="45"/>
      <point x="266" y="45" type="curve" smooth="yes"/>
      <point x="236" y="45"/>
      <point x="219" y="60"/>
      <point x="220" y="102" type="curve" smooth="yes"/>
      <point x="222" y="127"/>
      <point x="227" y="170"/>
      <point x="237" y="219" type="curve" smooth="yes"/>
      <point x="312" y="660" type="line"/>
      <point x="141" y="660" type="line"/>
      <point x="113" y="585" type="line" smooth="yes"/>
      <point x="92" y="526"/>
      <point x="76" y="518"/>
      <point x="49" y="518" type="curve" smooth="yes"/>
      <point x="48" y="518" type="line"/>
      <point x="40" y="478" type="line"/>
      <point x="346" y="478" type="line"/>
      <point x="355" y="523" type="line"/>
      <point x="120" y="523" type="line"/>
      <point x="79" y="494" type="line"/>
      <point x="43" y="255" type="line" smooth="yes"/>
      <point x="33" y="208"/>
      <point x="26" y="169"/>
      <point x="25" y="139" type="curve" smooth="yes"/>
      <point x="21" y="35"/>
      <point x="87" y="-10"/>
    </contour>
  </outline>
</glyph>
<glyph name="u" format="2">
  <advance width="517"/>
  <unicode hex="0075"/>
  <anchor x="257" y="523" name="top"/>
  <anchor x="413" y="0" name="right"/>
  <anchor x="231" y="0" name="bottom"/>
  <outline>
    <contour>
      <point x="231" y="200" type="curve" smooth="yes"/>
      <point x="290" y="523" type="line"/>
      <point x="63" y="523" type="line"/>
      <point x="56" y="485" type="line"/>
      <point x="66" y="483" type="line" smooth="yes"/>
      <point x="75" y="479"/>
      <point x="79" y="472"/>
      <point x="76" y="453" type="curve" smooth="yes"/>
      <point x="34" y="223" type="line" smooth="yes"/>
      <point x="22" y="172"/>
      <point x="17" y="144"/>
      <point x="16" y="115" type="curve" smooth="yes"/>
      <point x="13" y="42"/>
      <point x="47" y="-10"/>
      <point x="116" y="-10" type="curve" smooth="yes"/>
      <point x="203" y="-10"/>
      <point x="259" y="61"/>
      <point x="314" y="175" type="curve"/>
      <point x="308" y="224" type="line"/>
      <point x="284" y="141"/>
      <point x="250" y="88"/>
      <point x="232" y="88" type="curve" smooth="yes"/>
      <point x="220" y="88"/>
      <point x="218" y="104"/>
      <point x="219" y="127" type="curve" smooth="yes"/>
      <point x="219" y="147"/>
      <point x="224" y="168"/>
    </contour>
    <contour>
      <point x="388" y="-10" type="curve" smooth="yes"/>
      <point x="433" y="-10"/>
      <point x="473" y="8"/>
      <point x="492" y="21" type="curve"/>
      <point x="500" y="58" type="line"/>
      <point x="498" y="55"/>
      <point x="494" y="48"/>
      <point x="484" y="48" type="curve" smooth="yes"/>
      <point x="470" y="48"/>
      <point x="463" y="55"/>
      <point x="464" y="75" type="curve" smooth="yes"/>
      <point x="465" y="91"/>
      <point x="470" y="121"/>
      <point x="479" y="157" type="curve" smooth="yes"/>
      <point x="543" y="523" type="line"/>
      <point x="340" y="523" type="line"/>
      <point x="269" y="139" type="line"/>
      <point x="274" y="138" type="line"/>
      <point x="275" y="131"/>
      <point x="274" y="124"/>
      <point x="274" y="118" type="curve"/>
      <point x="270" y="31"/>
      <point x="312" y="-10"/>
    </contour>
  </outline>
</glyph>
<glyph name="x" format="2">
  <advance width="486"/>
  <unicode hex="0078"/>
  <outline>
    <contour>
      <point x="323" y="278" type="line"/>
      <point x="522" y="514" type="line"/>
      <point x="523" y="523" type="line"/>
      <point x="409" y="523" type="line"/>
      <point x="315" y="301" type="line"/>
    </contour>
    <contour>
      <point x="-9" y="0" type="line"/>
      <point x="111" y="0" type="line"/>
      <point x="202" y="231" type="line"/>
      <point x="196" y="265" type="line"/>
      <point x="-9" y="11" type="line"/>
    </contour>
    <contour>
      <point x="328" y="-10" type="curve" smooth="yes"/>
      <point x="371" y="-10"/>
      <point x="421" y="4"/>
      <point x="444" y="16" type="curve"/>
      <point x="448" y="53" type="line"/>
      <point x="448" y="52"/>
      <point x="442" y="47"/>
      <point x="435" y="47" type="curve" smooth="yes"/>
      <point x="417" y="47"/>
      <point x="407" y="64"/>
      <point x="398" y="117" type="curve" smooth="yes"/>
      <point x="305" y="523" type="line"/>
      <point x="101" y="523" type="line"/>
      <point x="94" y="485" type="line"/>
      <point x="103" y="483" type="line" smooth="yes"/>
      <point x="109" y="480"/>
      <point x="113" y="473"/>
      <point x="116" y="452" type="curve" smooth="yes"/>
      <point x="193" y="118" type="line" smooth="yes"/>
      <point x="220" y="18"/>
      <point x="260" y="-10"/>
    </contour>
  </outline>
</glyph>
<glyph name="y" format="2">
  <advance width="451"/>
  <unicode hex="0079"/>
  <anchor x="251" y="523" name="top"/>
  <anchor x="228" y="-211" name="bottom"/>
  <outline>
    <contour>
      <point x="172" y="-68" type="line"/>
      <point x="61" y="447" type="line" smooth="yes"/>
      <point x="57" y="470"/>
      <point x="56" y="479"/>
      <point x="47" y="483" type="curve" smooth="yes"/>
      <point x="39" y="485" type="line"/>
      <point x="47" y="523" type="line"/>
      <point x="248" y="523" type="line"/>
      <point x="320" y="102" type="line"/>
      <point x="226" y="-2" type="line"/>
    </contour>
    <contour>
      <point x="262" y="64" type="line"/>
      <point x="330" y="201"/>
      <point x="373" y="351"/>
      <point x="363" y="523" type="curve"/>
      <point x="484" y="523" type="line"/>
      <point x="484" y="523" type="line"/>
      <point x="457" y="333"/>
      <point x="308" y="99"/>
      <point x="228" y="-34" type="curve" smooth="yes"/>
      <point x="154" y="-164"/>
      <point x="110" y="-231"/>
      <point x="48" y="-231" type="curve"/>
      <point x="18" y="-231"/>
      <point x="-2" y="-220"/>
      <point x="-10" y="-212" type="curve"/>
      <point x="22" y="-77" type="line"/>
      <point x="31" y="-85"/>
      <point x="57" y="-100"/>
      <point x="97" y="-100" type="curve"/>
      <point x="137" y="-100"/>
      <point x="165" y="-78"/>
      <point x="188" y="-29" type="curve"/>
    </contour>
  </outline>
</glyph>
<glyph name="z" format="2">
  <advance width="462"/>
  <unicode hex="007A"/>
  <anchor x="259" y="523" name="top"/>
  <anchor x="261" y="0" name="bottom"/>
  <outline>
    <contour>
      <point x="313" y="-10" type="curve" smooth="yes"/>
      <point x="411" y="-10"/>
      <point x="447" y="87"/>
      <point x="453" y="239" type="curve"/>
      <point x="427" y="244" type="line"/>
      <point x="413" y="165"/>
      <point x="383" y="150"/>
      <point x="350" y="150" type="curve" smooth="yes"/>
      <point x="316" y="150"/>
      <point x="274" y="163"/>
      <point x="210" y="198" type="curve"/>
      <point x="106" y="85" type="line"/>
      <point x="205" y="14"/>
      <point x="260" y="-10"/>
    </contour>
    <contour>
      <point x="45" y="0" type="line"/>
      <point x="478" y="485" type="line"/>
      <point x="485" y="523" type="line"/>
      <point x="104" y="523" type="line"/>
      <point x="54" y="279" type="line"/>
      <point x="88" y="279" type="line"/>
      <point x="97" y="320" type="line" smooth="yes"/>
      <point x="109" y="359"/>
      <point x="132" y="364"/>
      <point x="182" y="364" type="curve" smooth="yes"/>
      <point x="319" y="364" type="line"/>
      <point x="313" y="396" type="line"/>
      <point x="12" y="17" type="line"/>
      <point x="8" y="0" type="line"/>
    </contour>
  </outline>
</glyph>
<glyph name="braceleft" format="2">
  <advance width="270"/>
  <unicode hex="007B"/>
  <outline>
    <contour>
      <point x="212" y="244" type="curve" smooth="yes"/>
      <point x="213" y="274"/>
      <point x="205" y="291"/>
      <point x="97" y="322" type="curve"/>
      <point x="98" y="325" type="line"/>
      <point x="222" y="337"/>
      <point x="238" y="358"/>
      <point x="240" y="407" type="curve" smooth="yes"/>
      <point x="242" y="455"/>
      <point x="231" y="543"/>
      <point x="234" y="617" type="curve" smooth="yes"/>
      <point x="238" y="699"/>
      <point x="280" y="715"/>
      <point x="318" y="716" type="curve" smooth="yes"/>
      <point x="323" y="716"/>
      <point x="327" y="716"/>
      <point x="332" y="716" type="curve"/>
      <point x="333" y="750" type="line"/>
      <point x="312" y="751"/>
      <point x="292" y="753"/>
      <point x="273" y="753" type="curve" smooth="yes"/>
      <point x="192" y="753"/>
      <point x="121" y="712"/>
      <point x="117" y="612" type="curve" smooth="yes"/>
      <point x="114" y="545"/>
      <point x="138" y="474"/>
      <point x="169" y="369" type="curve"/>
      <point x="175" y="386" type="line"/>
      <point x="37" y="344" type="line"/>
      <point x="32" y="313" type="line"/>
      <point x="150" y="252" type="line"/>
      <point x="154" y="265" type="line"/>
      <point x="70" y="155"/>
      <point x="14" y="67"/>
      <point x="11" y="-5" type="curve" smooth="yes"/>
      <point x="7" y="-88"/>
      <point x="60" y="-130"/>
      <point x="155" y="-131" type="curve" smooth="yes"/>
      <point x="166" y="-131"/>
      <point x="177" y="-131"/>
      <point x="191" y="-130" type="curve"/>
      <point x="201" y="-98" type="line"/>
      <point x="201" y="-98" type="line"/>
      <point x="133" y="-95"/>
      <point x="122" y="-68"/>
      <point x="125" y="-9" type="curve" smooth="yes"/>
      <point x="128" y="73"/>
      <point x="209" y="190"/>
    </contour>
  </outline>
</glyph>
<glyph name="bar" format="2">
  <advance width="156"/>
  <unicode hex="007C"/>
  <outline>
    <contour>
      <point x="92" y="766" type="line"/>
      <point x="52" y="-162" type="line"/>
      <point x="98" y="-162" type="line"/>
      <point x="138" y="766" type="line"/>
    </contour>
  </outline>
</glyph>
<glyph name="cent" format="2">
  <advance width="423"/>
  <unicode hex="00A2"/>
  <outline>
    <contour>
      <point x="215" y="-10" type="curve" smooth="yes"/>
      <point x="320" y="-10"/>
      <point x="373" y="50"/>
      <point x="404" y="141" type="curve"/>
      <point x="375" y="165" type="line"/>
      <point x="352" y="104"/>
      <point x="314" y="44"/>
      <point x="251" y="44" type="curve" smooth="yes"/>
      <point x="209" y="44"/>
      <point x="184" y="79"/>
      <point x="190" y="198" type="curve" smooth="yes"/>
      <point x="196" y="345"/>
      <point x="230" y="486"/>
      <point x="291" y="486" type="curve" smooth="yes"/>
      <point x="314" y="486"/>
      <point x="331" y="478"/>
      <point x="339" y="454" type="curve"/>
      <point x="352" y="473"/>
      <point x="341" y="486"/>
      <point x="337" y="488" type="curve"/>
      <point x="313" y="358" type="line"/>
      <point x="430" y="358" type="line"/>
      <point x="450" y="475" type="line"/>
      <point x="438" y="491"/>
      <point x="389" y="533"/>
      <point x="290" y="533" type="curve" smooth="yes"/>
      <point x="127" y="533"/>
      <point x="25" y="404"/>
      <point x="17" y="227" type="curve" smooth="yes"/>
      <point x="10" y="78"/>
      <point x="95" y="-10"/>
    </contour>
    <contour>
      <point x="158" y="-126" type="line"/>
      <point x="206" y="-126" type="line"/>
      <point x="230" y="2" type="line"/>
      <point x="231" y="16" type="line"/>
      <point x="316" y="501" type="line"/>
      <point x="319" y="512" type="line"/>
      <point x="342" y="631" type="line"/>
      <point x="293" y="631" type="line"/>
      <point x="271" y="510" type="line"/>
      <point x="272" y="501" type="line"/>
      <point x="188" y="15" type="line"/>
      <point x="181" y="3" type="line"/>
    </contour>
  </outline>
</glyph>
<glyph name="sterling" format="2">
  <advance width="423"/>
  <unicode hex="00A3"/>
  <outline>
    <contour>
      <point x="313" y="672" type="curve" smooth="yes"/>
      <point x="331" y="672"/>
      <point x="339" y="657"/>
      <point x="343" y="634" type="curve"/>
      <point x="379" y="638"/>
      <point x="380" y="670"/>
      <point x="333" y="673" type="curve"/>
      <point x="307" y="537" type="line"/>
      <point x="440" y="537" type="line"/>
      <point x="463" y="664" type="line"/>
      <point x="444" y="683"/>
      <point x="386" y="720"/>
      <point x="292" y="720" type="curve" smooth="yes"/>
      <point x="151" y="720"/>
      <point x="80" y="639"/>
      <point x="75" y="521" type="curve" smooth="yes"/>
      <point x="70" y="414"/>
      <point x="122" y="334"/>
      <point x="116" y="210" type="curve" smooth="yes"/>
      <point x="112" y="124"/>
      <point x="70" y="56"/>
      <point x="-11" y="36" type="curve"/>
      <point x="-19" y="-7" type="line"/>
      <point x="180" y="9"/>
      <point x="249" y="157"/>
      <point x="253" y="262" type="curve" smooth="yes"/>
      <point x="259" y="392"/>
      <point x="257" y="455"/>
      <point x="261" y="550" type="curve" smooth="yes"/>
      <point x="265" y="631"/>
      <point x="276" y="672"/>
    </contour>
    <contour>
      <point x="39" y="386" type="line"/>
      <point x="30" y="338" type="line"/>
      <point x="353" y="338" type="line"/>
      <point x="362" y="386" type="line"/>
    </contour>
    <contour>
      <point x="308" y="-10" type="curve" smooth="yes"/>
      <point x="342" y="-10"/>
      <point x="382" y="31"/>
      <point x="422" y="211" type="curve"/>
      <point x="389" y="229" type="line"/>
      <point x="361" y="165"/>
      <point x="348" y="143"/>
      <point x="312" y="143" type="curve" smooth="yes"/>
      <point x="275" y="143"/>
      <point x="250" y="152"/>
      <point x="209" y="187" type="curve"/>
      <point x="190" y="159" type="line"/>
      <point x="245" y="37"/>
      <point x="262" y="-10"/>
    </contour>
  </outline>
</glyph>
<glyph name="currency" format="2">
  <advance width="416"/>
  <unicode hex="00A4"/>
  <outline>
    <contour>
      <point x="42" y="119" type="line"/>
      <point x="145" y="232" type="line"/>
      <point x="109" y="274" type="line"/>
      <point x="8" y="166" type="line"/>
    </contour>
    <contour>
      <point x="87" y="584" type="line"/>
      <point x="142" y="490" type="line"/>
      <point x="191" y="529" type="line"/>
      <point x="135" y="627" type="line"/>
    </contour>
    <contour>
      <point x="220" y="233" type="curve" smooth="yes"/>
      <point x="165" y="233"/>
      <point x="135" y="289"/>
      <point x="138" y="365" type="curve" smooth="yes"/>
      <point x="142" y="451"/>
      <point x="181" y="513"/>
      <point x="241" y="513" type="curve" smooth="yes"/>
      <point x="296" y="513"/>
      <point x="327" y="457"/>
      <point x="324" y="382" type="curve" smooth="yes"/>
      <point x="320" y="295"/>
      <point x="281" y="233"/>
    </contour>
    <contour>
      <point x="213" y="177" type="curve" smooth="yes"/>
      <point x="306" y="177"/>
      <point x="375" y="272"/>
      <point x="380" y="385" type="curve" smooth="yes"/>
      <point x="385" y="493"/>
      <point x="323" y="569"/>
      <point x="248" y="569" type="curve" smooth="yes"/>
      <point x="156" y="569"/>
      <point x="87" y="475"/>
      <point x="82" y="361" type="curve" smooth="yes"/>
      <point x="77" y="253"/>
      <point x="139" y="177"/>
    </contour>
    <contour>
      <point x="329" y="119" type="line"/>
      <point x="377" y="163" type="line"/>
      <point x="323" y="256" type="line"/>
      <point x="272" y="215" type="line"/>
    </contour>
    <contour>
      <point x="456" y="582" type="line"/>
      <point x="423" y="627" type="line"/>
      <point x="315" y="515" type="line"/>
      <point x="354" y="472" type="line"/>
    </contour>
  </outline>
</glyph>
<glyph name="yen" format="2">
  <advance width="423"/>
  <unicode hex="00A5"/>
  <outline>
    <contour>
      <point x="34" y="253" type="line"/>
      <point x="25" y="204" type="line"/>
      <point x="388" y="204" type="line"/>
      <point x="397" y="253" type="line"/>
    </contour>
    <contour>
      <point x="53" y="370" type="line"/>
      <point x="45" y="322" type="line"/>
      <point x="407" y="322" type="line"/>
      <point x="417" y="370" type="line"/>
    </contour>
    <contour>
      <point x="139" y="412" type="line"/>
      <point x="77" y="72" type="line" smooth="yes"/>
      <point x="71" y="43"/>
      <point x="61" y="40"/>
      <point x="44" y="40" type="curve" smooth="yes"/>
      <point x="34" y="40" type="line"/>
      <point x="26" y="0" type="line"/>
      <point x="309" y="0" type="line"/>
      <point x="317" y="40" type="line"/>
      <point x="307" y="40" type="line" smooth="yes"/>
      <point x="292" y="40"/>
      <point x="280" y="43"/>
      <point x="284" y="72" type="curve" smooth="yes"/>
      <point x="343" y="393" type="line"/>
    </contour>
    <contour>
      <point x="321" y="330" type="line"/>
      <point x="475" y="635" type="line" smooth="yes"/>
      <point x="481" y="659"/>
      <point x="487" y="670"/>
      <point x="496" y="670" type="curve" smooth="yes"/>
      <point x="501" y="670" type="line"/>
      <point x="509" y="710" type="line"/>
      <point x="404" y="710" type="line"/>
      <point x="396" y="670" type="line"/>
      <point x="402" y="670" type="line" smooth="yes"/>
      <point x="418" y="670"/>
      <point x="430" y="663"/>
      <point x="427" y="651" type="curve"/>
      <point x="309" y="389" type="line"/>
      <point x="325" y="389" type="line"/>
      <point x="300" y="660" type="line"/>
      <point x="301" y="667"/>
      <point x="305" y="670"/>
      <point x="322" y="670" type="curve" smooth="yes"/>
      <point x="328" y="670" type="line"/>
      <point x="336" y="710" type="line"/>
      <point x="81" y="710" type="line"/>
      <point x="72" y="670" type="line"/>
      <point x="72" y="670" type="line" smooth="yes"/>
      <point x="84" y="670"/>
      <point x="89" y="661"/>
      <point x="90" y="645" type="curve" smooth="yes"/>
      <point x="148" y="281" type="line"/>
    </contour>
  </outline>
</glyph>
<glyph name="brokenbar" format="2">
  <advance width="156"/>
  <unicode hex="00A6"/>
  <outline>
    <contour>
      <point x="92" y="766" type="line"/>
      <point x="75" y="364" type="line"/>
      <point x="121" y="364" type="line"/>
      <point x="138" y="766" type="line"/>
    </contour>
    <contour>
      <point x="69" y="240" type="line"/>
      <point x="52" y="-162" type="line"/>
      <point x="98" y="-162" type="line"/>
      <point x="115" y="240" type="line"/>
    </contour>
  </outline>
</glyph>
<glyph name="section" format="2">
  <advance width="491"/>
  <unicode hex="00A7"/>
  <outline>
    <contour>
      <point x="148" y="-236" type="curve" smooth="yes"/>
      <point x="276" y="-236"/>
      <point x="366" y="-147"/>
      <point x="371" y="-31" type="curve" smooth="yes"/>
      <point x="375" y="60"/>
      <point x="316" y="108"/>
      <point x="260" y="164" type="curve" smooth="yes"/>
      <point x="209" y="216"/>
      <point x="161" y="252"/>
      <point x="163" y="305" type="curve" smooth="yes"/>
      <point x="165" y="345"/>
      <point x="185" y="365"/>
      <point x="214" y="368" type="curve"/>
      <point x="180" y="399" type="line"/>
      <point x="81" y="387"/>
      <point x="28" y="318"/>
      <point x="23" y="230" type="curve" smooth="yes"/>
      <point x="19" y="144"/>
      <point x="51" y="94"/>
      <point x="114" y="38" type="curve" smooth="yes"/>
      <point x="201" y="-34"/>
      <point x="221" y="-57"/>
      <point x="218" y="-109" type="curve" smooth="yes"/>
      <point x="216" y="-156"/>
      <point x="188" y="-190"/>
      <point x="155" y="-190" type="curve" smooth="yes"/>
      <point x="118" y="-190"/>
      <point x="100" y="-170"/>
      <point x="96" y="-138" type="curve"/>
      <point x="94" y="-157"/>
      <point x="95" y="-180"/>
      <point x="114" y="-186" type="curve"/>
      <point x="137" y="-52" type="line"/>
      <point x="-24" y="-52" type="line"/>
      <point x="-45" y="-165" type="line"/>
      <point x="-7" y="-206"/>
      <point x="62" y="-236"/>
    </contour>
    <contour>
      <point x="281" y="94" type="line"/>
      <point x="388" y="102"/>
      <point x="467" y="163"/>
      <point x="472" y="264" type="curve" smooth="yes"/>
      <point x="475" y="346"/>
      <point x="425" y="398"/>
      <point x="367" y="456" type="curve" smooth="yes"/>
      <point x="306" y="514"/>
      <point x="270" y="538"/>
      <point x="273" y="595" type="curve" smooth="yes"/>
      <point x="275" y="642"/>
      <point x="297" y="674"/>
      <point x="334" y="674" type="curve" smooth="yes"/>
      <point x="360" y="674"/>
      <point x="380" y="660"/>
      <point x="382" y="626" type="curve"/>
      <point x="392" y="649"/>
      <point x="390" y="672"/>
      <point x="364" y="673" type="curve"/>
      <point x="341" y="556" type="line"/>
      <point x="491" y="556" type="line"/>
      <point x="511" y="663" type="line"/>
      <point x="496" y="683"/>
      <point x="438" y="720"/>
      <point x="338" y="720" type="curve" smooth="yes"/>
      <point x="203" y="720"/>
      <point x="127" y="644"/>
      <point x="122" y="533" type="curve" smooth="yes"/>
      <point x="119" y="449"/>
      <point x="156" y="392"/>
      <point x="226" y="330" type="curve" smooth="yes"/>
      <point x="265" y="286"/>
      <point x="316" y="246"/>
      <point x="314" y="196" type="curve" smooth="yes"/>
      <point x="311" y="146"/>
      <point x="281" y="131"/>
      <point x="262" y="127" type="curve"/>
    </contour>
  </outline>
</glyph>
<glyph name="acute" format="2">
  <advance width="378"/>
  <unicode hex="00B4"/>
  <anchor x="170" y="527" name="_top"/>
  <outline>
    <contour>
      <point x="194" y="708" type="curve" smooth="yes"/>
      <point x="150" y="583" type="line"/>
      <point x="149" y="566" type="line"/>
      <point x="195" y="566" type="line"/>
      <point x="272" y="626" type="line" smooth="yes"/>
      <point x="308" y="651"/>
      <point x="337" y="685"/>
      <point x="339" y="724" type="curve" smooth="yes"/>
      <point x="340" y="762"/>
      <point x="320" y="789"/>
      <point x="280" y="789" type="curve" smooth="yes"/>
      <point x="230" y="789"/>
      <point x="208" y="753"/>
    </contour>
  </outline>
</glyph>
<glyph name="paragraph" format="2">
  <advance width="447"/>
  <unicode hex="00B6"/>
  <outline>
    <contour>
      <point x="515" y="710" type="line"/>
      <point x="508" y="670" type="line"/>
      <point x="500" y="670" type="line" smooth="yes"/>
      <point x="484" y="670"/>
      <point x="470" y="664"/>
      <point x="466" y="634" type="curve" smooth="yes"/>
      <point x="354" y="0" type="line"/>
      <point x="296" y="0" type="line"/>
      <point x="421" y="710" type="line"/>
    </contour>
    <contour>
      <point x="447" y="710" type="line"/>
      <point x="438" y="661" type="line"/>
      <point x="310" y="661" type="line"/>
      <point x="319" y="710" type="line"/>
    </contour>
    <contour>
      <point x="262" y="0" type="line"/>
      <point x="149" y="0" type="line"/>
      <point x="200" y="297" type="line"/>
      <point x="196" y="297" type="line" smooth="yes"/>
      <point x="97" y="297"/>
      <point x="38" y="375"/>
      <point x="43" y="488" type="curve" smooth="yes"/>
      <point x="49" y="612"/>
      <point x="114" y="710"/>
      <point x="257" y="710" type="curve" smooth="yes"/>
      <point x="388" y="710" type="line"/>
    </contour>
  </outline>
</glyph>
<glyph name="cedilla" format="2">
  <advance width="453"/>
  <unicode hex="00B8"/>
  <anchor x="231" y="34" name="_bottom"/>
  <outline>
    <contour>
      <point x="184" y="-238" type="curve" smooth="yes"/>
      <point x="253" y="-238"/>
      <point x="301" y="-202"/>
      <point x="304" y="-139" type="curve" smooth="yes"/>
      <point x="306" y="-83"/>
      <point x="260" y="-59"/>
      <point x="189" y="-58" type="curve"/>
      <point x="192" y="-81" type="line"/>
      <point x="246" y="4" type="line"/>
      <point x="203" y="4" type="line"/>
      <point x="151" y="-96" type="line"/>
      <point x="161" y="-96" type="line" smooth="yes"/>
      <point x="189" y="-96"/>
      <point x="206" y="-113"/>
      <point x="205" y="-138" type="curve" smooth="yes"/>
      <point x="204" y="-171"/>
      <point x="183" y="-193"/>
      <point x="155" y="-193" type="curve" smooth="yes"/>
      <point x="145" y="-193"/>
      <point x="128" y="-185"/>
      <point x="112" y="-162" type="curve"/>
      <point x="92" y="-193" type="line"/>
      <point x="114" y="-222"/>
      <point x="143" y="-238"/>
    </contour>
  </outline>
</glyph>
<glyph name="ordmasculine" format="2">
  <advance width="413"/>
  <unicode hex="00BA"/>
  <outline>
    <contour>
      <point x="238" y="310" type="curve" smooth="yes"/>
      <point x="367" y="310"/>
      <point x="446" y="397"/>
      <point x="452" y="531" type="curve" smooth="yes"/>
      <point x="457" y="648"/>
      <point x="385" y="720"/>
      <point x="276" y="720" type="curve" smooth="yes"/>
      <point x="147" y="720"/>
      <point x="68" y="631"/>
      <point x="62" y="500" type="curve" smooth="yes"/>
      <point x="57" y="383"/>
      <point x="130" y="310"/>
    </contour>
    <contour>
      <point x="281" y="678" type="curve" smooth="yes"/>
      <point x="295" y="678"/>
      <point x="298" y="652"/>
      <point x="296" y="602" type="curve" smooth="yes"/>
      <point x="295" y="573"/>
      <point x="291" y="540"/>
      <point x="284" y="499" type="curve" smooth="yes"/>
      <point x="266" y="399"/>
      <point x="254" y="352"/>
      <point x="235" y="352" type="curve" smooth="yes"/>
      <point x="221" y="352"/>
      <point x="217" y="380"/>
      <point x="219" y="434" type="curve" smooth="yes"/>
      <point x="220" y="461"/>
      <point x="224" y="493"/>
      <point x="231" y="533" type="curve" smooth="yes"/>
      <point x="249" y="632"/>
      <point x="261" y="678"/>
    </contour>
  </outline>
</glyph>
<glyph name="multiply" format="2">
  <advance width="423"/>
  <unicode hex="00D7"/>
  <outline>
    <contour>
      <point x="87" y="147" type="line"/>
      <point x="411" y="498" type="line"/>
      <point x="386" y="537" type="line"/>
      <point x="62" y="185" type="line"/>
    </contour>
    <contour>
      <point x="318" y="147" type="line"/>
      <point x="356" y="181" type="line"/>
      <point x="150" y="537" type="line"/>
      <point x="114" y="502" type="line"/>
    </contour>
  </outline>
</glyph>
<glyph name="Oslash" format="2">
  <advance width="613"/>
  <unicode hex="00D8"/>
  <anchor x="341" y="731" name="top"/>
  <outline>
    <contour>
      <point x="-11" y="-10" type="line"/>
      <point x="45" y="-10" type="line"/>
      <point x="639" y="720" type="line"/>
      <point x="582" y="720" type="line"/>
    </contour>
    <contour>
      <point x="281" y="-10" type="curve" smooth="yes"/>
      <point x="487" y="-10"/>
      <point x="608" y="172"/>
      <point x="617" y="392" type="curve" smooth="yes"/>
      <point x="626" y="588"/>
      <point x="523" y="720"/>
      <point x="366" y="720" type="curve" smooth="yes"/>
      <point x="161" y="720"/>
      <point x="40" y="538"/>
      <point x="31" y="318" type="curve" smooth="yes"/>
      <point x="22" y="122"/>
      <point x="125" y="-10"/>
    </contour>
    <contour>
      <point x="275" y="39" type="curve" smooth="yes"/>
      <point x="252" y="39"/>
      <point x="232" y="78"/>
      <point x="238" y="195" type="curve" smooth="yes"/>
      <point x="239" y="240"/>
      <point x="247" y="299"/>
      <point x="261" y="369" type="curve" smooth="yes"/>
      <point x="296" y="571"/>
      <point x="328" y="671"/>
      <point x="370" y="671" type="curve" smooth="yes"/>
      <point x="394" y="671"/>
      <point x="412" y="628"/>
      <point x="407" y="512" type="curve" smooth="yes"/>
      <point x="405" y="465"/>
      <point x="399" y="408"/>
      <point x="385" y="340" type="curve" smooth="yes"/>
      <point x="348" y="132"/>
      <point x="318" y="39"/>
    </contour>
  </outline>
</glyph>
<glyph name="Thorn" format="2">
  <advance width="564"/>
  <unicode hex="00DE"/>
  <outline>
    <contour>
      <point x="287" y="520" type="line"/>
      <point x="321" y="520" type="line" smooth="yes"/>
      <point x="353" y="520"/>
      <point x="368" y="489"/>
      <point x="365" y="409" type="curve" smooth="yes"/>
      <point x="360" y="305"/>
      <point x="333" y="200"/>
      <point x="270" y="200" type="curve" smooth="yes"/>
      <point x="235" y="200" type="line"/>
      <point x="227" y="151" type="line"/>
      <point x="312" y="151" type="line" smooth="yes"/>
      <point x="477" y="151"/>
      <point x="566" y="239"/>
      <point x="573" y="379" type="curve" smooth="yes"/>
      <point x="577" y="491"/>
      <point x="516" y="569"/>
      <point x="367" y="569" type="curve" smooth="yes"/>
      <point x="294" y="569" type="line"/>
    </contour>
    <contour>
      <point x="20" y="73" type="line" smooth="yes"/>
      <point x="15" y="46"/>
      <point x="4" y="40"/>
      <point x="-14" y="40" type="curve" smooth="yes"/>
      <point x="-21" y="40" type="line"/>
      <point x="-30" y="0" type="line"/>
      <point x="256" y="0" type="line"/>
      <point x="264" y="40" type="line"/>
      <point x="257" y="40" type="line" smooth="yes"/>
      <point x="240" y="40"/>
      <point x="231" y="45"/>
      <point x="235" y="71" type="curve" smooth="yes"/>
      <point x="334" y="636" type="line" smooth="yes"/>
      <point x="339" y="664"/>
      <point x="350" y="670"/>
      <point x="368" y="670" type="curve" smooth="yes"/>
      <point x="375" y="670" type="line"/>
      <point x="384" y="710" type="line"/>
      <point x="97" y="710" type="line"/>
      <point x="88" y="670" type="line"/>
      <point x="96" y="670" type="line" smooth="yes"/>
      <point x="113" y="670"/>
      <point x="123" y="664"/>
      <point x="119" y="638" type="curve" smooth="yes"/>
    </contour>
  </outline>
</glyph>
<glyph name="germandbls" format="2">
  <advance width="535"/>
  <unicode hex="00DF"/>
  <outline>
    <contour>
      <point x="52" y="523" type="line"/>
      <point x="44" y="478" type="line"/>
      <point x="147" y="478" type="line"/>
      <point x="155" y="523" type="line"/>
    </contour>
    <contour>
      <point x="-12" y="-223" type="line"/>
      <point x="160" y="-223" type="line"/>
      <point x="327" y="627" type="line" smooth="yes"/>
      <point x="334" y="681"/>
      <point x="339" y="714"/>
      <point x="359" y="714" type="curve" smooth="yes"/>
      <point x="376" y="714"/>
      <point x="378" y="685"/>
      <point x="376" y="636" type="curve" smooth="yes"/>
      <point x="372" y="543"/>
      <point x="355" y="467"/>
      <point x="314" y="445" type="curve"/>
      <point x="306" y="405" type="line"/>
      <point x="327" y="389"/>
      <point x="336" y="355"/>
      <point x="333" y="267" type="curve" smooth="yes"/>
      <point x="327" y="134"/>
      <point x="298" y="47"/>
      <point x="266" y="47" type="curve" smooth="yes"/>
      <point x="261" y="47"/>
      <point x="256" y="53"/>
      <point x="253" y="56" type="curve"/>
      <point x="247" y="14" type="line"/>
      <point x="263" y="3"/>
      <point x="293" y="-10"/>
      <point x="348" y="-10" type="curve" smooth="yes"/>
      <point x="455" y="-10"/>
      <point x="528" y="75"/>
      <point x="534" y="217" type="curve" smooth="yes"/>
      <point x="539" y="330"/>
      <point x="464" y="415"/>
      <point x="343" y="438" type="curve"/>
      <point x="364" y="420" type="line"/>
      <point x="370" y="440" type="line"/>
      <point x="328" y="422" type="line"/>
      <point x="448" y="432"/>
      <point x="550" y="492"/>
      <point x="555" y="605" type="curve" smooth="yes"/>
      <point x="559" y="698"/>
      <point x="498" y="760"/>
      <point x="359" y="760" type="curve" smooth="yes"/>
      <point x="206" y="760"/>
      <point x="129" y="698"/>
      <point x="106" y="553" type="curve" smooth="yes"/>
    </contour>
  </outline>
</glyph>
<glyph name="ae" format="2">
  <advance width="683"/>
  <unicode hex="00E6"/>
  <anchor x="369" y="523" name="top"/>
  <outline>
    <contour>
      <point x="471" y="-10" type="curve" smooth="yes"/>
      <point x="576" y="-10"/>
      <point x="638" y="58"/>
      <point x="667" y="140" type="curve"/>
      <point x="636" y="165" type="line"/>
      <point x="607" y="100"/>
      <point x="580" y="60"/>
      <point x="541" y="60" type="curve" smooth="yes"/>
      <point x="492" y="60"/>
      <point x="468" y="107"/>
      <point x="472" y="217" type="curve" smooth="yes"/>
      <point x="479" y="368"/>
      <point x="507" y="486"/>
      <point x="531" y="486" type="curve" smooth="yes"/>
      <point x="542" y="486"/>
      <point x="546" y="464"/>
      <point x="545" y="435" type="curve" smooth="yes"/>
      <point x="541" y="342"/>
      <point x="520" y="274"/>
      <point x="429" y="242" type="curve"/>
      <point x="431" y="214" type="line"/>
      <point x="609" y="255"/>
      <point x="692" y="307"/>
      <point x="697" y="409" type="curve" smooth="yes"/>
      <point x="700" y="479"/>
      <point x="644" y="533"/>
      <point x="541" y="533" type="curve" smooth="yes"/>
      <point x="463" y="533"/>
      <point x="391" y="487"/>
      <point x="349" y="392" type="curve"/>
      <point x="275" y="353"/>
      <point x="268" y="278"/>
      <point x="266" y="226" type="curve" smooth="yes"/>
      <point x="260" y="87"/>
      <point x="328" y="-10"/>
    </contour>
    <contour>
      <point x="271" y="285" type="line"/>
      <point x="412" y="294" type="line"/>
      <point x="415" y="368" type="line" smooth="yes"/>
      <point x="418" y="484"/>
      <point x="357" y="533"/>
      <point x="249" y="533" type="curve" smooth="yes"/>
      <point x="171" y="533"/>
      <point x="115" y="499"/>
      <point x="91" y="480" type="curve"/>
      <point x="69" y="361" type="line"/>
      <point x="203" y="361" type="line"/>
      <point x="228" y="496" type="line"/>
      <point x="224" y="496"/>
      <point x="192" y="480"/>
      <point x="200" y="441" type="curve"/>
      <point x="209" y="467"/>
      <point x="226" y="486"/>
      <point x="247" y="486" type="curve" smooth="yes"/>
      <point x="278" y="486"/>
      <point x="290" y="460"/>
      <point x="288" y="404" type="curve" smooth="yes"/>
      <point x="287" y="391"/>
      <point x="286" y="380"/>
      <point x="284" y="364" type="curve"/>
    </contour>
    <contour>
      <point x="145" y="-10" type="curve" smooth="yes"/>
      <point x="243" y="-10"/>
      <point x="301" y="59"/>
      <point x="320" y="144" type="curve"/>
      <point x="287" y="164" type="line"/>
      <point x="282" y="112"/>
      <point x="259" y="68"/>
      <point x="231" y="68" type="curve" smooth="yes"/>
      <point x="206" y="68"/>
      <point x="196" y="93"/>
      <point x="198" y="137" type="curve" smooth="yes"/>
      <point x="201" y="212"/>
      <point x="223" y="260"/>
      <point x="274" y="276" type="curve"/>
      <point x="275" y="317" type="line"/>
      <point x="106" y="286"/>
      <point x="19" y="239"/>
      <point x="14" y="118" type="curve" smooth="yes"/>
      <point x="11" y="35"/>
      <point x="50" y="-10"/>
    </contour>
  </outline>
</glyph>
<glyph name="idieresis" format="2">
  <advance width="263"/>
  <unicode hex="00EF"/>
  <outline>
    <contour>
      <point x="108" y="585" type="curve" smooth="yes"/>
      <point x="162" y="585"/>
      <point x="194" y="616"/>
      <point x="196" y="668" type="curve" smooth="yes"/>
      <point x="198" y="721"/>
      <point x="169" y="752"/>
      <point x="115" y="752" type="curve" smooth="yes"/>
      <point x="60" y="752"/>
      <point x="26" y="721"/>
      <point x="24" y="668" type="curve" smooth="yes"/>
      <point x="22" y="615"/>
      <point x="53" y="585"/>
    </contour>
    <contour>
      <point x="296" y="585" type="curve" smooth="yes"/>
      <point x="352" y="585"/>
      <point x="385" y="616"/>
      <point x="387" y="668" type="curve" smooth="yes"/>
      <point x="389" y="721"/>
      <point x="359" y="752"/>
      <point x="303" y="752" type="curve" smooth="yes"/>
      <point x="251" y="752"/>
      <point x="216" y="721"/>
      <point x="214" y="668" type="curve" smooth="yes"/>
      <point x="212" y="615"/>
      <point x="244" y="585"/>
    </contour>
    <component base="dotlessi"/>
  </outline>
</glyph>
<glyph name="divide" format="2">
  <advance width="423"/>
  <unicode hex="00F7"/>
  <outline>
    <contour>
      <point x="328" y="530" type="curve" smooth="yes"/>
      <point x="330" y="569"/>
      <point x="308" y="597"/>
      <point x="267" y="597" type="curve" smooth="yes"/>
      <point x="227" y="597"/>
      <point x="203" y="569"/>
      <point x="201" y="530" type="curve" smooth="yes"/>
      <point x="199" y="491"/>
      <point x="221" y="464"/>
      <point x="261" y="464" type="curve" smooth="yes"/>
      <point x="302" y="464"/>
      <point x="326" y="491"/>
    </contour>
    <contour>
      <point x="260" y="151" type="curve" smooth="yes"/>
      <point x="261" y="190"/>
      <point x="240" y="218"/>
      <point x="200" y="218" type="curve" smooth="yes"/>
      <point x="160" y="218"/>
      <point x="135" y="190"/>
      <point x="134" y="151" type="curve" smooth="yes"/>
      <point x="132" y="112"/>
      <point x="154" y="85"/>
      <point x="194" y="85" type="curve" smooth="yes"/>
      <point x="234" y="85"/>
      <point x="258" y="112"/>
    </contour>
    <component base="minus" xOffset="5"/>
  </outline>
</glyph>
<glyph name="oslash" format="2">
  <advance width="516"/>
  <unicode hex="00F8"/>
  <anchor x="280" y="523" name="top"/>
  <outline>
    <contour>
      <point x="250" y="-10" type="curve" smooth="yes"/>
      <point x="407" y="-10"/>
      <point x="508" y="120"/>
      <point x="515" y="280" type="curve" smooth="yes"/>
      <point x="522" y="435"/>
      <point x="434" y="533"/>
      <point x="292" y="533" type="curve" smooth="yes"/>
      <point x="134" y="533"/>
      <point x="33" y="403"/>
      <point x="26" y="242" type="curve" smooth="yes"/>
      <point x="19" y="88"/>
      <point x="109" y="-10"/>
    </contour>
    <contour>
      <point x="14" y="-10" type="line"/>
      <point x="70" y="-10" type="line"/>
      <point x="526" y="533" type="line"/>
      <point x="470" y="533" type="line"/>
    </contour>
    <contour>
      <point x="242" y="36" type="curve"/>
      <point x="227" y="36"/>
      <point x="220" y="76"/>
      <point x="223" y="147" type="curve" smooth="yes"/>
      <point x="225" y="177"/>
      <point x="230" y="231"/>
      <point x="237" y="286" type="curve" smooth="yes"/>
      <point x="250" y="384"/>
      <point x="271" y="486"/>
      <point x="299" y="486" type="curve"/>
      <point x="314" y="486"/>
      <point x="321" y="447"/>
      <point x="317" y="375" type="curve" smooth="yes"/>
      <point x="316" y="345"/>
      <point x="311" y="292"/>
      <point x="302" y="237" type="curve" smooth="yes"/>
      <point x="290" y="139"/>
      <point x="270" y="36"/>
    </contour>
  </outline>
</glyph>
<glyph name="thorn" format="2">
  <advance width="519"/>
  <unicode hex="00FE"/>
  <outline>
    <contour>
      <point x="-66" y="-223" type="line"/>
      <point x="195" y="-223" type="line"/>
      <point x="203" y="-186" type="line"/>
      <point x="201" y="-186" type="line" smooth="yes"/>
      <point x="177" y="-186"/>
      <point x="164" y="-183"/>
      <point x="166" y="-176" type="curve"/>
      <point x="331" y="750" type="line"/>
      <point x="103" y="750" type="line"/>
      <point x="96" y="712" type="line"/>
      <point x="104" y="710" type="line" smooth="yes"/>
      <point x="114" y="706"/>
      <point x="119" y="699"/>
      <point x="116" y="680" type="curve" smooth="yes"/>
      <point x="-35" y="-161" type="line" smooth="yes"/>
      <point x="-39" y="-181"/>
      <point x="-48" y="-186"/>
      <point x="-58" y="-186" type="curve" smooth="yes"/>
      <point x="-59" y="-186" type="line"/>
    </contour>
    <contour>
      <point x="246" y="-10" type="curve" smooth="yes"/>
      <point x="411" y="-10"/>
      <point x="512" y="161"/>
      <point x="519" y="329" type="curve" smooth="yes"/>
      <point x="525" y="469"/>
      <point x="474" y="533"/>
      <point x="406" y="533" type="curve" smooth="yes"/>
      <point x="318" y="533"/>
      <point x="264" y="451"/>
      <point x="213" y="318" type="curve"/>
      <point x="226" y="300" type="line"/>
      <point x="257" y="393"/>
      <point x="278" y="438"/>
      <point x="297" y="438" type="curve" smooth="yes"/>
      <point x="312" y="438"/>
      <point x="316" y="408"/>
      <point x="313" y="343" type="curve" smooth="yes"/>
      <point x="308" y="220"/>
      <point x="266" y="32"/>
      <point x="219" y="32" type="curve" smooth="yes"/>
      <point x="190" y="32"/>
      <point x="185" y="66"/>
      <point x="194" y="114" type="curve"/>
      <point x="134" y="50" type="line"/>
      <point x="169" y="11"/>
      <point x="201" y="-10"/>
    </contour>
  </outline>
</glyph>
<glyph name="Aogonek" format="2">
  <advance width="553"/>
  <unicode hex="0104"/>
  <outline>
    <contour>
      <point x="200" y="-244" type="curve" smooth="yes"/>
      <point x="138" y="-244"/>
      <point x="98" y="-211"/>
      <point x="100" y="-150" type="curve" smooth="yes"/>
      <point x="104" y="-66"/>
      <point x="173" y="-18"/>
      <point x="347" y="46" type="curve"/>
      <point x="361" y="22" type="line"/>
      <point x="257" y="-32"/>
      <point x="230" y="-78"/>
      <point x="228" y="-123" type="curve" smooth="yes"/>
      <point x="226" y="-160"/>
      <point x="242" y="-176"/>
      <point x="268" y="-176" type="curve" smooth="yes"/>
      <point x="294" y="-176"/>
      <point x="311" y="-162"/>
      <point x="325" y="-147" type="curve"/>
      <point x="342" y="-178" type="line"/>
      <point x="306" y="-217"/>
      <point x="261" y="-244"/>
    </contour>
    <contour>
      <point x="82" y="227" type="line"/>
      <point x="104" y="273" type="line"/>
      <point x="291" y="273" type="line"/>
      <point x="282" y="227" type="line"/>
    </contour>
    <contour>
      <point x="243" y="572" type="line"/>
      <point x="45" y="54" type="line"/>
      <point x="44" y="44"/>
      <point x="58" y="40"/>
      <point x="76" y="40" type="curve" smooth="yes"/>
      <point x="83" y="40" type="line"/>
      <point x="75" y="0" type="line"/>
      <point x="-35" y="0" type="line"/>
      <point x="-26" y="40" type="line"/>
      <point x="-23" y="40" type="line" smooth="yes"/>
      <point x="-6" y="40"/>
      <point x="-2" y="49"/>
      <point x="9" y="79" type="curve" smooth="yes"/>
      <point x="269" y="710" type="line"/>
      <point x="432" y="710" type="line"/>
      <point x="487" y="68" type="line"/>
      <point x="489" y="45"/>
      <point x="493" y="40"/>
      <point x="505" y="40" type="curve" smooth="yes"/>
      <point x="508" y="40" type="line"/>
      <point x="499" y="0" type="line"/>
      <point x="270" y="0" type="line"/>
      <point x="224" y="584" type="line"/>
    </contour>
  </outline>
</glyph>
<glyph name="hbar" format="2">
  <advance width="517"/>
  <unicode hex="0127"/>
  <outline>
    <contour>
      <point x="295" y="219" type="line" smooth="yes"/>
      <point x="282" y="169"/>
      <point x="277" y="139"/>
      <point x="276" y="115" type="curve" smooth="yes"/>
      <point x="272" y="29"/>
      <point x="319" y="-10"/>
      <point x="390" y="-10" type="curve" smooth="yes"/>
      <point x="435" y="-10"/>
      <point x="472" y="5"/>
      <point x="494" y="21" type="curve"/>
      <point x="500" y="58" type="line"/>
      <point x="499" y="55"/>
      <point x="491" y="48"/>
      <point x="484" y="48" type="curve" smooth="yes"/>
      <point x="472" y="48"/>
      <point x="465" y="54"/>
      <point x="466" y="74" type="curve" smooth="yes"/>
      <point x="467" y="88"/>
      <point x="474" y="122"/>
      <point x="483" y="158" type="curve" smooth="yes"/>
      <point x="504" y="303" type="line" smooth="yes"/>
      <point x="516" y="353"/>
      <point x="523" y="384"/>
      <point x="524" y="413" type="curve" smooth="yes"/>
      <point x="527" y="484"/>
      <point x="491" y="533"/>
      <point x="422" y="533" type="curve" smooth="yes"/>
      <point x="349" y="533"/>
      <point x="278" y="465"/>
      <point x="232" y="346" type="curve"/>
      <point x="238" y="302" type="line"/>
      <point x="259" y="387"/>
      <point x="290" y="435"/>
      <point x="308" y="435" type="curve" smooth="yes"/>
      <point x="318" y="435"/>
      <point x="321" y="420"/>
      <point x="320" y="398" type="curve" smooth="yes"/>
      <point x="320" y="381"/>
      <point x="316" y="360"/>
      <point x="310" y="333" type="curve" smooth="yes"/>
    </contour>
    <contour>
      <point x="-6" y="0" type="line"/>
      <point x="196" y="0" type="line"/>
      <point x="331" y="750" type="line"/>
      <point x="129" y="750" type="line"/>
    </contour>
    <contour>
      <point x="404" y="601" type="line"/>
      <point x="413" y="646" type="line"/>
      <point x="62" y="646" type="line"/>
      <point x="54" y="601" type="line"/>
    </contour>
  </outline>
</glyph>
<glyph name="itilde" format="2">
  <advance width="262"/>
  <unicode hex="0129"/>
  <outline>
    <contour>
      <point x="245" y="585" type="curve" smooth="yes"/>
      <point x="298" y="585"/>
      <point x="331" y="644"/>
      <point x="356" y="736" type="curve"/>
      <point x="319" y="752" type="line"/>
      <point x="304" y="708"/>
      <point x="294" y="693"/>
      <point x="273" y="693" type="curve" smooth="yes"/>
      <point x="239" y="693"/>
      <point x="211" y="747"/>
      <point x="167" y="747" type="curve" smooth="yes"/>
      <point x="108" y="747"/>
      <point x="76" y="691"/>
      <point x="55" y="597" type="curve"/>
      <point x="91" y="583" type="line"/>
      <point x="103" y="623"/>
      <point x="115" y="639"/>
      <point x="136" y="639" type="curve" smooth="yes"/>
      <point x="167" y="639"/>
      <point x="201" y="585"/>
    </contour>
    <component base="dotlessi"/>
  </outline>
</glyph>
<glyph name="Iogonek" format="2">
  <advance width="315"/>
  <unicode hex="012E"/>
  <outline>
    <contour>
      <point x="208" y="26" type="line"/>
      <point x="39" y="-29"/>
      <point x="-25" y="-75"/>
      <point x="-29" y="-150" type="curve" smooth="yes"/>
      <point x="-31" y="-211"/>
      <point x="7" y="-244"/>
      <point x="70" y="-244" type="curve" smooth="yes"/>
      <point x="131" y="-244"/>
      <point x="176" y="-217"/>
      <point x="212" y="-178" type="curve"/>
      <point x="196" y="-147" type="line"/>
      <point x="182" y="-162"/>
      <point x="163" y="-176"/>
      <point x="138" y="-176" type="curve" smooth="yes"/>
      <point x="112" y="-176"/>
      <point x="96" y="-161"/>
      <point x="97" y="-127" type="curve" smooth="yes"/>
      <point x="99" y="-83"/>
      <point x="122" y="-47"/>
      <point x="219" y="13" type="curve"/>
    </contour>
    <component base="I"/>
  </outline>
</glyph>
<glyph name="iogonek" format="2">
  <advance width="262"/>
  <unicode hex="012F"/>
  <outline>
    <contour>
      <point x="221" y="27" type="line"/>
      <point x="52" y="-29"/>
      <point x="-10" y="-75"/>
      <point x="-14" y="-150" type="curve" smooth="yes"/>
      <point x="-16" y="-211"/>
      <point x="23" y="-244"/>
      <point x="86" y="-244" type="curve" smooth="yes"/>
      <point x="147" y="-244"/>
      <point x="192" y="-217"/>
      <point x="228" y="-178" type="curve"/>
      <point x="211" y="-147" type="line"/>
      <point x="197" y="-162"/>
      <point x="179" y="-176"/>
      <point x="153" y="-176" type="curve" smooth="yes"/>
      <point x="127" y="-176"/>
      <point x="112" y="-161"/>
      <point x="113" y="-127" type="curve" smooth="yes"/>
      <point x="115" y="-83"/>
      <point x="136" y="-48"/>
      <point x="231" y="14" type="curve"/>
    </contour>
    <component base="i"/>
  </outline>
</glyph>
<glyph name="dotlessi" format="2">
  <advance width="263"/>
  <unicode hex="0131"/>
  <anchor x="163" y="523" name="top"/>
  <outline>
    <contour>
      <point x="225" y="155" type="curve" smooth="yes"/>
      <point x="288" y="523" type="line"/>
      <point x="62" y="523" type="line"/>
      <point x="55" y="485" type="line"/>
      <point x="65" y="483" type="line" smooth="yes"/>
      <point x="74" y="479"/>
      <point x="78" y="472"/>
      <point x="75" y="453" type="curve" smooth="yes"/>
      <point x="37" y="219" type="line" smooth="yes"/>
      <point x="25" y="171"/>
      <point x="18" y="143"/>
      <point x="17" y="117" type="curve" smooth="yes"/>
      <point x="13" y="33"/>
      <point x="64" y="-10"/>
      <point x="134" y="-10" type="curve" smooth="yes"/>
      <point x="181" y="-10"/>
      <point x="221" y="8"/>
      <point x="238" y="21" type="curve"/>
      <point x="246" y="58" type="line"/>
      <point x="244" y="56"/>
      <point x="237" y="48"/>
      <point x="229" y="48" type="curve" smooth="yes"/>
      <point x="216" y="48"/>
      <point x="208" y="54"/>
      <point x="209" y="74" type="curve" smooth="yes"/>
      <point x="210" y="96"/>
      <point x="216" y="124"/>
    </contour>
  </outline>
</glyph>
<glyph name="Ldot" format="2">
  <advance width="481"/>
  <unicode hex="013F"/>
  <outline>
    <contour>
      <point x="392" y="710" type="line"/>
      <point x="97" y="710" type="line"/>
      <point x="88" y="670" type="line"/>
      <point x="96" y="670" type="line" smooth="yes"/>
      <point x="113" y="670"/>
      <point x="123" y="664"/>
      <point x="120" y="639" type="curve" smooth="yes"/>
      <point x="20" y="71" type="line" smooth="yes"/>
      <point x="15" y="46"/>
      <point x="4" y="40"/>
      <point x="-14" y="40" type="curve" smooth="yes"/>
      <point x="-21" y="40" type="line"/>
      <point x="-30" y="0" type="line"/>
      <point x="422" y="0" type="line"/>
      <point x="463" y="228" type="line"/>
      <point x="424" y="228" type="line"/>
      <point x="380" y="95" type="line" smooth="yes"/>
      <point x="369" y="58"/>
      <point x="348" y="48"/>
      <point x="296" y="48" type="curve" smooth="yes"/>
      <point x="232" y="48" type="line"/>
      <point x="335" y="644" type="line" smooth="yes"/>
      <point x="338" y="665"/>
      <point x="351" y="670"/>
      <point x="371" y="670" type="curve" smooth="yes"/>
      <point x="383" y="670" type="line"/>
    </contour>
    <component base="periodcentered" xOffset="289" yOffset="65"/>
  </outline>
</glyph>
<glyph name="OE" format="2">
  <advance width="797"/>
  <unicode hex="0152"/>
  <outline>
    <contour>
      <point x="571" y="385" type="curve"/>
      <point x="564" y="342" type="line"/>
      <point x="634" y="338"/>
      <point x="683" y="329"/>
      <point x="730" y="312" type="curve"/>
      <point x="749" y="414" type="line"/>
      <point x="696" y="399"/>
      <point x="644" y="391"/>
    </contour>
    <contour>
      <point x="776" y="213" type="line"/>
      <point x="738" y="213" type="line"/>
      <point x="697" y="95" type="line" smooth="yes"/>
      <point x="687" y="58"/>
      <point x="666" y="48"/>
      <point x="610" y="48" type="curve" smooth="yes"/>
      <point x="535" y="48" type="line"/>
      <point x="642" y="662" type="line"/>
      <point x="715" y="662" type="line" smooth="yes"/>
      <point x="749" y="662"/>
      <point x="771" y="652"/>
      <point x="771" y="616" type="curve"/>
      <point x="769" y="522" type="line"/>
      <point x="805" y="522" type="line"/>
      <point x="840" y="710" type="line"/>
      <point x="407" y="710" type="line" smooth="yes"/>
      <point x="152" y="710"/>
      <point x="37" y="527"/>
      <point x="28" y="310" type="curve" smooth="yes"/>
      <point x="19" y="112"/>
      <point x="129" y="0"/>
      <point x="310" y="0" type="curve" smooth="yes"/>
      <point x="738" y="0" type="line"/>
    </contour>
    <contour>
      <point x="309" y="49" type="line" smooth="yes"/>
      <point x="269" y="49"/>
      <point x="240" y="97"/>
      <point x="247" y="258" type="curve" smooth="yes"/>
      <point x="258" y="515"/>
      <point x="345" y="661"/>
      <point x="412" y="661" type="curve" smooth="yes"/>
      <point x="427" y="661" type="line"/>
      <point x="320" y="49" type="line"/>
    </contour>
  </outline>
</glyph>
<glyph name="oe" format="2">
  <advance width="726"/>
  <unicode hex="0153"/>
  <outline>
    <contour>
      <point x="514" y="217" type="curve" smooth="yes"/>
      <point x="521" y="363"/>
      <point x="548" y="486"/>
      <point x="574" y="486" type="curve" smooth="yes"/>
      <point x="585" y="486"/>
      <point x="588" y="464"/>
      <point x="587" y="433" type="curve" smooth="yes"/>
      <point x="583" y="343"/>
      <point x="563" y="274"/>
      <point x="472" y="243" type="curve"/>
      <point x="474" y="214" type="line"/>
      <point x="650" y="254"/>
      <point x="734" y="307"/>
      <point x="739" y="409" type="curve" smooth="yes"/>
      <point x="742" y="479"/>
      <point x="690" y="533"/>
      <point x="595" y="533" type="curve" smooth="yes"/>
      <point x="450" y="533"/>
      <point x="358" y="383"/>
      <point x="351" y="227" type="curve" smooth="yes"/>
      <point x="345" y="87"/>
      <point x="399" y="-10"/>
      <point x="514" y="-10" type="curve" smooth="yes"/>
      <point x="619" y="-10"/>
      <point x="678" y="56"/>
      <point x="708" y="140" type="curve"/>
      <point x="678" y="165" type="line"/>
      <point x="649" y="101"/>
      <point x="620" y="60"/>
      <point x="584" y="60" type="curve" smooth="yes"/>
      <point x="536" y="60"/>
      <point x="510" y="106"/>
    </contour>
    <contour>
      <point x="293" y="533" type="curve" smooth="yes"/>
      <point x="135" y="533"/>
      <point x="33" y="403"/>
      <point x="26" y="242" type="curve" smooth="yes"/>
      <point x="19" y="88"/>
      <point x="109" y="-10"/>
      <point x="250" y="-10" type="curve" smooth="yes"/>
      <point x="382" y="-10"/>
      <point x="466" y="120"/>
      <point x="473" y="280" type="curve" smooth="yes"/>
      <point x="480" y="435"/>
      <point x="409" y="533"/>
    </contour>
    <contour>
      <point x="302" y="236" type="curve" smooth="yes"/>
      <point x="289" y="139"/>
      <point x="271" y="36"/>
      <point x="244" y="36" type="curve"/>
      <point x="231" y="36"/>
      <point x="223" y="76"/>
      <point x="226" y="147" type="curve" smooth="yes"/>
      <point x="228" y="177"/>
      <point x="234" y="231"/>
      <point x="241" y="286" type="curve" smooth="yes"/>
      <point x="254" y="384"/>
      <point x="275" y="486"/>
      <point x="301" y="486" type="curve" smooth="yes"/>
      <point x="313" y="486"/>
      <point x="319" y="447"/>
      <point x="315" y="375" type="curve" smooth="yes"/>
      <point x="314" y="345"/>
      <point x="310" y="292"/>
    </contour>
  </outline>
</glyph>
<glyph name="Tbar" format="2">
  <advance width="542"/>
  <unicode hex="0166"/>
  <outline>
    <contour>
      <point x="89" y="364" type="line"/>
      <point x="80" y="315" type="line"/>
      <point x="480" y="315" type="line"/>
      <point x="489" y="364" type="line"/>
    </contour>
    <component base="T"/>
  </outline>
</glyph>
<glyph name="Uogonek" format="2">
  <advance width="548"/>
  <unicode hex="0172"/>
  <outline>
    <contour>
      <point x="238" y="-244" type="curve" smooth="yes"/>
      <point x="299" y="-244"/>
      <point x="344" y="-217"/>
      <point x="380" y="-178" type="curve"/>
      <point x="363" y="-147" type="line"/>
      <point x="350" y="-162"/>
      <point x="332" y="-176"/>
      <point x="306" y="-176" type="curve" smooth="yes"/>
      <point x="280" y="-176"/>
      <point x="264" y="-164"/>
      <point x="265" y="-131" type="curve" smooth="yes"/>
      <point x="269" y="-52"/>
      <point x="392" y="-3"/>
      <point x="431" y="59" type="curve" smooth="yes"/>
      <point x="464" y="102"/>
      <point x="487" y="168"/>
      <point x="503" y="262" type="curve" smooth="yes"/>
      <point x="569" y="633" type="line" smooth="yes"/>
      <point x="572" y="662"/>
      <point x="584" y="670"/>
      <point x="601" y="670" type="curve" smooth="yes"/>
      <point x="608" y="670" type="line"/>
      <point x="616" y="710" type="line"/>
      <point x="499" y="710" type="line"/>
      <point x="492" y="670" type="line"/>
      <point x="496" y="670" type="line" smooth="yes"/>
      <point x="508" y="670"/>
      <point x="525" y="664"/>
      <point x="523" y="649" type="curve" smooth="yes"/>
      <point x="458" y="272" type="line" smooth="yes"/>
      <point x="436" y="138"/>
      <point x="399" y="76"/>
      <point x="332" y="76" type="curve" smooth="yes"/>
      <point x="288" y="76"/>
      <point x="261" y="116"/>
      <point x="265" y="206" type="curve" smooth="yes"/>
      <point x="266" y="234"/>
      <point x="272" y="267"/>
      <point x="279" y="309" type="curve" smooth="yes"/>
      <point x="339" y="660" type="line" smooth="yes"/>
      <point x="339" y="667"/>
      <point x="357" y="670"/>
      <point x="369" y="670" type="curve" smooth="yes"/>
      <point x="376" y="670" type="line"/>
      <point x="383" y="710" type="line"/>
      <point x="96" y="710" type="line"/>
      <point x="89" y="670" type="line"/>
      <point x="97" y="670" type="line" smooth="yes"/>
      <point x="114" y="670"/>
      <point x="124" y="664"/>
      <point x="121" y="639" type="curve" smooth="yes"/>
      <point x="69" y="334" type="line" smooth="yes"/>
      <point x="62" y="290"/>
      <point x="56" y="253"/>
      <point x="55" y="219" type="curve" smooth="yes"/>
      <point x="48" y="60"/>
      <point x="122" y="-10"/>
      <point x="269" y="-10" type="curve" smooth="yes"/>
      <point x="290" y="-10"/>
      <point x="311" y="-7"/>
      <point x="329" y="-2" type="curve"/>
      <point x="339" y="13" type="line"/>
      <point x="210" y="-32"/>
      <point x="143" y="-76"/>
      <point x="139" y="-150" type="curve" smooth="yes"/>
      <point x="137" y="-211"/>
      <point x="175" y="-244"/>
    </contour>
  </outline>
</glyph>
<glyph name="Schwa" format="2">
  <advance width="593"/>
  <unicode hex="018F"/>
  <outline>
    <contour>
      <point x="265" y="-10" type="curve" smooth="yes"/>
      <point x="440" y="-10"/>
      <point x="585" y="159"/>
      <point x="596" y="412" type="curve" smooth="yes"/>
      <point x="604" y="593"/>
      <point x="519" y="720"/>
      <point x="329" y="720" type="curve" smooth="yes"/>
      <point x="207" y="720"/>
      <point x="129" y="651"/>
      <point x="74" y="549" type="curve"/>
      <point x="108" y="516" type="line"/>
      <point x="149" y="600"/>
      <point x="219" y="669"/>
      <point x="290" y="669" type="curve" smooth="yes"/>
      <point x="364" y="669"/>
      <point x="385" y="591"/>
      <point x="379" y="456" type="curve" smooth="yes"/>
      <point x="370" y="258"/>
      <point x="320" y="39"/>
      <point x="271" y="39" type="curve" smooth="yes"/>
      <point x="246" y="39"/>
      <point x="236" y="85"/>
      <point x="240" y="188" type="curve" smooth="yes"/>
      <point x="242" y="239"/>
      <point x="247" y="295"/>
      <point x="262" y="358" type="curve"/>
      <point x="232" y="346" type="line"/>
      <point x="479" y="346" type="line"/>
      <point x="492" y="395" type="line"/>
      <point x="42" y="395" type="line"/>
      <point x="34" y="353"/>
      <point x="31" y="314"/>
      <point x="29" y="275" type="curve"/>
      <point x="21" y="95"/>
      <point x="99" y="-10"/>
    </contour>
  </outline>
</glyph>
<glyph name="ohorn" format="2">
  <advance width="532"/>
  <unicode hex="01A1"/>
  <anchor x="271" y="523" name="top"/>
  <outline>
    <contour>
      <point x="250" y="-10" type="curve" smooth="yes"/>
      <point x="407" y="-10"/>
      <point x="511" y="120"/>
      <point x="518" y="280" type="curve" smooth="yes"/>
      <point x="523" y="398"/>
      <point x="472" y="471"/>
      <point x="384" y="505" type="curve"/>
      <point x="433" y="465" type="line"/>
      <point x="446" y="498" type="line"/>
      <point x="370" y="483" type="line"/>
      <point x="384" y="480"/>
      <point x="400" y="479"/>
      <point x="416" y="479" type="curve" smooth="yes"/>
      <point x="521" y="479"/>
      <point x="593" y="532"/>
      <point x="611" y="656" type="curve"/>
      <point x="481" y="656" type="line"/>
      <point x="463" y="567"/>
      <point x="443" y="521"/>
      <point x="398" y="521" type="curve" smooth="yes"/>
      <point x="372" y="521"/>
      <point x="341" y="533"/>
      <point x="292" y="533" type="curve" smooth="yes"/>
      <point x="134" y="533"/>
      <point x="33" y="403"/>
      <point x="26" y="242" type="curve" smooth="yes"/>
      <point x="19" y="87"/>
      <point x="109" y="-10"/>
    </contour>
    <contour>
      <point x="244" y="36" type="curve"/>
      <point x="231" y="36"/>
      <point x="223" y="76"/>
      <point x="226" y="147" type="curve" smooth="yes"/>
      <point x="228" y="177"/>
      <point x="234" y="231"/>
      <point x="241" y="286" type="curve" smooth="yes"/>
      <point x="254" y="384"/>
      <point x="275" y="486"/>
      <point x="301" y="486" type="curve"/>
      <point x="313" y="486"/>
      <point x="321" y="447"/>
      <point x="317" y="375" type="curve" smooth="yes"/>
      <point x="316" y="345"/>
      <point x="311" y="292"/>
      <point x="302" y="237" type="curve" smooth="yes"/>
      <point x="289" y="139"/>
      <point x="269" y="36"/>
    </contour>
  </outline>
</glyph>
<glyph name="Oogonek" format="2">
  <advance width="613"/>
  <unicode hex="01EA"/>
  <outline>
    <contour>
      <point x="275" y="39" type="curve" smooth="yes"/>
      <point x="254" y="39"/>
      <point x="234" y="78"/>
      <point x="240" y="195" type="curve" smooth="yes"/>
      <point x="241" y="240"/>
      <point x="250" y="299"/>
      <point x="264" y="369" type="curve" smooth="yes"/>
      <point x="301" y="571"/>
      <point x="329" y="671"/>
      <point x="370" y="671" type="curve" smooth="yes"/>
      <point x="392" y="671"/>
      <point x="410" y="628"/>
      <point x="405" y="512" type="curve" smooth="yes"/>
      <point x="403" y="465"/>
      <point x="396" y="408"/>
      <point x="382" y="340" type="curve" smooth="yes"/>
      <point x="344" y="132"/>
      <point x="316" y="39"/>
    </contour>
    <contour>
      <point x="236" y="-244" type="curve" smooth="yes"/>
      <point x="298" y="-244"/>
      <point x="343" y="-217"/>
      <point x="379" y="-178" type="curve"/>
      <point x="362" y="-147" type="line"/>
      <point x="348" y="-162"/>
      <point x="330" y="-176"/>
      <point x="304" y="-176" type="curve" smooth="yes"/>
      <point x="278" y="-176"/>
      <point x="263" y="-160"/>
      <point x="264" y="-126" type="curve" smooth="yes"/>
      <point x="268" y="-44"/>
      <point x="415" y="-13"/>
      <point x="500" y="71" type="curve" smooth="yes"/>
      <point x="558" y="135"/>
      <point x="611" y="254"/>
      <point x="617" y="392" type="curve" smooth="yes"/>
      <point x="626" y="588"/>
      <point x="523" y="720"/>
      <point x="366" y="720" type="curve" smooth="yes"/>
      <point x="161" y="720"/>
      <point x="40" y="538"/>
      <point x="31" y="318" type="curve" smooth="yes"/>
      <point x="22" y="122"/>
      <point x="125" y="-10"/>
      <point x="281" y="-10" type="curve" smooth="yes"/>
      <point x="304" y="-10"/>
      <point x="327" y="-7"/>
      <point x="347" y="-1" type="curve"/>
      <point x="361" y="15" type="line"/>
      <point x="200" y="-37"/>
      <point x="141" y="-80"/>
      <point x="137" y="-150" type="curve" smooth="yes"/>
      <point x="135" y="-211"/>
      <point x="174" y="-244"/>
    </contour>
  </outline>
</glyph>
<glyph name="iinvertedbreve" format="2">
  <advance width="263"/>
  <unicode hex="020B"/>
  <outline>
    <contour>
      <point x="205" y="757" type="curve" smooth="yes"/>
      <point x="128" y="757"/>
      <point x="78" y="705"/>
      <point x="64" y="577" type="curve"/>
      <point x="110" y="577" type="line"/>
      <point x="119" y="626"/>
      <point x="137" y="646"/>
      <point x="190" y="646" type="curve" smooth="yes"/>
      <point x="246" y="646"/>
      <point x="266" y="626"/>
      <point x="262" y="577" type="curve"/>
      <point x="307" y="577" type="line"/>
      <point x="311" y="592"/>
      <point x="312" y="604"/>
      <point x="313" y="616" type="curve" smooth="yes"/>
      <point x="316" y="711"/>
      <point x="270" y="757"/>
    </contour>
    <component base="dotlessi"/>
  </outline>
</glyph>
<glyph name="circumflex" format="2">
  <advance width="378"/>
  <unicode hex="02C6"/>
  <anchor x="203" y="529" name="_top"/>
  <outline>
    <contour>
      <point x="307" y="740" type="line"/>
      <point x="379" y="580" type="line"/>
      <point x="377" y="567" type="line"/>
      <point x="328" y="567" type="line"/>
      <point x="187" y="679" type="line"/>
      <point x="312" y="678" type="line"/>
      <point x="130" y="567" type="line"/>
      <point x="75" y="567" type="line"/>
      <point x="78" y="580" type="line"/>
      <point x="206" y="740" type="line"/>
    </contour>
  </outline>
</glyph>
<glyph name="verticallinemod" format="2">
  <advance width="378"/>
  <unicode hex="02C8"/>
  <outline>
    <contour>
      <point x="181" y="547" type="line"/>
      <point x="246" y="547" type="line"/>
      <point x="255" y="750" type="line"/>
      <point x="190" y="750" type="line"/>
    </contour>
  </outline>
</glyph>
<glyph name="dotaccent" format="2">
  <advance width="378"/>
  <unicode hex="02D9"/>
  <anchor x="213" y="526" name="_top"/>
  <outline>
    <contour>
      <point x="208" y="581" type="curve" smooth="yes"/>
      <point x="145" y="581"/>
      <point x="110" y="614"/>
      <point x="112" y="671" type="curve" smooth="yes"/>
      <point x="115" y="727"/>
      <point x="153" y="761"/>
      <point x="216" y="761" type="curve" smooth="yes"/>
      <point x="281" y="761"/>
      <point x="316" y="727"/>
      <point x="313" y="671" type="curve" smooth="yes"/>
      <point x="311" y="615"/>
      <point x="273" y="581"/>
    </contour>
  </outline>
</glyph>
<glyph name="ogonek" format="2">
  <advance width="453"/>
  <unicode hex="02DB"/>
  <anchor x="289" y="9" name="_right"/>
  <outline>
    <contour>
      <point x="315" y="27" type="line"/>
      <point x="147" y="-29"/>
      <point x="85" y="-75"/>
      <point x="81" y="-150" type="curve" smooth="yes"/>
      <point x="79" y="-211"/>
      <point x="117" y="-244"/>
      <point x="180" y="-244" type="curve" smooth="yes"/>
      <point x="241" y="-244"/>
      <point x="286" y="-217"/>
      <point x="322" y="-178" type="curve"/>
      <point x="306" y="-147" type="line"/>
      <point x="292" y="-162"/>
      <point x="273" y="-176"/>
      <point x="248" y="-176" type="curve" smooth="yes"/>
      <point x="222" y="-176"/>
      <point x="206" y="-161"/>
      <point x="207" y="-127" type="curve" smooth="yes"/>
      <point x="209" y="-83"/>
      <point x="230" y="-48"/>
      <point x="326" y="14" type="curve"/>
    </contour>
  </outline>
</glyph>
<glyph name="tilde" format="2">
  <advance width="378"/>
  <unicode hex="02DC"/>
  <anchor x="210" y="516" name="_top"/>
  <outline>
    <contour>
      <point x="266" y="585" type="curve" smooth="yes"/>
      <point x="319" y="585"/>
      <point x="352" y="644"/>
      <point x="377" y="736" type="curve"/>
      <point x="342" y="752" type="line"/>
      <point x="327" y="708"/>
      <point x="315" y="693"/>
      <point x="295" y="693" type="curve" smooth="yes"/>
      <point x="258" y="693"/>
      <point x="227" y="747"/>
      <point x="181" y="747" type="curve" smooth="yes"/>
      <point x="122" y="747"/>
      <point x="89" y="691"/>
      <point x="68" y="597" type="curve"/>
      <point x="104" y="583" type="line"/>
      <point x="117" y="623"/>
      <point x="129" y="639"/>
      <point x="150" y="639" type="curve" smooth="yes"/>
      <point x="183" y="639"/>
      <point x="219" y="585"/>
    </contour>
  </outline>
</glyph>
<glyph name="Omega" format="2">
  <advance width="660"/>
  <unicode hex="03A9"/>
  <outline>
    <contour>
      <point x="391" y="670" type="curve" smooth="yes"/>
      <point x="325" y="670"/>
      <point x="291" y="555"/>
      <point x="285" y="406" type="curve" smooth="yes"/>
      <point x="280" y="299"/>
      <point x="279" y="227"/>
      <point x="296" y="136" type="curve"/>
      <point x="269" y="0" type="line"/>
      <point x="-16" y="0" type="line"/>
      <point x="28" y="234" type="line"/>
      <point x="63" y="234" type="line"/>
      <point x="63" y="177" type="line" smooth="yes"/>
      <point x="61" y="143"/>
      <point x="89" y="134"/>
      <point x="144" y="134" type="curve" smooth="yes"/>
      <point x="249" y="134" type="line"/>
      <point x="277" y="99" type="line"/>
      <point x="181" y="186"/>
      <point x="78" y="298"/>
      <point x="84" y="443" type="curve" smooth="yes"/>
      <point x="91" y="593"/>
      <point x="201" y="720"/>
      <point x="393" y="720" type="curve" smooth="yes"/>
      <point x="568" y="720"/>
      <point x="658" y="621"/>
      <point x="652" y="476" type="curve" smooth="yes"/>
      <point x="645" y="311"/>
      <point x="508" y="193"/>
      <point x="336" y="104" type="curve"/>
      <point x="382" y="134" type="line"/>
      <point x="495" y="134" type="line" smooth="yes"/>
      <point x="550" y="134"/>
      <point x="580" y="140"/>
      <point x="591" y="177" type="curve" smooth="yes"/>
      <point x="605" y="234" type="line"/>
      <point x="641" y="234" type="line"/>
      <point x="598" y="0" type="line"/>
      <point x="306" y="0" type="line"/>
      <point x="333" y="135" type="line"/>
      <point x="413" y="247"/>
      <point x="444" y="357"/>
      <point x="450" y="496" type="curve" smooth="yes"/>
      <point x="454" y="603"/>
      <point x="441" y="670"/>
    </contour>
  </outline>
</glyph>
<glyph name="thai:baht" format="2">
  <advance width="423"/>
  <unicode hex="0E3F"/>
  <outline>
    <contour>
      <point x="132" y="44" type="line"/>
      <point x="185" y="348" type="line"/>
      <point x="224" y="348" type="line" smooth="yes"/>
      <point x="262" y="348"/>
      <point x="281" y="308"/>
      <point x="279" y="241" type="curve" smooth="yes"/>
      <point x="278" y="219"/>
      <point x="275" y="194"/>
      <point x="269" y="168" type="curve" smooth="yes"/>
      <point x="255" y="84"/>
      <point x="226" y="44"/>
      <point x="188" y="44" type="curve" smooth="yes"/>
    </contour>
    <contour>
      <point x="193" y="392" type="line"/>
      <point x="241" y="664" type="line"/>
      <point x="286" y="664" type="line" smooth="yes"/>
      <point x="323" y="664"/>
      <point x="332" y="625"/>
      <point x="330" y="572" type="curve" smooth="yes"/>
      <point x="329" y="556"/>
      <point x="329" y="539"/>
      <point x="326" y="522" type="curve" smooth="yes"/>
      <point x="314" y="450"/>
      <point x="296" y="392"/>
      <point x="245" y="392" type="curve" smooth="yes"/>
    </contour>
    <contour>
      <point x="127" y="-118" type="line"/>
      <point x="179" y="-118" type="line"/>
      <point x="202" y="14" type="line"/>
      <point x="200" y="30" type="line"/>
      <point x="317" y="681" type="line"/>
      <point x="322" y="692" type="line"/>
      <point x="339" y="790" type="line"/>
      <point x="287" y="790" type="line"/>
      <point x="270" y="691" type="line"/>
      <point x="273" y="680" type="line"/>
      <point x="156" y="28" type="line"/>
      <point x="150" y="15" type="line"/>
    </contour>
    <contour>
      <point x="-35" y="0" type="line"/>
      <point x="218" y="0" type="line" smooth="yes"/>
      <point x="346" y="0"/>
      <point x="411" y="95"/>
      <point x="416" y="214" type="curve" smooth="yes"/>
      <point x="420" y="309"/>
      <point x="362" y="365"/>
      <point x="289" y="375" type="curve"/>
      <point x="298" y="362" type="line"/>
      <point x="303" y="378" type="line"/>
      <point x="290" y="368" type="line"/>
      <point x="384" y="374"/>
      <point x="455" y="446"/>
      <point x="460" y="549" type="curve" smooth="yes"/>
      <point x="464" y="646"/>
      <point x="417" y="708"/>
      <point x="314" y="708" type="curve" smooth="yes"/>
      <point x="90" y="708" type="line"/>
      <point x="82" y="668" type="line"/>
      <point x="90" y="668" type="line" smooth="yes"/>
      <point x="98" y="668"/>
      <point x="102" y="662"/>
      <point x="98" y="632" type="curve" smooth="yes"/>
      <point x="-1" y="75" type="line" smooth="yes"/>
      <point x="-6" y="47"/>
      <point x="-12" y="40"/>
      <point x="-19" y="40" type="curve" smooth="yes"/>
      <point x="-28" y="40" type="line"/>
    </contour>
  </outline>
</glyph>
<glyph name="idieresisacute" format="2">
  <advance width="263"/>
  <unicode hex="1E2F"/>
  <outline>
    <contour>
      <point x="107" y="585" type="curve" smooth="yes"/>
      <point x="53" y="585"/>
      <point x="22" y="615"/>
      <point x="24" y="668" type="curve" smooth="yes"/>
      <point x="26" y="721"/>
      <point x="60" y="752"/>
      <point x="114" y="752" type="curve" smooth="yes"/>
      <point x="168" y="752"/>
      <point x="198" y="721"/>
      <point x="196" y="668" type="curve" smooth="yes"/>
      <point x="194" y="616"/>
      <point x="161" y="585"/>
    </contour>
    <contour>
      <point x="294" y="585" type="curve" smooth="yes"/>
      <point x="241" y="585"/>
      <point x="210" y="615"/>
      <point x="212" y="668" type="curve" smooth="yes"/>
      <point x="214" y="721"/>
      <point x="248" y="752"/>
      <point x="301" y="752" type="curve" smooth="yes"/>
      <point x="357" y="752"/>
      <point x="386" y="721"/>
      <point x="384" y="668" type="curve" smooth="yes"/>
      <point x="382" y="616"/>
      <point x="350" y="585"/>
    </contour>
    <contour>
      <point x="219" y="908" type="curve" smooth="yes"/>
      <point x="175" y="783" type="line"/>
      <point x="173" y="766" type="line"/>
      <point x="219" y="766" type="line"/>
      <point x="297" y="826" type="line" smooth="yes"/>
      <point x="333" y="851"/>
      <point x="362" y="885"/>
      <point x="363" y="924" type="curve" smooth="yes"/>
      <point x="365" y="962"/>
      <point x="345" y="989"/>
      <point x="305" y="989" type="curve" smooth="yes"/>
      <point x="255" y="989"/>
      <point x="233" y="953"/>
    </contour>
    <component base="dotlessi"/>
  </outline>
</glyph>
<glyph name="Germandbls" format="2">
  <advance width="694"/>
  <unicode hex="1E9E"/>
  <outline>
    <contour>
      <point x="350" y="215" type="curve"/>
      <point x="308" y="215" type="line"/>
      <point x="269" y="0" type="line"/>
      <point x="308" y="0" type="line"/>
      <point x="347" y="130" type="line"/>
      <point x="333" y="138" type="line"/>
      <point x="336" y="80"/>
      <point x="367" y="-10"/>
      <point x="479" y="-10" type="curve" smooth="yes"/>
      <point x="585" y="-10"/>
      <point x="661" y="76"/>
      <point x="666" y="182" type="curve" smooth="yes"/>
      <point x="671" y="306"/>
      <point x="580" y="383"/>
      <point x="492" y="408" type="curve"/>
      <point x="523" y="342" type="line"/>
      <point x="698" y="657" type="line"/>
      <point x="709" y="710" type="line"/>
      <point x="365" y="710" type="line" smooth="yes"/>
      <point x="213" y="710"/>
      <point x="123" y="647"/>
      <point x="93" y="476" type="curve" smooth="yes"/>
      <point x="21" y="73" type="line" smooth="yes"/>
      <point x="16" y="46"/>
      <point x="5" y="40"/>
      <point x="-13" y="40" type="curve" smooth="yes"/>
      <point x="-21" y="40" type="line"/>
      <point x="-29" y="0" type="line"/>
      <point x="222" y="0" type="line"/>
      <point x="319" y="529" type="line" smooth="yes"/>
      <point x="333" y="620"/>
      <point x="355" y="661"/>
      <point x="414" y="661" type="curve" smooth="yes"/>
      <point x="669" y="661" type="line"/>
      <point x="498" y="675" type="line"/>
      <point x="383" y="437" type="line"/>
      <point x="373" y="388" type="line"/>
      <point x="477" y="330"/>
      <point x="482" y="248"/>
      <point x="478" y="164" type="curve" smooth="yes"/>
      <point x="475" y="91"/>
      <point x="455" y="45"/>
      <point x="431" y="45" type="curve" smooth="yes"/>
      <point x="405" y="45"/>
      <point x="365" y="90"/>
    </contour>
  </outline>
</glyph>
<glyph name="horizontalbar" format="2">
  <advance width="708"/>
  <unicode hex="2015"/>
  <outline>
    <contour>
      <point x="17" y="347" type="line"/>
      <point x="6" y="287" type="line"/>
      <point x="719" y="287" type="line"/>
      <point x="731" y="347" type="line"/>
    </contour>
  </outline>
</glyph>
<glyph name="guilsinglleft" format="2">
  <advance width="229"/>
  <unicode hex="2039"/>
  <outline>
    <contour>
      <point x="133" y="212" type="line"/>
      <point x="257" y="463" type="line"/>
      <point x="221" y="463" type="line"/>
      <point x="34" y="297" type="line"/>
      <point x="25" y="254" type="line"/>
      <point x="149" y="67" type="line"/>
      <point x="186" y="67" type="line"/>
      <point x="150" y="306" type="line"/>
    </contour>
  </outline>
</glyph>
<glyph name="minus.sup" format="2">
  <advance width="276"/>
  <unicode hex="207B"/>
  <outline>
    <contour>
      <point x="284" y="539" type="line"/>
      <point x="92" y="539" type="line"/>
      <point x="86" y="504" type="line"/>
      <point x="277" y="504" type="line"/>
    </contour>
  </outline>
</glyph>
<glyph name="plus.sub" format="2">
  <advance width="276"/>
  <unicode hex="208A"/>
  <outline>
    <contour>
      <point x="118" y="219" type="line"/>
      <point x="69" y="-59" type="line"/>
      <point x="106" y="-59" type="line"/>
      <point x="155" y="219" type="line"/>
    </contour>
    <contour>
      <point x="210" y="98" type="line"/>
      <point x="18" y="98" type="line"/>
      <point x="13" y="62" type="line"/>
      <point x="205" y="62" type="line"/>
    </contour>
  </outline>
</glyph>
<glyph name="won" format="2">
  <advance width="424"/>
  <unicode hex="20A9"/>
  <outline>
    <contour>
      <point x="10" y="0" type="line"/>
      <point x="133" y="0" type="line"/>
      <point x="304" y="668" type="line"/>
      <point x="280" y="673" type="line"/>
      <point x="183" y="0" type="line"/>
      <point x="307" y="0" type="line"/>
      <point x="454" y="627" type="line" smooth="yes"/>
      <point x="463" y="661"/>
      <point x="469" y="670"/>
      <point x="481" y="670" type="curve" smooth="yes"/>
      <point x="486" y="670" type="line"/>
      <point x="493" y="710" type="line"/>
      <point x="414" y="710" type="line"/>
      <point x="407" y="670" type="line"/>
      <point x="409" y="670" type="line" smooth="yes"/>
      <point x="414" y="670"/>
      <point x="423" y="667"/>
      <point x="423" y="659" type="curve"/>
      <point x="268" y="29" type="line"/>
      <point x="284" y="33" type="line"/>
      <point x="376" y="710" type="line"/>
      <point x="267" y="710" type="line"/>
      <point x="93" y="21" type="line"/>
      <point x="109" y="23" type="line"/>
      <point x="203" y="660" type="line"/>
      <point x="203" y="667"/>
      <point x="212" y="670"/>
      <point x="217" y="670" type="curve" smooth="yes"/>
      <point x="221" y="670" type="line"/>
      <point x="229" y="710" type="line"/>
      <point x="88" y="710" type="line"/>
      <point x="80" y="670" type="line"/>
      <point x="86" y="670" type="line" smooth="yes"/>
      <point x="94" y="670"/>
      <point x="96" y="665"/>
      <point x="94" y="641" type="curve" smooth="yes"/>
    </contour>
    <contour>
      <point x="48" y="470" type="line"/>
      <point x="38" y="422" type="line"/>
      <point x="142" y="422" type="line"/>
      <point x="152" y="428" type="line"/>
      <point x="219" y="428" type="line"/>
      <point x="231" y="470" type="line"/>
    </contour>
    <contour>
      <point x="299" y="428" type="line"/>
      <point x="378" y="428" type="line"/>
      <point x="388" y="422" type="line"/>
      <point x="442" y="422" type="line"/>
      <point x="452" y="470" type="line"/>
      <point x="303" y="470" type="line"/>
    </contour>
    <contour>
      <point x="176" y="257" type="line"/>
      <point x="257" y="257" type="line"/>
      <point x="265" y="300" type="line"/>
      <point x="219" y="300" type="line"/>
      <point x="194" y="300" type="line"/>
    </contour>
    <contour>
      <point x="111" y="314" type="line"/>
      <point x="21" y="314" type="line"/>
      <point x="12" y="266" type="line"/>
      <point x="104" y="266" type="line"/>
    </contour>
    <contour>
      <point x="351" y="266" type="line"/>
      <point x="415" y="266" type="line"/>
      <point x="424" y="314" type="line"/>
      <point x="369" y="314" type="line"/>
    </contour>
  </outline>
</glyph>
<glyph name="Euro" format="2">
  <advance width="423"/>
  <unicode hex="20AC"/>
  <outline>
    <contour>
      <point x="349" y="720" type="curve" smooth="yes"/>
      <point x="146" y="720"/>
      <point x="70" y="499"/>
      <point x="60" y="269" type="curve" smooth="yes"/>
      <point x="52" y="91"/>
      <point x="107" y="-10"/>
      <point x="236" y="-10" type="curve" smooth="yes"/>
      <point x="328" y="-10"/>
      <point x="375" y="57"/>
      <point x="414" y="156" type="curve"/>
      <point x="382" y="180" type="line"/>
      <point x="354" y="105"/>
      <point x="317" y="46"/>
      <point x="277" y="46" type="curve" smooth="yes"/>
      <point x="250" y="46"/>
      <point x="239" y="82"/>
      <point x="244" y="214" type="curve" smooth="yes"/>
      <point x="246" y="260"/>
      <point x="253" y="314"/>
      <point x="275" y="416" type="curve" smooth="yes"/>
      <point x="310" y="595"/>
      <point x="321" y="668"/>
      <point x="362" y="668" type="curve" smooth="yes"/>
      <point x="372" y="668"/>
      <point x="379" y="656"/>
      <point x="382" y="639" type="curve"/>
      <point x="393" y="660"/>
      <point x="384" y="677"/>
      <point x="367" y="679" type="curve"/>
      <point x="342" y="549" type="line"/>
      <point x="476" y="549" type="line"/>
      <point x="498" y="665" type="line"/>
      <point x="483" y="684"/>
      <point x="437" y="720"/>
    </contour>
    <contour>
      <point x="52" y="438" type="line"/>
      <point x="43" y="389" type="line"/>
      <point x="369" y="389" type="line"/>
      <point x="378" y="438" type="line"/>
    </contour>
    <contour>
      <point x="31" y="308" type="line"/>
      <point x="21" y="259" type="line"/>
      <point x="320" y="259" type="line"/>
      <point x="329" y="308" type="line"/>
    </contour>
  </outline>
</glyph>
<glyph name="kip" format="2">
  <advance width="423"/>
  <unicode hex="20AD"/>
  <outline>
    <contour>
      <point x="24" y="396" type="line"/>
      <point x="16" y="348" type="line"/>
      <point x="435" y="348" type="line"/>
      <point x="444" y="396" type="line"/>
    </contour>
    <contour>
      <point x="-39" y="0" type="line"/>
      <point x="163" y="0" type="line"/>
      <point x="170" y="40" type="line"/>
      <point x="169" y="40" type="line" smooth="yes"/>
      <point x="165" y="40"/>
      <point x="166" y="43"/>
      <point x="165" y="46" type="curve" smooth="yes"/>
      <point x="273" y="660" type="line" smooth="yes"/>
      <point x="274" y="667"/>
      <point x="280" y="670"/>
      <point x="283" y="670" type="curve" smooth="yes"/>
      <point x="292" y="670" type="line"/>
      <point x="299" y="710" type="line"/>
      <point x="86" y="710" type="line"/>
      <point x="79" y="670" type="line"/>
      <point x="82" y="670" type="line" smooth="yes"/>
      <point x="89" y="670"/>
      <point x="94" y="663"/>
      <point x="91" y="642" type="curve" smooth="yes"/>
      <point x="-11" y="68" type="line" smooth="yes"/>
      <point x="-14" y="47"/>
      <point x="-21" y="40"/>
      <point x="-28" y="40" type="curve" smooth="yes"/>
      <point x="-31" y="40" type="line"/>
    </contour>
    <contour>
      <point x="178" y="0" type="line"/>
      <point x="377" y="0" type="line"/>
      <point x="385" y="40" type="line"/>
      <point x="385" y="40" type="line" smooth="yes"/>
      <point x="377" y="40"/>
      <point x="372" y="45"/>
      <point x="375" y="66" type="curve" smooth="yes"/>
      <point x="404" y="540" type="line"/>
      <point x="328" y="430" type="line"/>
      <point x="430" y="632" type="line" smooth="yes"/>
      <point x="450" y="662"/>
      <point x="462" y="670"/>
      <point x="476" y="670" type="curve" smooth="yes"/>
      <point x="479" y="670" type="line"/>
      <point x="487" y="710" type="line"/>
      <point x="397" y="710" type="line"/>
      <point x="390" y="670" type="line"/>
      <point x="394" y="670" type="line" smooth="yes"/>
      <point x="404" y="670"/>
      <point x="404" y="667"/>
      <point x="404" y="662" type="curve"/>
      <point x="222" y="369" type="line"/>
      <point x="231" y="360" type="line"/>
      <point x="198" y="46" type="line"/>
      <point x="198" y="43"/>
      <point x="191" y="40"/>
      <point x="187" y="40" type="curve" smooth="yes"/>
      <point x="186" y="40" type="line"/>
    </contour>
  </outline>
</glyph>
<glyph name="cedi" format="2">
  <advance width="423"/>
  <unicode hex="20B5"/>
  <outline>
    <contour>
      <point x="326" y="670" type="curve" smooth="yes"/>
      <point x="367" y="670"/>
      <point x="384" y="650"/>
      <point x="395" y="617" type="curve"/>
      <point x="415" y="625"/>
      <point x="414" y="662"/>
      <point x="384" y="663" type="curve"/>
      <point x="360" y="528" type="line"/>
      <point x="466" y="528" type="line"/>
      <point x="486" y="646" type="line"/>
      <point x="473" y="665"/>
      <point x="423" y="716"/>
      <point x="318" y="716" type="curve" smooth="yes"/>
      <point x="137" y="716"/>
      <point x="32" y="507"/>
      <point x="23" y="307" type="curve" smooth="yes"/>
      <point x="15" y="110"/>
      <point x="96" y="-6"/>
      <point x="223" y="-6" type="curve" smooth="yes"/>
      <point x="315" y="-6"/>
      <point x="377" y="81"/>
      <point x="414" y="214" type="curve"/>
      <point x="377" y="236" type="line"/>
      <point x="347" y="117"/>
      <point x="299" y="48"/>
      <point x="242" y="48" type="curve" smooth="yes"/>
      <point x="196" y="48"/>
      <point x="177" y="102"/>
      <point x="183" y="229" type="curve" smooth="yes"/>
      <point x="186" y="291"/>
      <point x="193" y="352"/>
      <point x="210" y="428" type="curve" smooth="yes"/>
      <point x="232" y="556"/>
      <point x="256" y="670"/>
    </contour>
    <contour>
      <point x="319" y="790" type="line"/>
      <point x="304" y="699" type="line"/>
      <point x="304" y="681" type="line"/>
      <point x="186" y="28" type="line"/>
      <point x="178" y="7" type="line"/>
      <point x="159" y="-120" type="line"/>
      <point x="211" y="-120" type="line"/>
      <point x="231" y="6" type="line"/>
      <point x="234" y="30" type="line"/>
      <point x="350" y="682" type="line"/>
      <point x="358" y="700" type="line"/>
      <point x="372" y="790" type="line"/>
    </contour>
  </outline>
</glyph>
<glyph name="manat" format="2">
  <advance width="423"/>
  <unicode hex="20BC"/>
  <outline>
    <contour>
      <point x="278" y="720" type="line"/>
      <point x="183" y="158" type="line"/>
      <point x="231" y="158" type="line"/>
      <point x="326" y="720" type="line"/>
    </contour>
    <contour>
      <point x="278" y="589" type="curve" smooth="yes"/>
      <point x="138" y="589"/>
      <point x="29" y="349"/>
      <point x="-28" y="0" type="curve"/>
      <point x="132" y="0" type="line"/>
      <point x="192" y="444"/>
      <point x="216" y="543"/>
      <point x="268" y="543" type="curve" smooth="yes"/>
      <point x="327" y="543"/>
      <point x="324" y="436"/>
      <point x="226" y="0" type="curve"/>
      <point x="387" y="0" type="line"/>
      <point x="445" y="346"/>
      <point x="409" y="589"/>
    </contour>
  </outline>
</glyph>
<glyph name="ruble" format="2">
  <advance width="423"/>
  <unicode hex="20BD"/>
  <outline>
    <contour>
      <point x="282" y="192" type="line"/>
      <point x="4" y="192" type="line"/>
      <point x="13" y="240" type="line"/>
      <point x="292" y="240" type="line"/>
    </contour>
    <contour>
      <point x="32" y="357" type="line"/>
      <point x="234" y="357" type="line" smooth="yes"/>
      <point x="251" y="357"/>
      <point x="267" y="388"/>
      <point x="288" y="497" type="curve" smooth="yes"/>
      <point x="295" y="531"/>
      <point x="299" y="558"/>
      <point x="300" y="579" type="curve" smooth="yes"/>
      <point x="303" y="641"/>
      <point x="294" y="661"/>
      <point x="289" y="661" type="curve" smooth="yes"/>
      <point x="289" y="661" type="line"/>
      <point x="182" y="53" type="line"/>
      <point x="181" y="43"/>
      <point x="194" y="40"/>
      <point x="205" y="40" type="curve" smooth="yes"/>
      <point x="211" y="40" type="line"/>
      <point x="204" y="0" type="line"/>
      <point x="-30" y="0" type="line"/>
      <point x="-23" y="40" type="line"/>
      <point x="-18" y="40" type="line" smooth="yes"/>
      <point x="-7" y="40"/>
      <point x="3" y="47"/>
      <point x="8" y="75" type="curve" smooth="yes"/>
      <point x="105" y="635" type="line" smooth="yes"/>
      <point x="110" y="663"/>
      <point x="105" y="670"/>
      <point x="92" y="670" type="curve" smooth="yes"/>
      <point x="87" y="670" type="line"/>
      <point x="95" y="710" type="line"/>
      <point x="287" y="710" type="line" smooth="yes"/>
      <point x="407" y="710"/>
      <point x="469" y="650"/>
      <point x="464" y="534" type="curve" smooth="yes"/>
      <point x="459" y="405"/>
      <point x="378" y="309"/>
      <point x="248" y="309" type="curve" smooth="yes"/>
      <point x="22" y="309" type="line"/>
    </contour>
  </outline>
</glyph>
<glyph name="partialdiff" format="2">
  <advance width="453"/>
  <unicode hex="2202"/>
  <outline>
    <contour>
      <point x="201" y="-10" type="curve" smooth="yes"/>
      <point x="354" y="-10"/>
      <point x="449" y="164"/>
      <point x="460" y="401" type="curve" smooth="yes"/>
      <point x="470" y="635"/>
      <point x="377" y="750"/>
      <point x="239" y="750" type="curve" smooth="yes"/>
      <point x="185" y="750"/>
      <point x="135" y="731"/>
      <point x="92" y="704" type="curve"/>
      <point x="106" y="661" type="line"/>
      <point x="136" y="682"/>
      <point x="163" y="694"/>
      <point x="191" y="694" type="curve" smooth="yes"/>
      <point x="256" y="694"/>
      <point x="281" y="633"/>
      <point x="274" y="470" type="curve" smooth="yes"/>
      <point x="262" y="215"/>
      <point x="234" y="36"/>
      <point x="212" y="36" type="curve" smooth="yes"/>
      <point x="198" y="36"/>
      <point x="197" y="72"/>
      <point x="203" y="201" type="curve" smooth="yes"/>
      <point x="210" y="364"/>
      <point x="232" y="486"/>
      <point x="277" y="486" type="curve" smooth="yes"/>
      <point x="293" y="486"/>
      <point x="315" y="464"/>
      <point x="325" y="433" type="curve"/>
      <point x="328" y="494" type="line"/>
      <point x="323" y="507"/>
      <point x="307" y="533"/>
      <point x="255" y="533" type="curve" smooth="yes"/>
      <point x="127" y="533"/>
      <point x="22" y="406"/>
      <point x="14" y="231" type="curve" smooth="yes"/>
      <point x="8" y="93"/>
      <point x="63" y="-10"/>
    </contour>
  </outline>
</glyph>
<glyph name="infinity" format="2">
  <advance width="586"/>
  <unicode hex="221E"/>
  <outline>
    <contour>
      <point x="248" y="328" type="curve" smooth="yes"/>
      <point x="241" y="415"/>
      <point x="218" y="455"/>
      <point x="173" y="455" type="curve" smooth="yes"/>
      <point x="122" y="455"/>
      <point x="98" y="404"/>
      <point x="95" y="339" type="curve" smooth="yes"/>
      <point x="92" y="269"/>
      <point x="122" y="228"/>
      <point x="167" y="228" type="curve" smooth="yes"/>
      <point x="219" y="228"/>
      <point x="257" y="279"/>
      <point x="277" y="332" type="curve"/>
      <point x="303" y="326" type="line"/>
      <point x="247" y="193"/>
      <point x="217" y="138"/>
      <point x="157" y="138" type="curve"/>
      <point x="85" y="138"/>
      <point x="45" y="210"/>
      <point x="50" y="321" type="curve" smooth="yes"/>
      <point x="56" y="461"/>
      <point x="129" y="556"/>
      <point x="225" y="556" type="curve" smooth="yes"/>
      <point x="326" y="556"/>
      <point x="356" y="463"/>
      <point x="372" y="358" type="curve" smooth="yes"/>
      <point x="382" y="268"/>
      <point x="408" y="239"/>
      <point x="450" y="239" type="curve" smooth="yes"/>
      <point x="498" y="239"/>
      <point x="523" y="294"/>
      <point x="526" y="361" type="curve" smooth="yes"/>
      <point x="529" y="426"/>
      <point x="507" y="465"/>
      <point x="455" y="465" type="curve" smooth="yes"/>
      <point x="399" y="465"/>
      <point x="360" y="412"/>
      <point x="340" y="358" type="curve"/>
      <point x="314" y="363" type="line"/>
      <point x="356" y="491"/>
      <point x="402" y="556"/>
      <point x="467" y="556" type="curve" smooth="yes"/>
      <point x="535" y="556"/>
      <point x="575" y="482"/>
      <point x="571" y="380" type="curve" smooth="yes"/>
      <point x="564" y="231"/>
      <point x="487" y="138"/>
      <point x="402" y="138" type="curve" smooth="yes"/>
      <point x="300" y="138"/>
      <point x="264" y="206"/>
    </contour>
  </outline>
</glyph>
<glyph name="approxequal" format="2">
  <advance width="423"/>
  <unicode hex="2248"/>
  <outline>
    <contour>
      <point x="299" y="214" type="curve" smooth="yes"/>
      <point x="257" y="214"/>
      <point x="208" y="290"/>
      <point x="158" y="290" type="curve" smooth="yes"/>
      <point x="86" y="290"/>
      <point x="47" y="214"/>
      <point x="19" y="115" type="curve"/>
      <point x="58" y="104" type="line"/>
      <point x="66" y="138"/>
      <point x="81" y="175"/>
      <point x="116" y="175" type="curve" smooth="yes"/>
      <point x="153" y="175"/>
      <point x="208" y="99"/>
      <point x="260" y="99" type="curve" smooth="yes"/>
      <point x="324" y="99"/>
      <point x="369" y="176"/>
      <point x="400" y="278" type="curve"/>
      <point x="363" y="289" type="line"/>
      <point x="352" y="253"/>
      <point x="334" y="214"/>
    </contour>
    <contour>
      <point x="342" y="453" type="curve" smooth="yes"/>
      <point x="301" y="453"/>
      <point x="250" y="529"/>
      <point x="200" y="529" type="curve" smooth="yes"/>
      <point x="128" y="529"/>
      <point x="90" y="453"/>
      <point x="62" y="354" type="curve"/>
      <point x="100" y="343" type="line"/>
      <point x="109" y="377"/>
      <point x="123" y="414"/>
      <point x="158" y="414" type="curve" smooth="yes"/>
      <point x="196" y="414"/>
      <point x="251" y="338"/>
      <point x="304" y="338" type="curve" smooth="yes"/>
      <point x="368" y="338"/>
      <point x="411" y="415"/>
      <point x="445" y="517" type="curve"/>
      <point x="406" y="528" type="line"/>
      <point x="396" y="492"/>
      <point x="377" y="453"/>
    </contour>
  </outline>
</glyph>
<glyph name="notequal" format="2">
  <advance width="423"/>
  <unicode hex="2260"/>
  <outline>
    <contour>
      <point x="359" y="594" type="line"/>
      <point x="62" y="82" type="line"/>
      <point x="109" y="82" type="line"/>
      <point x="406" y="594" type="line"/>
    </contour>
    <component base="equal"/>
  </outline>
</glyph>
<glyph name="lozenge" format="2">
  <advance width="470"/>
  <unicode hex="25CA"/>
  <outline>
    <contour>
      <point x="218" y="23" type="line"/>
      <point x="95" y="365" type="line"/>
      <point x="97" y="344" type="line"/>
      <point x="342" y="685" type="line"/>
      <point x="296" y="687" type="line"/>
      <point x="422" y="346" type="line"/>
      <point x="419" y="368" type="line"/>
      <point x="173" y="25" type="line"/>
    </contour>
    <contour>
      <point x="173" y="0" type="line"/>
      <point x="217" y="0" type="line"/>
      <point x="459" y="334" type="line"/>
      <point x="466" y="376" type="line"/>
      <point x="343" y="710" type="line"/>
      <point x="298" y="710" type="line"/>
      <point x="57" y="376" type="line"/>
      <point x="50" y="334" type="line"/>
    </contour>
  </outline>
</glyph>
<glyph name="uni27F7" format="2">
  <advance width="981"/>
  <unicode hex="27F7"/>
  <outline>
    <contour>
      <point x="777" y="329" type="line"/>
      <point x="706" y="192" type="line"/>
      <point x="713" y="179" type="line"/>
      <point x="955" y="346" type="line"/>
      <point x="956" y="360" type="line"/>
      <point x="728" y="527" type="line"/>
      <point x="720" y="514" type="line"/>
      <point x="779" y="377" type="line"/>
      <point x="233" y="377" type="line"/>
      <point x="304" y="514" type="line"/>
      <point x="298" y="527" type="line"/>
      <point x="58" y="360" type="line"/>
      <point x="57" y="346" type="line"/>
      <point x="283" y="179" type="line"/>
      <point x="290" y="192" type="line"/>
      <point x="231" y="329" type="line"/>
    </contour>
  </outline>
</glyph>
<glyph name="arrowleft" format="2">
  <advance width="558"/>
  <unicode hex="8592"/>
  <outline>
    <contour>
      <point x="340" y="560" type="line"/>
      <point x="58" y="360" type="line"/>
      <point x="57" y="346" type="line"/>
      <point x="322" y="146" type="line"/>
      <point x="331" y="159" type="line"/>
      <point x="235" y="329" type="line"/>
      <point x="531" y="329" type="line"/>
      <point x="533" y="377" type="line"/>
      <point x="237" y="377" type="line"/>
      <point x="348" y="547" type="line"/>
    </contour>
  </outline>
</glyph>
<glyph name="zero.den" format="2">
  <advance width="291"/>
  <unicode hex="E402"/>
  <outline>
    <contour>
      <point x="156" y="164" type="curve" smooth="yes"/>
      <point x="129" y="54"/>
      <point x="124" y="32"/>
      <point x="118" y="32" type="curve" smooth="yes"/>
      <point x="115" y="32"/>
      <point x="114" y="44"/>
      <point x="115" y="68" type="curve" smooth="yes"/>
      <point x="116" y="84"/>
      <point x="121" y="129"/>
      <point x="140" y="204" type="curve" smooth="yes"/>
      <point x="167" y="314"/>
      <point x="172" y="337"/>
      <point x="178" y="337" type="curve" smooth="yes"/>
      <point x="181" y="337"/>
      <point x="182" y="325"/>
      <point x="181" y="301" type="curve" smooth="yes"/>
      <point x="180" y="284"/>
      <point x="174" y="239"/>
    </contour>
    <contour>
      <point x="287" y="215" type="curve" smooth="yes"/>
      <point x="291" y="306"/>
      <point x="251" y="377"/>
      <point x="172" y="377" type="curve" smooth="yes"/>
      <point x="57" y="377"/>
      <point x="12" y="247"/>
      <point x="8" y="155" type="curve" smooth="yes"/>
      <point x="4" y="64"/>
      <point x="44" y="-7"/>
      <point x="127" y="-7" type="curve" smooth="yes"/>
      <point x="239" y="-7"/>
      <point x="283" y="123"/>
    </contour>
  </outline>
</glyph>
<glyph name="two.den" format="2">
  <advance width="286"/>
  <unicode hex="E404"/>
  <outline>
    <contour>
      <point x="173" y="93" type="line" smooth="yes"/>
      <point x="208" y="93"/>
      <point x="222" y="99"/>
      <point x="230" y="122" type="curve" smooth="yes"/>
      <point x="240" y="157" type="line"/>
      <point x="269" y="157" type="line"/>
      <point x="240" y="0" type="line"/>
      <point x="-13" y="0" type="line"/>
      <point x="3" y="80" type="line"/>
      <point x="120" y="153"/>
      <point x="150" y="212"/>
      <point x="154" y="293" type="curve" smooth="yes"/>
      <point x="155" y="323"/>
      <point x="152" y="339"/>
      <point x="138" y="339" type="curve" smooth="yes"/>
      <point x="130" y="339"/>
      <point x="116" y="330"/>
      <point x="112" y="316" type="curve"/>
      <point x="104" y="330"/>
      <point x="116" y="349"/>
      <point x="138" y="350" type="curve"/>
      <point x="120" y="258" type="line"/>
      <point x="31" y="258" type="line"/>
      <point x="49" y="338" type="line"/>
      <point x="71" y="356"/>
      <point x="113" y="376"/>
      <point x="161" y="376" type="curve" smooth="yes"/>
      <point x="236" y="376"/>
      <point x="280" y="342"/>
      <point x="277" y="275" type="curve" smooth="yes"/>
      <point x="273" y="179"/>
      <point x="174" y="128"/>
      <point x="51" y="82" type="curve"/>
      <point x="47" y="87"/>
      <point x="51" y="90"/>
      <point x="52" y="93" type="curve"/>
    </contour>
  </outline>
</glyph>
<glyph name="six.den" format="2">
  <advance width="300"/>
  <unicode hex="E408"/>
  <outline>
    <contour>
      <point x="138" y="-6" type="curve" smooth="yes"/>
      <point x="58" y="-6"/>
      <point x="9" y="44"/>
      <point x="13" y="146" type="curve" smooth="yes"/>
      <point x="20" y="300"/>
      <point x="153" y="381"/>
      <point x="284" y="382" type="curve"/>
      <point x="284" y="346" type="line"/>
      <point x="143" y="338"/>
      <point x="133" y="172"/>
      <point x="129" y="100" type="curve" smooth="yes"/>
      <point x="127" y="53"/>
      <point x="127" y="30"/>
      <point x="135" y="30" type="curve" smooth="yes"/>
      <point x="151" y="30"/>
      <point x="162" y="106"/>
      <point x="164" y="157" type="curve" smooth="yes"/>
      <point x="165" y="184"/>
      <point x="161" y="197"/>
      <point x="154" y="197" type="curve" smooth="yes"/>
      <point x="147" y="197"/>
      <point x="137" y="181"/>
      <point x="131" y="159" type="curve"/>
      <point x="133" y="187" type="line"/>
      <point x="142" y="214"/>
      <point x="175" y="251"/>
      <point x="220" y="251" type="curve" smooth="yes"/>
      <point x="270" y="251"/>
      <point x="291" y="212"/>
      <point x="289" y="149" type="curve" smooth="yes"/>
      <point x="285" y="60"/>
      <point x="221" y="-6"/>
    </contour>
  </outline>
</glyph>
<glyph name="seven.den" format="2">
  <advance width="282"/>
  <unicode hex="E409"/>
  <outline>
    <contour>
      <point x="114" y="278" type="line" smooth="yes"/>
      <point x="89" y="278"/>
      <point x="82" y="274"/>
      <point x="75" y="251" type="curve" smooth="yes"/>
      <point x="61" y="208" type="line"/>
      <point x="32" y="208" type="line"/>
      <point x="62" y="371" type="line"/>
      <point x="301" y="371" type="line"/>
      <point x="287" y="302" type="line"/>
      <point x="227" y="224"/>
      <point x="186" y="156"/>
      <point x="169" y="0" type="curve"/>
      <point x="46" y="0" type="line"/>
      <point x="89" y="152"/>
      <point x="202" y="250"/>
      <point x="256" y="296" type="curve"/>
      <point x="252" y="278" type="line"/>
    </contour>
  </outline>
</glyph>
<glyph name="nine.den" format="2">
  <advance width="300"/>
  <unicode hex="E40B"/>
  <outline>
    <contour>
      <point x="175" y="377" type="curve" smooth="yes"/>
      <point x="255" y="377"/>
      <point x="299" y="327"/>
      <point x="295" y="235" type="curve" smooth="yes"/>
      <point x="288" y="65"/>
      <point x="157" y="-11"/>
      <point x="24" y="-12" type="curve"/>
      <point x="24" y="24" type="line"/>
      <point x="173" y="40"/>
      <point x="176" y="206"/>
      <point x="179" y="286" type="curve" smooth="yes"/>
      <point x="181" y="321"/>
      <point x="179" y="340"/>
      <point x="173" y="340" type="curve" smooth="yes"/>
      <point x="160" y="340"/>
      <point x="149" y="284"/>
      <point x="147" y="230" type="curve" smooth="yes"/>
      <point x="146" y="195"/>
      <point x="150" y="184"/>
      <point x="156" y="184" type="curve" smooth="yes"/>
      <point x="166" y="184"/>
      <point x="174" y="201"/>
      <point x="181" y="223" type="curve"/>
      <point x="178" y="199" type="line"/>
      <point x="166" y="168"/>
      <point x="137" y="131"/>
      <point x="94" y="131" type="curve" smooth="yes"/>
      <point x="45" y="131"/>
      <point x="18" y="174"/>
      <point x="20" y="235" type="curve" smooth="yes"/>
      <point x="24" y="320"/>
      <point x="81" y="377"/>
    </contour>
  </outline>
</glyph>
<glyph name="F.alt" format="2">
  <advance width="475"/>
  <outline>
    <contour>
      <point x="337" y="662" type="line"/>
      <point x="418" y="662" type="line" smooth="yes"/>
      <point x="451" y="662"/>
      <point x="472" y="652"/>
      <point x="472" y="616" type="curve" smooth="yes"/>
      <point x="472" y="522" type="line"/>
      <point x="507" y="522" type="line"/>
      <point x="542" y="710" type="line"/>
      <point x="97" y="710" type="line"/>
      <point x="88" y="670" type="line"/>
      <point x="96" y="670" type="line" smooth="yes"/>
      <point x="112" y="670"/>
      <point x="123" y="663"/>
      <point x="119" y="634" type="curve" smooth="yes"/>
      <point x="20" y="75" type="line" smooth="yes"/>
      <point x="15" y="47"/>
      <point x="4" y="40"/>
      <point x="-14" y="40" type="curve" smooth="yes"/>
      <point x="-21" y="40" type="line"/>
      <point x="-30" y="0" type="line"/>
      <point x="274" y="0" type="line"/>
      <point x="282" y="40" type="line"/>
      <point x="269" y="40" type="line" smooth="yes"/>
      <point x="251" y="40"/>
      <point x="230" y="41"/>
      <point x="235" y="74" type="curve" smooth="yes"/>
    </contour>
    <contour>
      <point x="250" y="381" type="line"/>
      <point x="242" y="334" type="line"/>
      <point x="340" y="334" type="line" smooth="yes"/>
      <point x="363" y="334"/>
      <point x="365" y="313"/>
      <point x="360" y="286" type="curve" smooth="yes"/>
      <point x="359" y="275" type="line"/>
      <point x="399" y="275" type="line"/>
      <point x="427" y="441" type="line"/>
      <point x="386" y="441" type="line"/>
      <point x="385" y="431" type="line" smooth="yes"/>
      <point x="379" y="403"/>
      <point x="370" y="381"/>
      <point x="347" y="381" type="curve" smooth="yes"/>
    </contour>
  </outline>
</glyph>
<glyph name="acute.pl" format="2">
  <advance width="378"/>
  <anchor x="180" y="489" name="_top"/>
  <outline>
    <contour>
      <point x="151" y="682" type="curve" smooth="yes"/>
      <point x="126" y="574" type="line"/>
      <point x="126" y="566" type="line"/>
      <point x="173" y="566" type="line"/>
      <point x="215" y="620" type="line" smooth="yes"/>
      <point x="269" y="670"/>
      <point x="285" y="698"/>
      <point x="287" y="737" type="curve" smooth="yes"/>
      <point x="288" y="766"/>
      <point x="273" y="793"/>
      <point x="237" y="793" type="curve" smooth="yes"/>
      <point x="190" y="793"/>
      <point x="169" y="755"/>
    </contour>
  </outline>
</glyph>
<glyph name="acute.uc" format="2">
  <advance width="378"/>
  <anchor x="165" y="727" name="_top"/>
  <outline>
    <contour>
      <point x="206" y="863" type="curve" smooth="yes"/>
      <point x="168" y="779" type="line"/>
      <point x="166" y="758" type="line"/>
      <point x="208" y="758" type="line"/>
      <point x="281" y="790" type="line" smooth="yes"/>
      <point x="336" y="810"/>
      <point x="356" y="841"/>
      <point x="357" y="881" type="curve" smooth="yes"/>
      <point x="359" y="918"/>
      <point x="331" y="946"/>
      <point x="297" y="946" type="curve" smooth="yes"/>
      <point x="253" y="946"/>
      <point x="237" y="916"/>
    </contour>
  </outline>
</glyph>
<glyph name="backslash.uc" format="2">
  <advance width="330"/>
  <outline>
    <contour>
      <point x="73" y="742" type="line"/>
      <point x="286" y="-35" type="line"/>
      <point x="239" y="-35" type="line"/>
      <point x="26" y="742" type="line"/>
    </contour>
  </outline>
</glyph>
<glyph name="bar.uc" format="2">
  <advance width="156"/>
  <outline>
    <contour>
      <point x="91" y="742" type="line"/>
      <point x="57" y="-35" type="line"/>
      <point x="103" y="-35" type="line"/>
      <point x="137" y="742" type="line"/>
    </contour>
  </outline>
</glyph>
<glyph name="blackdiamond" format="2">
  <advance width="469"/>
  <outline>
    <contour>
      <point x="446" y="313" type="line"/>
      <point x="260" y="574" type="line"/>
      <point x="52" y="313" type="line"/>
      <point x="237" y="52" type="line"/>
    </contour>
  </outline>
</glyph>
<glyph name="blackdownpointingtriangle" format="2">
  <advance width="487"/>
  <outline>
    <contour>
      <point x="62" y="464" type="line"/>
      <point x="247" y="91" type="line"/>
      <point x="466" y="464" type="line"/>
    </contour>
  </outline>
</glyph>
<glyph name="braceleft.uc" format="2">
  <advance width="271"/>
  <outline>
    <contour>
      <point x="21" y="56" type="curve" smooth="yes"/>
      <point x="18" y="-19"/>
      <point x="74" y="-61"/>
      <point x="162" y="-61" type="curve" smooth="yes"/>
      <point x="176" y="-61"/>
      <point x="189" y="-60"/>
      <point x="204" y="-60" type="curve"/>
      <point x="210" y="-28" type="line"/>
      <point x="210" y="-28" type="line"/>
      <point x="149" y="-26"/>
      <point x="133" y="-1"/>
      <point x="135" y="51" type="curve" smooth="yes"/>
      <point x="139" y="126"/>
      <point x="204" y="230"/>
      <point x="206" y="279" type="curve" smooth="yes"/>
      <point x="207" y="309"/>
      <point x="199" y="326"/>
      <point x="94" y="356" type="curve"/>
      <point x="94" y="359" type="line"/>
      <point x="216" y="371"/>
      <point x="233" y="392"/>
      <point x="235" y="440" type="curve" smooth="yes"/>
      <point x="237" y="480"/>
      <point x="226" y="561"/>
      <point x="229" y="624" type="curve" smooth="yes"/>
      <point x="233" y="701"/>
      <point x="275" y="717"/>
      <point x="313" y="718" type="curve" smooth="yes"/>
      <point x="319" y="718"/>
      <point x="327" y="718"/>
      <point x="332" y="718" type="curve"/>
      <point x="333" y="752" type="line"/>
      <point x="312" y="755"/>
      <point x="291" y="756"/>
      <point x="271" y="756" type="curve" smooth="yes"/>
      <point x="185" y="755"/>
      <point x="117" y="718"/>
      <point x="113" y="618" type="curve" smooth="yes"/>
      <point x="110" y="560"/>
      <point x="136" y="498"/>
      <point x="165" y="404" type="curve"/>
      <point x="169" y="421" type="line"/>
      <point x="33" y="378" type="line"/>
      <point x="26" y="346" type="line"/>
      <point x="146" y="287" type="line"/>
      <point x="149" y="300" type="line"/>
      <point x="71" y="197"/>
      <point x="24" y="122"/>
    </contour>
  </outline>
</glyph>
<glyph name="bracketleft.uc" format="2">
  <advance width="237"/>
  <outline>
    <contour>
      <point x="-17" y="-40" type="line"/>
      <point x="175" y="-40" type="line"/>
      <point x="183" y="-1" type="line"/>
      <point x="111" y="-1" type="line"/>
      <point x="234" y="714" type="line"/>
      <point x="306" y="714" type="line"/>
      <point x="315" y="754" type="line"/>
      <point x="122" y="754" type="line"/>
    </contour>
  </outline>
</glyph>
<glyph name="breve_hook" format="2">
  <advance width="386"/>
  <anchor x="210" y="525" name="_top"/>
  <outline>
    <contour>
      <point x="133" y="841" type="line"/>
      <point x="142" y="884"/>
      <point x="174" y="927"/>
      <point x="249" y="927" type="curve" smooth="yes"/>
      <point x="316" y="927"/>
      <point x="346" y="899"/>
      <point x="345" y="859" type="curve" smooth="yes"/>
      <point x="342" y="806"/>
      <point x="293" y="779"/>
      <point x="234" y="771" type="curve"/>
      <point x="252" y="786" type="line"/>
      <point x="245" y="744" type="line"/>
      <point x="200" y="744" type="line"/>
      <point x="211" y="798" type="line"/>
      <point x="241" y="807"/>
      <point x="252" y="828"/>
      <point x="253" y="851" type="curve" smooth="yes"/>
      <point x="254" y="868"/>
      <point x="249" y="880"/>
      <point x="235" y="880" type="curve" smooth="yes"/>
      <point x="219" y="880"/>
      <point x="208" y="866"/>
      <point x="204" y="841" type="curve"/>
    </contour>
    <contour>
      <point x="109" y="757" type="curve"/>
      <point x="154" y="757" type="line"/>
      <point x="150" y="708"/>
      <point x="171" y="689"/>
      <point x="226" y="689" type="curve" smooth="yes"/>
      <point x="279" y="689"/>
      <point x="297" y="708"/>
      <point x="307" y="757" type="curve"/>
      <point x="352" y="757" type="line"/>
      <point x="338" y="629"/>
      <point x="288" y="577"/>
      <point x="211" y="577" type="curve" smooth="yes"/>
      <point x="147" y="577"/>
      <point x="100" y="623"/>
      <point x="103" y="718" type="curve" smooth="yes"/>
      <point x="104" y="731"/>
      <point x="105" y="743"/>
    </contour>
  </outline>
</glyph>
<glyph name="breve_tilde" format="2">
  <advance width="378"/>
  <anchor x="205" y="524" name="_top"/>
  <outline>
    <contour>
      <point x="285" y="775" type="curve" smooth="yes"/>
      <point x="328" y="775"/>
      <point x="353" y="820"/>
      <point x="377" y="906" type="curve"/>
      <point x="346" y="921" type="line"/>
      <point x="334" y="884"/>
      <point x="325" y="873"/>
      <point x="308" y="873" type="curve" smooth="yes"/>
      <point x="278" y="873"/>
      <point x="250" y="924"/>
      <point x="212" y="924" type="curve" smooth="yes"/>
      <point x="164" y="924"/>
      <point x="138" y="875"/>
      <point x="121" y="793" type="curve"/>
      <point x="151" y="780" type="line"/>
      <point x="161" y="814"/>
      <point x="171" y="826"/>
      <point x="186" y="826" type="curve" smooth="yes"/>
      <point x="215" y="826"/>
      <point x="245" y="775"/>
    </contour>
    <contour>
      <point x="211" y="572" type="curve" smooth="yes"/>
      <point x="285" y="572"/>
      <point x="333" y="620"/>
      <point x="346" y="739" type="curve"/>
      <point x="302" y="739" type="line"/>
      <point x="294" y="696"/>
      <point x="276" y="680"/>
      <point x="225" y="680" type="curve" smooth="yes"/>
      <point x="173" y="680"/>
      <point x="152" y="696"/>
      <point x="157" y="739" type="curve"/>
      <point x="112" y="739" type="line"/>
      <point x="111" y="726"/>
      <point x="109" y="716"/>
      <point x="109" y="705" type="curve" smooth="yes"/>
      <point x="105" y="616"/>
      <point x="150" y="572"/>
    </contour>
  </outline>
</glyph>
<glyph name="cent.altprop" format="2">
  <advance width="428"/>
  <outline>
    <contour>
      <point x="158" y="-126" type="line"/>
      <point x="206" y="-126" type="line"/>
      <point x="230" y="2" type="line"/>
      <point x="182" y="3" type="line"/>
    </contour>
    <contour>
      <point x="271" y="510" type="line"/>
      <point x="319" y="512" type="line"/>
      <point x="342" y="631" type="line"/>
      <point x="294" y="631" type="line"/>
    </contour>
    <contour>
      <point x="316" y="486" type="curve" smooth="yes"/>
      <point x="329" y="486"/>
      <point x="338" y="480"/>
      <point x="341" y="456" type="curve"/>
      <point x="355" y="476"/>
      <point x="333" y="486"/>
      <point x="327" y="488" type="curve"/>
      <point x="299" y="350" type="line"/>
      <point x="427" y="350" type="line"/>
      <point x="451" y="475" type="line"/>
      <point x="429" y="496"/>
      <point x="389" y="533"/>
      <point x="290" y="533" type="curve" smooth="yes"/>
      <point x="127" y="533"/>
      <point x="26" y="404"/>
      <point x="18" y="227" type="curve" smooth="yes"/>
      <point x="11" y="78"/>
      <point x="95" y="-10"/>
      <point x="215" y="-10" type="curve" smooth="yes"/>
      <point x="321" y="-10"/>
      <point x="374" y="50"/>
      <point x="405" y="141" type="curve"/>
      <point x="375" y="165" type="line"/>
      <point x="352" y="105"/>
      <point x="315" y="46"/>
      <point x="269" y="46" type="curve" smooth="yes"/>
      <point x="234" y="46"/>
      <point x="218" y="95"/>
      <point x="223" y="195" type="curve" smooth="yes"/>
      <point x="230" y="361"/>
      <point x="276" y="486"/>
    </contour>
  </outline>
</glyph>
<glyph name="cent.proportional" format="2">
  <advance width="428"/>
  <outline>
    <contour>
      <point x="294" y="631" type="line"/>
      <point x="271" y="510" type="line"/>
      <point x="273" y="501" type="line"/>
      <point x="188" y="15" type="line"/>
      <point x="182" y="3" type="line"/>
      <point x="158" y="-126" type="line"/>
      <point x="206" y="-126" type="line"/>
      <point x="230" y="2" type="line"/>
      <point x="231" y="16" type="line"/>
      <point x="316" y="501" type="line"/>
      <point x="319" y="512" type="line"/>
      <point x="342" y="631" type="line"/>
    </contour>
    <contour>
      <point x="290" y="533" type="curve" smooth="yes"/>
      <point x="127" y="533"/>
      <point x="26" y="404"/>
      <point x="18" y="227" type="curve" smooth="yes"/>
      <point x="11" y="78"/>
      <point x="95" y="-10"/>
      <point x="215" y="-10" type="curve" smooth="yes"/>
      <point x="321" y="-10"/>
      <point x="374" y="50"/>
      <point x="405" y="141" type="curve"/>
      <point x="375" y="165" type="line"/>
      <point x="352" y="104"/>
      <point x="314" y="44"/>
      <point x="252" y="44" type="curve" smooth="yes"/>
      <point x="209" y="44"/>
      <point x="185" y="79"/>
      <point x="191" y="198" type="curve" smooth="yes"/>
      <point x="197" y="345"/>
      <point x="231" y="486"/>
      <point x="291" y="486" type="curve" smooth="yes"/>
      <point x="314" y="486"/>
      <point x="331" y="478"/>
      <point x="340" y="454" type="curve"/>
      <point x="353" y="473"/>
      <point x="342" y="485"/>
      <point x="337" y="488" type="curve"/>
      <point x="313" y="358" type="line"/>
      <point x="430" y="358" type="line"/>
      <point x="451" y="475" type="line"/>
      <point x="438" y="491"/>
      <point x="389" y="533"/>
    </contour>
  </outline>
</glyph>
<glyph name="circumflex_acute" format="2">
  <advance width="385"/>
  <anchor x="175" y="558" name="_top"/>
  <outline>
    <contour>
      <point x="388" y="823" type="curve" smooth="yes"/>
      <point x="341" y="698" type="line"/>
      <point x="340" y="681" type="line"/>
      <point x="386" y="681" type="line"/>
      <point x="466" y="740" type="line" smooth="yes"/>
      <point x="501" y="765"/>
      <point x="531" y="798"/>
      <point x="533" y="837" type="curve" smooth="yes"/>
      <point x="534" y="875"/>
      <point x="513" y="903"/>
      <point x="473" y="903" type="curve" smooth="yes"/>
      <point x="424" y="903"/>
      <point x="404" y="867"/>
    </contour>
    <component base="circumflex" xOffset="-16"/>
  </outline>
</glyph>
<glyph name="circumflex_acute.uc" format="2">
  <advance width="385"/>
  <anchor x="192" y="749" name="_top"/>
  <outline>
    <contour>
      <point x="388" y="964" type="curve" smooth="yes"/>
      <point x="350" y="883" type="line"/>
      <point x="346" y="862" type="line"/>
      <point x="389" y="862" type="line"/>
      <point x="461" y="891" type="line" smooth="yes"/>
      <point x="517" y="910"/>
      <point x="537" y="941"/>
      <point x="539" y="981" type="curve" smooth="yes"/>
      <point x="540" y="1018"/>
      <point x="513" y="1046"/>
      <point x="478" y="1046" type="curve" smooth="yes"/>
      <point x="436" y="1046"/>
      <point x="419" y="1017"/>
    </contour>
    <component base="circumflex.uc"/>
  </outline>
</glyph>
<glyph name="circumflex_hook" format="2">
  <advance width="385"/>
  <anchor x="190" y="559" name="_top"/>
  <outline>
    <contour>
      <point x="285" y="794" type="line"/>
      <point x="295" y="837"/>
      <point x="327" y="879"/>
      <point x="400" y="879" type="curve" smooth="yes"/>
      <point x="467" y="879"/>
      <point x="496" y="851"/>
      <point x="494" y="811" type="curve" smooth="yes"/>
      <point x="492" y="758"/>
      <point x="442" y="732"/>
      <point x="385" y="723" type="curve"/>
      <point x="403" y="739" type="line"/>
      <point x="395" y="695" type="line"/>
      <point x="351" y="695" type="line"/>
      <point x="361" y="750" type="line"/>
      <point x="393" y="759"/>
      <point x="403" y="779"/>
      <point x="404" y="802" type="curve" smooth="yes"/>
      <point x="405" y="820"/>
      <point x="400" y="833"/>
      <point x="386" y="833" type="curve" smooth="yes"/>
      <point x="371" y="833"/>
      <point x="361" y="819"/>
      <point x="356" y="794" type="curve"/>
    </contour>
    <component base="circumflex" xOffset="-8"/>
  </outline>
</glyph>
<glyph name="circumflex_hook.uc" format="2">
  <advance width="385"/>
  <anchor x="193" y="694" name="_top"/>
  <outline>
    <contour>
      <point x="305" y="938" type="line"/>
      <point x="315" y="981"/>
      <point x="348" y="1024"/>
      <point x="421" y="1024" type="curve" smooth="yes"/>
      <point x="488" y="1024"/>
      <point x="516" y="995"/>
      <point x="515" y="955" type="curve" smooth="yes"/>
      <point x="512" y="903"/>
      <point x="462" y="876"/>
      <point x="405" y="868" type="curve"/>
      <point x="424" y="883" type="line"/>
      <point x="417" y="839" type="line"/>
      <point x="373" y="839" type="line"/>
      <point x="382" y="895" type="line"/>
      <point x="412" y="904"/>
      <point x="423" y="923"/>
      <point x="424" y="947" type="curve" smooth="yes"/>
      <point x="425" y="965"/>
      <point x="420" y="977"/>
      <point x="407" y="977" type="curve" smooth="yes"/>
      <point x="392" y="977"/>
      <point x="380" y="963"/>
      <point x="375" y="938" type="curve"/>
    </contour>
    <component base="circumflex.uc"/>
  </outline>
</glyph>
<glyph name="circumflex_tilde.uc" format="2">
  <advance width="378"/>
  <anchor x="207" y="694" name="_top"/>
  <outline>
    <contour>
      <point x="313" y="930" type="curve" smooth="yes"/>
      <point x="356" y="930"/>
      <point x="381" y="975"/>
      <point x="401" y="1056" type="curve"/>
      <point x="372" y="1072" type="line"/>
      <point x="360" y="1037"/>
      <point x="352" y="1027"/>
      <point x="335" y="1027" type="curve" smooth="yes"/>
      <point x="305" y="1027"/>
      <point x="277" y="1075"/>
      <point x="239" y="1075" type="curve" smooth="yes"/>
      <point x="190" y="1075"/>
      <point x="164" y="1027"/>
      <point x="145" y="949" type="curve"/>
      <point x="176" y="936" type="line"/>
      <point x="186" y="967"/>
      <point x="196" y="978"/>
      <point x="213" y="978" type="curve" smooth="yes"/>
      <point x="241" y="978"/>
      <point x="273" y="930"/>
    </contour>
    <contour>
      <point x="301" y="890" type="line"/>
      <point x="367" y="762" type="line"/>
      <point x="364" y="749" type="line"/>
      <point x="313" y="749" type="line"/>
      <point x="177" y="826" type="line"/>
      <point x="298" y="826" type="line"/>
      <point x="134" y="749" type="line"/>
      <point x="80" y="749" type="line"/>
      <point x="83" y="762" type="line"/>
      <point x="201" y="890" type="line"/>
    </contour>
  </outline>
</glyph>
<glyph name="currency.proportional" format="2">
  <advance width="446"/>
  <outline>
    <contour>
      <point x="224" y="177" type="curve" smooth="yes"/>
      <point x="317" y="177"/>
      <point x="386" y="272"/>
      <point x="391" y="385" type="curve" smooth="yes"/>
      <point x="396" y="493"/>
      <point x="334" y="569"/>
      <point x="259" y="569" type="curve" smooth="yes"/>
      <point x="167" y="569"/>
      <point x="98" y="475"/>
      <point x="93" y="361" type="curve" smooth="yes"/>
      <point x="88" y="253"/>
      <point x="150" y="177"/>
    </contour>
    <contour>
      <point x="231" y="233" type="curve" smooth="yes"/>
      <point x="177" y="233"/>
      <point x="146" y="289"/>
      <point x="149" y="365" type="curve" smooth="yes"/>
      <point x="153" y="451"/>
      <point x="192" y="513"/>
      <point x="252" y="513" type="curve" smooth="yes"/>
      <point x="308" y="513"/>
      <point x="338" y="457"/>
      <point x="335" y="382" type="curve" smooth="yes"/>
      <point x="331" y="295"/>
      <point x="292" y="233"/>
    </contour>
    <contour>
      <point x="53" y="119" type="line"/>
      <point x="156" y="232" type="line"/>
      <point x="120" y="274" type="line"/>
      <point x="19" y="166" type="line"/>
    </contour>
    <contour>
      <point x="153" y="490" type="line"/>
      <point x="202" y="529" type="line"/>
      <point x="146" y="627" type="line"/>
      <point x="98" y="584" type="line"/>
    </contour>
    <contour>
      <point x="365" y="472" type="line"/>
      <point x="467" y="582" type="line"/>
      <point x="434" y="627" type="line"/>
      <point x="326" y="515" type="line"/>
    </contour>
    <contour>
      <point x="340" y="119" type="line"/>
      <point x="389" y="163" type="line"/>
      <point x="334" y="256" type="line"/>
      <point x="284" y="215" type="line"/>
    </contour>
  </outline>
</glyph>
<glyph name="dblgrave" format="2">
  <advance width="378"/>
  <anchor x="204" y="539" name="_top"/>
  <outline>
    <contour>
      <point x="339" y="695" type="line" smooth="yes"/>
      <point x="329" y="761"/>
      <point x="311" y="800"/>
      <point x="263" y="800" type="curve" smooth="yes"/>
      <point x="228" y="800"/>
      <point x="206" y="771"/>
      <point x="204" y="736" type="curve" smooth="yes"/>
      <point x="203" y="704"/>
      <point x="212" y="675"/>
      <point x="265" y="628" type="curve" smooth="yes"/>
      <point x="311" y="566" type="line"/>
      <point x="355" y="566" type="line"/>
      <point x="355" y="582" type="line"/>
    </contour>
    <contour>
      <point x="178" y="695" type="line" smooth="yes"/>
      <point x="167" y="761"/>
      <point x="150" y="800"/>
      <point x="102" y="800" type="curve" smooth="yes"/>
      <point x="66" y="800"/>
      <point x="44" y="771"/>
      <point x="42" y="736" type="curve" smooth="yes"/>
      <point x="41" y="704"/>
      <point x="51" y="675"/>
      <point x="103" y="628" type="curve" smooth="yes"/>
      <point x="150" y="566" type="line"/>
      <point x="193" y="566" type="line"/>
      <point x="193" y="582" type="line"/>
    </contour>
  </outline>
</glyph>
<glyph name="dblgrave.uc" format="2">
  <advance width="378"/>
  <anchor x="258" y="734" name="_top"/>
  <outline>
    <contour>
      <point x="375" y="842" type="line" smooth="yes"/>
      <point x="362" y="913"/>
      <point x="354" y="954"/>
      <point x="303" y="954" type="curve" smooth="yes"/>
      <point x="265" y="954"/>
      <point x="244" y="925"/>
      <point x="243" y="893" type="curve" smooth="yes"/>
      <point x="242" y="860"/>
      <point x="258" y="834"/>
      <point x="291" y="795" type="curve" smooth="yes"/>
      <point x="339" y="742" type="line"/>
      <point x="386" y="742" type="line"/>
      <point x="387" y="758" type="line"/>
    </contour>
    <contour>
      <point x="216" y="842" type="line" smooth="yes"/>
      <point x="203" y="913"/>
      <point x="196" y="954"/>
      <point x="145" y="954" type="curve" smooth="yes"/>
      <point x="107" y="954"/>
      <point x="86" y="925"/>
      <point x="85" y="893" type="curve" smooth="yes"/>
      <point x="84" y="860"/>
      <point x="100" y="834"/>
      <point x="134" y="795" type="curve" smooth="yes"/>
      <point x="180" y="742" type="line"/>
      <point x="228" y="742" type="line"/>
      <point x="229" y="758" type="line"/>
    </contour>
  </outline>
</glyph>
<glyph name="dollar.alt" format="2">
  <advance width="423"/>
  <outline>
    <contour>
      <point x="190" y="12" type="curve" smooth="yes"/>
      <point x="331" y="12"/>
      <point x="410" y="94"/>
      <point x="417" y="243" type="curve" smooth="yes"/>
      <point x="421" y="348"/>
      <point x="349" y="399"/>
      <point x="262" y="452" type="curve" smooth="yes"/>
      <point x="221" y="485"/>
      <point x="192" y="507"/>
      <point x="195" y="564" type="curve" smooth="yes"/>
      <point x="197" y="611"/>
      <point x="223" y="651"/>
      <point x="279" y="651" type="curve" smooth="yes"/>
      <point x="338" y="651"/>
      <point x="362" y="635"/>
      <point x="389" y="587" type="curve"/>
      <point x="387" y="614"/>
      <point x="377" y="636"/>
      <point x="361" y="654" type="curve"/>
      <point x="336" y="517" type="line"/>
      <point x="437" y="517" type="line"/>
      <point x="455" y="627" type="line"/>
      <point x="438" y="654"/>
      <point x="384" y="698"/>
      <point x="272" y="698" type="curve" smooth="yes"/>
      <point x="135" y="698"/>
      <point x="62" y="617"/>
      <point x="57" y="498" type="curve" smooth="yes"/>
      <point x="52" y="383"/>
      <point x="101" y="333"/>
      <point x="180" y="281" type="curve" smooth="yes"/>
      <point x="248" y="235"/>
      <point x="276" y="213"/>
      <point x="274" y="158" type="curve" smooth="yes"/>
      <point x="271" y="96"/>
      <point x="233" y="59"/>
      <point x="185" y="59" type="curve" smooth="yes"/>
      <point x="95" y="59"/>
      <point x="74" y="98"/>
      <point x="55" y="139" type="curve"/>
      <point x="64" y="110"/>
      <point x="76" y="84"/>
      <point x="89" y="59" type="curve"/>
      <point x="125" y="220" type="line"/>
      <point x="14" y="220" type="line"/>
      <point x="-11" y="105" type="line"/>
      <point x="20" y="65"/>
      <point x="74" y="12"/>
    </contour>
    <contour>
      <point x="179" y="-120" type="line"/>
      <point x="201" y="-9" type="line"/>
      <point x="142" y="20" type="line"/>
      <point x="121" y="-91" type="line"/>
    </contour>
    <contour>
      <point x="260" y="681" type="line"/>
      <point x="316" y="704" type="line"/>
      <point x="339" y="790" type="line"/>
      <point x="285" y="769" type="line"/>
    </contour>
  </outline>
</glyph>
<glyph name="dollar.proportional" format="2">
  <advance width="461"/>
  <outline>
    <contour>
      <point x="208" y="12" type="curve" smooth="yes"/>
      <point x="353" y="12"/>
      <point x="435" y="104"/>
      <point x="441" y="250" type="curve" smooth="yes"/>
      <point x="446" y="361"/>
      <point x="387" y="403"/>
      <point x="296" y="450" type="curve" smooth="yes"/>
      <point x="233" y="489"/>
      <point x="192" y="504"/>
      <point x="194" y="561" type="curve" smooth="yes"/>
      <point x="197" y="616"/>
      <point x="226" y="651"/>
      <point x="292" y="651" type="curve" smooth="yes"/>
      <point x="357" y="651"/>
      <point x="385" y="638"/>
      <point x="411" y="590" type="curve"/>
      <point x="410" y="612"/>
      <point x="401" y="635"/>
      <point x="384" y="654" type="curve"/>
      <point x="358" y="517" type="line"/>
      <point x="459" y="517" type="line"/>
      <point x="478" y="627" type="line"/>
      <point x="461" y="655"/>
      <point x="405" y="698"/>
      <point x="291" y="698" type="curve" smooth="yes"/>
      <point x="150" y="698"/>
      <point x="76" y="618"/>
      <point x="70" y="487" type="curve" smooth="yes"/>
      <point x="65" y="375"/>
      <point x="117" y="329"/>
      <point x="197" y="284" type="curve" smooth="yes"/>
      <point x="281" y="237"/>
      <point x="318" y="218"/>
      <point x="315" y="161" type="curve" smooth="yes"/>
      <point x="312" y="97"/>
      <point x="263" y="59"/>
      <point x="204" y="59" type="curve" smooth="yes"/>
      <point x="108" y="59"/>
      <point x="89" y="98"/>
      <point x="71" y="139" type="curve"/>
      <point x="77" y="110"/>
      <point x="89" y="84"/>
      <point x="104" y="59" type="curve"/>
      <point x="141" y="220" type="line"/>
      <point x="29" y="220" type="line"/>
      <point x="4" y="105" type="line"/>
      <point x="35" y="65"/>
      <point x="91" y="12"/>
    </contour>
    <contour>
      <point x="302" y="790" type="line"/>
      <point x="283" y="682" type="line"/>
      <point x="280" y="664" type="line"/>
      <point x="172" y="42" type="line"/>
      <point x="166" y="21" type="line"/>
      <point x="142" y="-120" type="line"/>
      <point x="194" y="-120" type="line"/>
      <point x="218" y="20" type="line"/>
      <point x="223" y="44" type="line"/>
      <point x="331" y="664" type="line"/>
      <point x="336" y="683" type="line"/>
      <point x="354" y="790" type="line"/>
    </contour>
  </outline>
</glyph>
